{"glyphs":{"0":{"ha":746,"x_min":63,"x_max":683,"o":"m 683 497 q 666 282 683 376 q 612 122 649 188 q 515 21 575 56 q 372 -14 456 -14 q 198 47 267 -14 q 96 223 129 108 q 63 497 63 338 q 93 772 63 658 q 192 947 124 886 q 372 1007 260 1007 q 547 947 478 1007 q 649 772 615 886 q 683 497 683 658 m 183 497 q 202 271 183 361 q 263 135 221 181 q 372 90 304 90 q 482 135 440 90 q 542 270 524 179 q 561 497 561 361 q 542 723 561 633 q 482 858 524 813 q 372 903 440 903 q 263 858 304 903 q 202 723 221 813 q 183 497 183 633 z "},"1":{"ha":746,"x_min":113,"x_max":468,"o":"m 468 0 l 350 0 l 350 693 q 351 761 350 733 q 353 813 351 789 q 356 864 354 838 q 318 826 336 842 q 275 788 300 810 l 176 701 l 113 783 l 368 992 l 468 992 l 468 0 z "},"2":{"ha":746,"x_min":63,"x_max":682,"o":"m 682 0 l 63 0 l 63 101 l 306 364 q 423 497 375 439 q 496 612 471 556 q 521 735 521 668 q 476 859 521 817 q 360 901 432 901 q 242 876 293 901 q 138 807 190 851 l 72 889 q 153 949 110 922 q 248 990 196 975 q 361 1006 300 1006 q 512 974 449 1006 q 610 883 575 942 q 644 742 644 824 q 627 631 644 683 q 578 529 610 579 q 502 428 546 479 q 404 319 458 376 l 214 117 l 215 111 l 682 111 l 682 0 z "},"3":{"ha":746,"x_min":58,"x_max":675,"o":"m 646 760 q 622 644 646 693 q 554 565 597 596 q 451 522 511 535 l 451 517 q 619 442 564 503 q 675 282 675 381 q 637 128 675 196 q 519 24 599 61 q 315 -14 439 -14 q 179 -2 242 -14 q 58 40 117 10 l 58 154 q 185 106 117 124 q 315 89 253 89 q 493 141 439 89 q 547 285 547 193 q 517 385 547 347 q 430 442 488 424 q 289 460 372 460 l 201 460 l 201 564 l 290 564 q 419 588 368 564 q 497 653 471 611 q 522 751 522 696 q 478 863 522 824 q 356 903 433 903 q 265 892 306 903 q 191 863 225 882 q 124 819 157 844 l 64 903 q 141 954 97 931 q 239 992 185 978 q 356 1006 293 1006 q 574 936 501 1006 q 646 760 646 867 z "},"4":{"ha":746,"x_min":26,"x_max":721,"o":"m 721 225 l 586 225 l 586 0 l 469 0 l 469 225 l 26 225 l 26 329 l 463 997 l 586 997 l 586 335 l 721 335 l 721 225 m 469 647 q 470 713 469 683 q 472 769 471 743 q 474 820 474 796 q 476 867 475 844 l 471 867 q 444 810 460 840 q 415 758 429 779 l 143 335 l 469 335 l 469 647 z "},"5":{"ha":746,"x_min":81,"x_max":674,"o":"m 361 608 q 526 574 456 608 q 635 474 596 539 q 674 317 674 410 q 632 140 674 214 q 512 26 590 65 q 322 -14 433 -14 q 188 0 250 -14 q 81 40 125 14 l 81 156 q 195 108 128 125 q 324 90 263 90 q 442 113 392 90 q 522 184 493 136 q 550 304 550 232 q 494 453 550 401 q 319 506 439 506 q 235 499 282 506 q 161 485 189 492 l 103 524 l 138 992 l 608 992 l 608 881 l 242 881 l 219 593 q 279 603 243 597 q 361 608 315 608 z "},"6":{"ha":746,"x_min":69,"x_max":686,"o":"m 69 424 q 81 593 69 510 q 119 751 92 676 q 196 883 147 825 q 319 973 244 940 q 500 1006 394 1006 q 560 1003 528 1006 q 615 993 593 1000 l 615 889 q 562 901 592 897 q 503 906 532 906 q 353 874 413 906 q 260 786 294 842 q 209 658 225 731 q 189 504 193 586 l 197 504 q 247 564 217 538 q 319 606 276 590 q 417 621 361 621 q 559 585 499 621 q 653 483 619 550 q 686 319 686 415 q 650 142 686 217 q 547 26 614 67 q 389 -14 481 -14 q 264 13 322 -14 q 162 93 206 39 q 94 230 118 147 q 69 424 69 313 m 388 89 q 517 145 468 89 q 567 319 567 201 q 523 469 567 414 q 390 525 479 525 q 286 498 331 525 q 217 429 242 471 q 192 343 192 388 q 204 253 192 297 q 241 171 217 208 q 302 111 265 133 q 388 89 339 89 z "},"7":{"ha":746,"x_min":56,"x_max":685,"o":"m 175 0 l 556 881 l 56 881 l 56 992 l 685 992 l 685 897 l 308 0 l 175 0 z "},"8":{"ha":746,"x_min":63,"x_max":683,"o":"m 372 1006 q 517 978 454 1006 q 617 899 581 951 q 653 768 653 846 q 628 664 653 708 q 565 585 604 619 q 476 525 525 551 q 581 459 533 496 q 656 374 628 422 q 683 257 683 325 q 645 113 683 174 q 538 19 607 53 q 376 -14 469 -14 q 205 18 275 -14 q 99 109 135 50 q 63 253 63 168 q 89 371 63 321 q 159 457 115 421 q 254 518 203 493 q 173 581 210 546 q 115 663 136 617 q 93 769 93 708 q 130 898 93 846 q 230 978 167 950 q 372 1006 293 1006 m 181 251 q 228 131 181 179 q 374 83 275 83 q 478 106 436 83 q 543 167 521 128 q 565 256 565 206 q 541 341 565 304 q 474 407 517 378 q 374 460 431 436 l 354 468 q 260 411 299 442 q 201 342 221 381 q 181 251 181 303 m 371 907 q 255 870 300 907 q 210 764 210 833 q 233 678 210 713 q 293 619 256 643 q 376 572 331 594 q 456 618 421 593 q 513 678 492 643 q 533 764 533 714 q 489 870 533 833 q 371 907 444 907 z "},"9":{"ha":746,"x_min":64,"x_max":681,"o":"m 681 568 q 663 358 681 461 q 599 170 644 254 q 468 36 553 86 q 250 -14 383 -14 q 189 -10 224 -14 q 132 0 154 -7 l 132 104 q 186 91 156 96 q 246 86 217 86 q 397 118 338 86 q 490 205 456 150 q 541 333 525 260 q 560 486 557 406 l 551 486 q 502 428 532 454 q 430 386 472 401 q 331 371 388 371 q 191 406 251 371 q 97 508 131 442 q 64 671 64 575 q 101 850 64 775 q 205 965 138 925 q 363 1006 272 1006 q 488 978 429 1006 q 589 897 546 951 q 656 761 632 843 q 681 568 681 679 m 364 903 q 233 846 283 903 q 183 672 183 789 q 226 523 183 578 q 358 468 269 468 q 465 494 419 468 q 534 563 510 521 q 558 649 558 604 q 546 738 558 693 q 509 821 533 783 q 449 881 485 858 q 364 903 413 903 z "},"\u0000":{"ha":0,"x_min":0,"x_max":0,"o":""},"\r":{"ha":339,"x_min":0,"x_max":0,"o":""}," ":{"ha":339,"x_min":0,"x_max":0,"o":""},"!":{"ha":354,"x_min":93,"x_max":260,"o":"m 225 279 l 128 279 l 104 992 l 250 992 l 225 279 m 93 75 q 117 147 93 126 q 176 168 142 168 q 235 147 210 168 q 260 75 260 126 q 235 3 260 25 q 176 -19 210 -19 q 117 3 142 -19 q 93 75 93 25 z "},"\"":{"ha":539,"x_min":85,"x_max":454,"o":"m 213 992 l 186 633 l 111 633 l 85 992 l 213 992 m 454 992 l 428 633 l 351 633 l 326 992 l 454 992 z "},"#":{"ha":843,"x_min":32,"x_max":810,"o":"m 626 606 l 588 383 l 765 383 l 765 290 l 569 290 l 517 0 l 421 0 l 474 290 l 292 290 l 240 0 l 146 0 l 196 290 l 32 290 l 32 383 l 213 383 l 254 606 l 81 606 l 81 697 l 271 697 l 322 992 l 419 992 l 368 697 l 551 697 l 603 992 l 697 992 l 644 697 l 810 697 l 810 606 l 626 606 m 310 383 l 492 383 l 531 606 l 349 606 l 310 383 z "},"$":{"ha":746,"x_min":79,"x_max":675,"o":"m 331 68 q 190 81 257 69 q 79 114 122 93 l 79 232 q 194 193 124 210 q 331 175 264 176 l 331 456 q 217 498 265 475 q 139 550 169 521 q 94 617 108 579 q 79 706 79 656 q 147 867 79 808 q 331 932 215 925 l 331 1054 l 414 1054 l 414 933 q 541 917 483 932 q 647 882 599 903 l 610 779 q 517 810 567 797 q 414 828 467 824 l 414 549 q 558 492 500 522 q 645 419 615 463 q 675 306 675 375 q 608 148 675 208 q 414 74 540 88 l 414 -81 l 331 -81 l 331 68 m 414 182 q 522 220 488 190 q 557 297 557 250 q 544 355 557 332 q 500 394 531 378 q 414 426 469 411 l 414 182 m 331 825 q 230 790 263 819 q 197 715 197 761 q 210 653 197 679 q 251 610 222 628 q 331 579 281 593 l 331 825 z "},"%":{"ha":1093,"x_min":63,"x_max":1031,"o":"m 256 1006 q 403 924 353 1006 q 453 696 453 843 q 406 466 453 549 q 256 383 358 383 q 150 421 193 383 q 85 528 107 458 q 63 696 63 599 q 109 924 63 843 q 256 1006 156 1006 m 256 919 q 185 863 207 919 q 163 696 163 807 q 185 528 163 585 q 256 471 207 471 q 328 527 304 471 q 353 696 353 583 q 328 863 353 807 q 256 919 304 919 m 857 992 l 340 0 l 236 0 l 753 992 l 857 992 m 832 608 q 940 572 896 608 q 1008 466 985 535 q 1031 299 1031 397 q 983 69 1031 151 q 832 -14 935 -14 q 726 24 769 -14 q 661 131 683 61 q 639 299 639 201 q 685 527 639 446 q 832 608 732 608 m 832 521 q 763 465 785 521 q 740 299 740 410 q 763 130 740 186 q 832 74 785 74 q 906 129 882 74 q 929 299 929 185 q 906 465 929 410 q 832 521 882 521 z "},"&":{"ha":958,"x_min":68,"x_max":956,"o":"m 397 1007 q 565 951 503 1007 q 626 793 626 894 q 573 644 626 706 q 439 533 519 583 l 686 275 q 741 374 719 318 q 776 496 763 431 l 899 496 q 847 331 879 407 q 764 197 814 254 l 956 0 l 793 0 l 683 117 q 619 63 653 88 q 547 22 585 39 q 463 -4 508 6 q 365 -14 418 -14 q 207 17 274 -14 q 104 110 140 49 q 68 258 68 171 q 92 381 68 329 q 161 472 117 432 q 267 550 206 513 q 213 619 239 583 q 172 698 188 656 q 156 790 156 740 q 221 950 156 893 q 397 1007 286 1007 m 339 474 q 262 415 294 444 q 212 349 229 385 q 194 263 194 313 q 242 140 194 186 q 369 94 290 94 q 508 124 450 94 q 607 193 567 153 l 339 474 m 394 907 q 307 876 342 907 q 272 792 272 846 q 297 699 272 742 q 367 606 321 657 q 474 695 442 653 q 507 793 507 738 q 476 875 507 843 q 394 907 446 907 z "},"'":{"ha":297,"x_min":85,"x_max":213,"o":"m 213 992 l 186 633 l 111 633 l 85 992 l 213 992 z "},"(":{"ha":396,"x_min":53,"x_max":357,"o":"m 53 381 q 73 603 53 494 q 136 810 93 711 q 244 992 179 908 l 357 992 q 256 806 297 906 q 194 599 215 706 q 174 382 174 492 q 194 169 174 275 q 256 -34 215 64 q 356 -219 296 -132 l 244 -219 q 136 -41 179 -137 q 73 163 93 56 q 53 381 53 269 z "},")":{"ha":396,"x_min":39,"x_max":343,"o":"m 343 381 q 323 163 343 269 q 260 -41 303 56 q 151 -219 218 -137 l 40 -219 q 140 -34 100 -132 q 201 169 181 64 q 222 382 222 275 q 176 704 222 547 q 39 992 129 861 l 151 992 q 260 810 218 908 q 323 603 303 711 q 343 381 343 494 z "},"*":{"ha":719,"x_min":53,"x_max":664,"o":"m 422 1056 l 396 789 l 646 864 l 664 736 l 425 715 l 581 496 l 465 431 l 356 674 l 256 431 l 138 496 l 289 715 l 53 736 l 72 864 l 318 789 l 292 1056 l 422 1056 z "},"+":{"ha":746,"x_min":64,"x_max":679,"o":"m 421 539 l 679 539 l 679 440 l 421 440 l 421 154 l 322 154 l 322 440 l 64 440 l 64 539 l 322 539 l 322 826 l 421 826 l 421 539 z "},",":{"ha":353,"x_min":53,"x_max":254,"o":"m 254 146 q 224 40 243 97 q 184 -73 206 -17 q 142 -179 163 -129 l 53 -179 q 78 -66 65 -126 q 101 53 90 -6 q 118 161 113 113 l 244 161 l 254 146 z "},"-":{"ha":421,"x_min":51,"x_max":369,"o":"m 51 318 l 51 426 l 369 426 l 369 318 l 51 318 z "},".":{"ha":353,"x_min":93,"x_max":260,"o":"m 93 75 q 117 147 93 126 q 175 168 140 168 q 235 147 210 168 q 260 75 260 126 q 235 3 260 25 q 175 -19 210 -19 q 117 3 140 -19 q 93 75 93 25 z "},"/":{"ha":489,"x_min":13,"x_max":476,"o":"m 476 992 l 129 0 l 13 0 l 360 992 l 476 992 z "},":":{"ha":353,"x_min":93,"x_max":260,"o":"m 93 75 q 117 147 93 126 q 175 168 140 168 q 235 147 210 168 q 260 75 260 126 q 235 3 260 25 q 175 -19 210 -19 q 117 3 140 -19 q 93 75 93 25 m 93 669 q 117 743 93 722 q 175 764 140 764 q 235 743 210 764 q 260 669 260 722 q 235 597 260 619 q 175 575 210 575 q 117 597 140 575 q 93 669 93 619 z "},";":{"ha":353,"x_min":40,"x_max":257,"o":"m 243 146 q 213 40 232 97 q 173 -73 194 -17 q 131 -179 151 -129 l 40 -179 q 60 -96 50 -140 q 78 -6 69 -51 q 94 82 86 39 q 107 161 101 125 l 233 161 l 243 146 m 90 669 q 114 743 90 722 q 172 764 138 764 q 233 743 208 764 q 257 669 257 722 q 233 597 257 619 q 172 575 208 575 q 114 597 138 575 q 90 669 90 619 z "},"<":{"ha":746,"x_min":64,"x_max":681,"o":"m 681 161 l 64 449 l 64 518 l 681 844 l 681 736 l 192 489 l 681 269 l 681 161 z "},"=":{"ha":747,"x_min":72,"x_max":672,"o":"m 72 578 l 72 676 l 672 676 l 672 578 l 72 578 m 72 301 l 72 400 l 672 400 l 672 301 l 72 301 z "},">":{"ha":746,"x_min":64,"x_max":681,"o":"m 64 269 l 551 488 l 64 736 l 64 844 l 681 518 l 681 449 l 64 161 l 64 269 z "},"?":{"ha":571,"x_min":15,"x_max":538,"o":"m 183 317 q 193 408 183 369 q 227 481 203 446 q 293 553 251 515 q 371 629 343 599 q 410 689 399 660 q 422 760 422 718 q 382 863 422 826 q 268 899 342 899 q 154 881 204 899 q 58 840 104 864 l 15 938 q 133 986 68 967 q 276 1006 197 1006 q 469 940 401 1006 q 538 763 538 875 q 518 656 538 700 q 465 576 499 613 q 383 497 431 540 q 318 429 340 458 q 288 372 296 400 q 281 303 281 343 l 281 279 l 183 279 l 183 317 m 153 75 q 177 147 153 126 q 238 168 201 168 q 294 147 269 168 q 319 75 319 126 q 294 3 319 25 q 238 -19 269 -19 q 177 3 201 -19 q 153 75 153 25 z "},"@":{"ha":1174,"x_min":75,"x_max":1099,"o":"m 1099 496 q 1085 371 1099 432 q 1042 260 1071 310 q 972 181 1014 211 q 872 151 929 151 q 778 188 813 151 q 735 272 743 225 l 728 272 q 660 186 706 221 q 544 151 614 151 q 389 222 443 151 q 335 410 335 293 q 369 572 335 501 q 466 682 403 642 q 614 722 529 722 q 728 712 672 722 q 815 689 785 701 l 803 407 q 801 372 801 382 q 801 357 801 361 q 825 261 801 285 q 879 238 849 238 q 947 273 919 238 q 990 367 975 308 q 1004 497 1004 426 q 956 716 1004 626 q 822 853 907 806 q 629 900 738 900 q 433 863 518 900 q 290 757 347 825 q 202 597 232 689 q 172 393 172 504 q 217 162 172 257 q 351 17 263 67 q 567 -32 439 -32 q 719 -13 644 -32 q 849 28 793 6 l 849 -67 q 722 -108 793 -92 q 567 -124 651 -124 q 302 -62 413 -124 q 133 113 192 -1 q 75 389 75 228 q 113 628 75 518 q 223 820 151 739 q 397 947 294 901 q 629 992 500 992 q 872 932 765 992 q 1038 761 978 872 q 1099 496 1099 650 m 440 407 q 473 278 440 318 q 561 238 506 238 q 666 296 633 238 q 703 447 699 354 l 711 621 q 668 631 693 626 q 615 635 643 635 q 513 601 551 635 q 457 516 474 568 q 440 407 440 464 z "},"A":{"ha":839,"x_min":0,"x_max":838,"o":"m 710 0 l 601 307 l 233 307 l 126 0 l 0 0 l 361 996 l 478 996 l 838 0 l 710 0 m 463 718 q 451 758 460 729 q 433 819 442 788 q 418 867 424 850 q 397 783 408 824 q 376 718 385 742 l 274 418 l 565 418 l 463 718 z "},"B":{"ha":851,"x_min":126,"x_max":781,"o":"m 394 992 q 590 968 511 992 q 710 890 669 944 q 750 746 750 836 q 730 642 750 688 q 671 567 710 597 q 575 526 632 538 l 575 519 q 680 483 633 510 q 753 408 726 457 q 781 282 781 360 q 741 128 781 192 q 629 33 701 65 q 456 0 557 0 l 126 0 l 126 992 l 394 992 m 418 569 q 578 610 535 569 q 622 732 622 651 q 569 849 622 814 q 400 885 515 885 l 250 885 l 250 569 l 418 569 m 250 465 l 250 106 l 433 106 q 602 157 554 106 q 650 292 650 208 q 628 383 650 344 q 558 444 607 422 q 425 465 510 465 l 250 465 z "},"C":{"ha":825,"x_min":79,"x_max":785,"o":"m 525 896 q 393 869 451 896 q 294 790 335 842 q 231 663 253 738 q 210 496 210 589 q 244 283 210 374 q 349 144 279 193 q 524 96 419 96 q 640 107 585 96 q 749 135 694 118 l 749 26 q 640 -4 696 6 q 507 -14 585 -14 q 269 49 364 -14 q 126 226 174 111 q 79 497 79 342 q 108 703 79 610 q 194 864 138 796 q 335 969 251 932 q 526 1006 418 1006 q 664 990 597 1006 q 785 947 731 975 l 736 842 q 640 879 693 863 q 525 896 586 896 z "},"D":{"ha":954,"x_min":126,"x_max":875,"o":"m 875 506 q 817 226 875 339 q 649 57 758 114 q 386 0 540 0 l 126 0 l 126 992 l 414 992 q 659 936 556 992 q 819 773 763 881 q 875 506 875 665 m 744 501 q 704 718 744 633 q 587 844 664 803 q 399 885 510 885 l 250 885 l 250 107 l 374 107 q 652 206 560 107 q 744 501 744 306 z "},"E":{"ha":726,"x_min":126,"x_max":649,"o":"m 649 0 l 126 0 l 126 992 l 649 992 l 649 882 l 250 882 l 250 572 l 625 572 l 625 464 l 250 464 l 250 110 l 649 110 l 649 0 z "},"F":{"ha":682,"x_min":126,"x_max":649,"o":"m 250 0 l 126 0 l 126 992 l 649 992 l 649 882 l 250 882 l 250 531 l 624 531 l 624 421 l 250 421 l 250 0 z "},"G":{"ha":950,"x_min":79,"x_max":853,"o":"m 526 524 l 853 524 l 853 38 q 701 -1 778 11 q 525 -14 624 -14 q 281 48 381 -14 q 131 224 182 110 q 79 496 79 339 q 136 765 79 651 q 301 942 193 879 q 563 1006 410 1006 q 710 990 640 1006 q 840 947 781 975 l 794 839 q 684 879 746 863 q 557 896 622 896 q 369 847 447 896 q 250 709 292 799 q 208 496 208 619 q 243 287 208 378 q 353 145 278 196 q 551 94 429 94 q 623 98 592 94 q 681 107 654 101 q 729 118 707 113 l 729 413 l 526 413 l 526 524 z "},"H":{"ha":971,"x_min":126,"x_max":843,"o":"m 843 0 l 719 0 l 719 463 l 250 463 l 250 0 l 126 0 l 126 992 l 250 992 l 250 572 l 719 572 l 719 992 l 843 992 l 843 0 z "},"I":{"ha":447,"x_min":51,"x_max":394,"o":"m 394 0 l 51 0 l 51 72 l 161 99 l 161 892 l 51 919 l 51 992 l 394 992 l 394 919 l 285 892 l 285 99 l 394 72 l 394 0 z "},"J":{"ha":361,"x_min":-101,"x_max":243,"o":"m -3 -264 q -59 -259 -35 -264 q -101 -246 -83 -254 l -101 -140 q -57 -150 -81 -146 q -7 -154 -33 -154 q 55 -140 26 -154 q 101 -92 83 -126 q 119 6 119 -57 l 119 992 l 243 992 l 243 15 q 213 -142 243 -81 q 127 -234 182 -204 q -3 -264 72 -264 z "},"K":{"ha":813,"x_min":126,"x_max":813,"o":"m 813 0 l 668 0 l 344 474 l 250 385 l 250 0 l 126 0 l 126 992 l 250 992 l 250 503 q 326 597 288 550 q 404 692 365 644 l 656 992 l 800 992 l 433 560 l 813 0 z "},"L":{"ha":689,"x_min":126,"x_max":656,"o":"m 126 0 l 126 992 l 250 992 l 250 111 l 656 111 l 656 0 l 126 0 z "},"M":{"ha":1189,"x_min":126,"x_max":1063,"o":"m 536 0 l 236 869 l 231 869 q 235 799 233 842 q 239 705 238 756 q 240 601 240 654 l 240 0 l 126 0 l 126 992 l 307 992 l 589 179 l 594 179 l 882 992 l 1063 992 l 1063 0 l 940 0 l 940 610 q 942 706 940 658 q 946 797 943 754 q 950 868 949 839 l 944 868 l 639 0 l 536 0 z "},"N":{"ha":999,"x_min":126,"x_max":872,"o":"m 872 0 l 726 0 l 235 824 l 229 824 q 233 768 231 799 q 236 702 235 738 q 239 629 238 667 q 240 554 240 592 l 240 0 l 126 0 l 126 992 l 271 992 l 761 171 l 767 171 q 764 217 765 188 q 761 284 763 247 q 758 360 760 321 q 757 432 757 399 l 757 992 l 872 992 l 872 0 z "},"O":{"ha":1021,"x_min":79,"x_max":942,"o":"m 942 497 q 914 288 942 382 q 832 126 886 194 q 697 22 778 58 q 511 -14 617 -14 q 320 23 401 -14 q 185 127 239 60 q 106 289 132 194 q 79 499 79 383 q 126 765 79 651 q 270 943 174 879 q 513 1007 367 1007 q 749 944 653 1007 q 893 766 844 881 q 942 497 942 651 m 210 497 q 242 282 210 372 q 341 143 274 192 q 511 94 408 94 q 682 143 615 94 q 780 282 749 192 q 811 497 811 372 q 740 791 811 685 q 513 897 668 897 q 341 849 408 897 q 242 712 274 801 q 210 497 210 622 z "},"P":{"ha":793,"x_min":126,"x_max":726,"o":"m 376 992 q 643 915 560 992 q 726 700 726 839 q 692 547 726 618 q 576 431 657 475 q 356 386 496 386 l 250 386 l 250 0 l 126 0 l 126 992 l 376 992 m 367 885 l 250 885 l 250 493 l 342 493 q 485 513 428 493 q 570 578 542 533 q 599 694 599 622 q 542 838 599 790 q 367 885 486 885 z "},"Q":{"ha":1021,"x_min":79,"x_max":942,"o":"m 942 497 q 911 278 942 376 q 822 111 881 179 q 674 11 763 43 l 897 -236 l 722 -236 l 542 -12 q 526 -13 535 -12 q 511 -14 518 -14 q 320 23 401 -14 q 185 127 239 60 q 106 289 132 194 q 79 499 79 383 q 126 765 79 651 q 270 943 174 879 q 513 1007 367 1007 q 749 944 653 1007 q 893 766 844 881 q 942 497 942 651 m 210 497 q 242 282 210 372 q 341 143 274 192 q 511 94 408 94 q 682 143 615 94 q 780 282 749 192 q 811 497 811 372 q 740 791 811 685 q 513 897 668 897 q 341 849 408 897 q 242 712 274 801 q 210 497 210 622 z "},"R":{"ha":817,"x_min":126,"x_max":799,"o":"m 385 992 q 577 960 501 992 q 690 867 653 929 q 726 710 726 804 q 699 578 726 631 q 630 494 672 525 q 540 444 588 463 l 799 0 l 654 0 l 429 410 l 250 410 l 250 0 l 126 0 l 126 992 l 385 992 m 378 883 l 250 883 l 250 515 l 383 515 q 506 537 458 515 q 576 600 554 558 q 599 704 599 642 q 575 808 599 769 q 502 865 551 847 q 378 883 453 883 z "},"S":{"ha":718,"x_min":67,"x_max":657,"o":"m 657 265 q 616 115 657 176 q 501 19 575 53 q 324 -14 426 -14 q 224 -8 272 -14 q 137 8 176 -3 q 67 33 97 18 l 67 153 q 185 113 115 131 q 329 94 256 94 q 442 114 397 94 q 510 169 488 133 q 533 254 533 206 q 513 336 533 303 q 446 398 493 369 q 317 458 399 426 q 187 528 240 489 q 106 622 133 567 q 78 753 78 676 q 116 888 78 832 q 222 975 154 944 q 378 1006 289 1006 q 518 990 454 1006 q 636 950 582 975 l 597 843 q 491 881 547 865 q 375 896 435 896 q 280 878 318 896 q 222 827 242 860 q 203 751 203 794 q 222 668 203 701 q 286 608 242 635 q 404 551 331 582 q 542 483 486 519 q 628 394 599 446 q 657 265 657 343 z "},"T":{"ha":728,"x_min":14,"x_max":713,"o":"m 426 0 l 303 0 l 303 882 l 14 882 l 14 992 l 713 992 l 713 882 l 426 882 l 426 0 z "},"U":{"ha":957,"x_min":117,"x_max":839,"o":"m 839 350 q 799 165 839 247 q 678 34 760 82 q 474 -14 597 -14 q 208 87 299 -14 q 117 353 117 188 l 117 992 l 240 992 l 240 349 q 300 161 240 228 q 481 94 360 94 q 615 127 564 94 q 691 217 667 160 q 715 350 715 275 l 715 992 l 839 992 l 839 350 z "},"V":{"ha":789,"x_min":0,"x_max":789,"o":"m 789 992 l 457 0 l 332 0 l 0 992 l 129 992 l 336 356 q 360 278 350 315 q 380 206 371 240 q 394 139 389 172 q 408 207 400 172 q 428 279 417 242 q 453 358 440 317 l 658 992 l 789 992 z "},"W":{"ha":1217,"x_min":14,"x_max":1201,"o":"m 1201 992 l 954 0 l 828 0 l 651 650 q 635 710 643 679 q 621 768 628 740 q 610 816 614 796 q 604 846 606 836 q 599 816 603 836 q 589 768 594 796 q 576 709 583 740 q 560 646 568 678 l 388 0 l 260 0 l 14 992 l 143 992 l 286 386 q 304 303 296 344 q 319 223 313 261 q 329 150 325 185 q 342 227 335 186 q 358 310 349 268 q 379 393 368 351 l 540 992 l 668 992 l 836 389 q 858 303 849 346 q 874 221 867 260 q 886 150 882 182 q 897 223 890 185 q 913 303 904 261 q 932 388 922 344 l 1074 992 l 1201 992 z "},"X":{"ha":772,"x_min":4,"x_max":768,"o":"m 768 0 l 628 0 l 383 431 l 135 0 l 4 0 l 314 517 l 24 992 l 161 992 l 388 603 l 615 992 l 746 992 l 457 519 l 768 0 z "},"Y":{"ha":744,"x_min":0,"x_max":744,"o":"m 372 504 l 611 992 l 744 992 l 435 385 l 435 0 l 311 0 l 311 379 l 0 992 l 135 992 l 372 504 z "},"Z":{"ha":749,"x_min":49,"x_max":699,"o":"m 699 0 l 49 0 l 49 94 l 536 881 l 64 881 l 64 992 l 686 992 l 686 897 l 199 111 l 699 111 l 699 0 z "},"[":{"ha":429,"x_min":103,"x_max":396,"o":"m 396 -219 l 103 -219 l 103 992 l 396 992 l 396 892 l 219 892 l 219 -119 l 396 -119 l 396 -219 z "},"\\":{"ha":489,"x_min":13,"x_max":478,"o":"m 129 992 l 478 0 l 360 0 l 13 992 l 129 992 z "},"]":{"ha":429,"x_min":33,"x_max":326,"o":"m 33 -119 l 211 -119 l 211 892 l 33 892 l 33 992 l 326 992 l 326 -219 l 33 -219 l 33 -119 z "},"^":{"ha":747,"x_min":49,"x_max":699,"o":"m 49 371 l 325 999 l 393 999 l 699 371 l 593 371 l 361 869 l 154 371 l 49 371 z "},"_":{"ha":576,"x_min":-3,"x_max":579,"o":"m 579 -214 l -3 -214 l -3 -125 l 579 -125 l 579 -214 z "},"`":{"ha":382,"x_min":56,"x_max":326,"o":"m 199 1064 q 236 995 214 1033 q 283 921 258 957 q 326 858 307 885 l 326 842 l 244 842 q 194 888 222 861 q 140 945 167 915 q 90 1003 113 975 q 56 1050 68 1031 l 56 1064 l 199 1064 z "},"a":{"ha":738,"x_min":60,"x_max":632,"o":"m 378 757 q 569 697 506 757 q 632 507 632 638 l 632 0 l 544 0 l 521 106 l 515 106 q 453 38 485 65 q 381 -1 422 11 q 281 -14 340 -14 q 168 10 218 -14 q 89 83 118 33 q 60 207 60 132 q 142 378 60 318 q 394 444 224 439 l 513 449 l 513 493 q 476 622 513 586 q 371 658 439 658 q 267 641 317 658 q 174 601 218 624 l 136 693 q 246 738 183 719 q 378 757 308 757 m 411 360 q 234 315 283 354 q 185 206 185 276 q 219 114 185 143 q 310 85 254 85 q 454 137 396 85 q 513 297 513 189 l 513 364 l 411 360 z "},"b":{"ha":804,"x_min":110,"x_max":733,"o":"m 231 799 q 228 710 231 751 q 224 646 226 669 l 231 646 q 313 725 260 693 q 446 757 365 757 q 655 660 576 757 q 733 372 733 564 q 697 158 733 244 q 597 29 661 72 q 446 -14 532 -14 q 312 18 364 -14 q 231 94 260 50 l 221 94 l 197 0 l 110 0 l 110 1056 l 231 1056 l 231 799 m 424 656 q 309 626 351 656 q 249 534 267 596 q 231 376 231 472 l 231 371 q 272 160 231 233 q 426 88 313 88 q 563 161 517 88 q 608 374 608 235 q 563 585 608 514 q 424 656 517 656 z "},"c":{"ha":631,"x_min":71,"x_max":588,"o":"m 392 -14 q 225 26 297 -14 q 112 151 153 67 q 71 368 71 236 q 114 592 71 506 q 231 718 157 678 q 400 758 306 758 q 505 747 454 758 q 588 718 556 735 l 550 617 q 476 640 518 629 q 397 651 433 651 q 285 619 329 651 q 218 525 240 588 q 196 369 196 463 q 218 218 196 281 q 284 124 240 156 q 392 92 328 92 q 493 104 449 92 q 575 135 538 117 l 575 26 q 496 -3 539 7 q 392 -14 453 -14 z "},"d":{"ha":804,"x_min":71,"x_max":694,"o":"m 357 -14 q 149 83 228 -14 q 71 371 71 179 q 150 660 71 563 q 358 758 229 758 q 453 744 413 758 q 523 704 493 729 q 574 649 553 679 l 582 649 q 577 702 581 667 q 574 758 574 738 l 574 1056 l 694 1056 l 694 0 l 597 0 l 579 100 l 574 100 q 523 42 553 68 q 452 1 493 17 q 357 -14 411 -14 m 379 88 q 531 152 488 88 q 575 347 575 217 l 575 369 q 533 583 575 508 q 378 657 492 657 q 241 578 286 657 q 196 368 196 500 q 241 161 196 235 q 379 88 286 88 z "},"e":{"ha":739,"x_min":71,"x_max":674,"o":"m 382 758 q 538 717 472 758 q 638 599 603 675 q 674 422 674 524 l 674 349 l 196 349 q 256 156 199 222 q 415 90 313 90 q 534 103 482 90 q 642 142 586 117 l 642 35 q 535 -2 588 10 q 410 -14 483 -14 q 233 29 310 -14 q 114 158 157 72 q 71 367 71 243 q 110 576 71 489 q 219 711 149 664 q 382 758 289 758 m 382 658 q 254 602 301 658 q 199 446 207 546 l 549 446 q 531 557 549 510 q 476 631 513 604 q 382 658 439 658 z "},"f":{"ha":453,"x_min":19,"x_max":510,"o":"m 438 650 l 263 650 l 263 0 l 140 0 l 140 650 l 19 650 l 19 707 l 140 749 l 140 792 q 167 947 140 888 q 246 1035 194 1007 q 369 1063 297 1063 q 448 1055 413 1063 q 510 1038 483 1047 l 478 942 q 428 956 456 949 q 372 963 401 963 q 290 922 317 963 q 263 793 263 881 l 263 744 l 438 744 l 438 650 z "},"g":{"ha":804,"x_min":71,"x_max":694,"o":"m 357 758 q 481 731 426 758 q 575 646 536 703 l 582 646 l 597 744 l 694 744 l 694 -12 q 660 -190 694 -118 q 556 -297 626 -261 q 378 -333 486 -333 q 239 -322 301 -333 q 125 -286 176 -310 l 125 -174 q 201 -205 160 -192 q 288 -225 242 -218 q 385 -232 335 -232 q 524 -176 474 -232 q 575 -22 575 -119 l 575 7 q 576 55 575 24 q 579 99 578 86 l 574 99 q 483 14 538 42 q 358 -14 429 -14 q 147 88 224 -14 q 71 371 71 189 q 105 577 71 490 q 203 711 139 664 q 357 758 268 758 m 376 656 q 278 622 319 656 q 217 525 238 589 q 196 369 196 461 q 242 159 196 232 q 379 86 289 86 q 468 101 431 86 q 529 147 506 115 q 565 226 553 178 q 576 342 576 275 l 576 371 q 555 535 576 472 q 490 626 533 597 q 376 656 446 656 z "},"h":{"ha":811,"x_min":110,"x_max":706,"o":"m 231 746 q 228 692 231 719 q 224 642 226 664 l 232 642 q 288 706 254 681 q 363 744 322 731 q 449 757 404 757 q 590 728 533 757 q 676 640 647 700 q 706 485 706 581 l 706 0 l 585 0 l 585 476 q 547 611 585 567 q 432 656 510 656 q 311 624 356 656 q 249 533 267 593 q 231 385 231 472 l 231 0 l 110 0 l 110 1056 l 231 1056 l 231 746 z "},"i":{"ha":342,"x_min":101,"x_max":242,"o":"m 232 744 l 232 0 l 111 0 l 111 744 l 232 744 m 172 1024 q 221 1005 200 1024 q 242 946 242 986 q 221 888 242 907 q 172 868 200 868 q 122 888 143 868 q 101 946 101 907 q 122 1005 101 986 q 172 1024 143 1024 z "},"j":{"ha":342,"x_min":-72,"x_max":242,"o":"m 31 -333 q -28 -328 -3 -333 q -72 -317 -54 -324 l -72 -218 q -32 -228 -53 -224 q 14 -232 -11 -232 q 84 -208 57 -232 q 111 -115 111 -183 l 111 744 l 232 744 l 232 -111 q 211 -231 232 -181 q 146 -307 190 -281 q 31 -333 101 -333 m 101 946 q 122 1005 101 986 q 172 1024 143 1024 q 221 1005 200 1024 q 242 946 242 986 q 221 888 242 907 q 172 868 200 868 q 122 888 143 868 q 101 946 101 907 z "},"k":{"ha":706,"x_min":110,"x_max":694,"o":"m 229 504 q 227 446 229 482 q 224 383 225 410 l 229 383 q 253 415 238 394 q 285 458 268 436 q 314 493 301 479 l 535 744 l 675 744 l 392 426 l 694 0 l 550 0 l 310 347 l 229 274 l 229 0 l 110 0 l 110 1056 l 229 1056 l 229 504 z "},"l":{"ha":340,"x_min":110,"x_max":231,"o":"m 231 0 l 110 0 l 110 1056 l 231 1056 l 231 0 z "},"m":{"ha":1225,"x_min":110,"x_max":1119,"o":"m 883 758 q 1061 694 1003 758 q 1119 485 1119 629 l 1119 0 l 1000 0 l 1000 479 q 966 611 1000 567 q 860 656 932 656 q 717 593 760 656 q 675 411 675 531 l 675 0 l 554 0 l 554 479 q 539 577 554 538 q 493 636 524 617 q 414 656 463 656 q 304 624 344 656 q 247 533 264 593 q 231 386 231 474 l 231 0 l 110 0 l 110 744 l 207 744 l 225 643 l 232 643 q 286 708 254 682 q 357 746 318 733 q 438 758 396 758 q 572 728 518 758 q 651 633 626 697 l 660 633 q 755 728 694 697 q 883 758 815 758 z "},"n":{"ha":811,"x_min":110,"x_max":706,"o":"m 451 758 q 641 694 576 758 q 706 485 706 629 l 706 0 l 585 0 l 585 476 q 547 611 585 567 q 432 656 510 656 q 274 586 318 656 q 231 386 231 517 l 231 0 l 110 0 l 110 744 l 207 744 l 225 643 l 232 643 q 289 708 254 682 q 365 746 324 733 q 451 758 407 758 z "},"o":{"ha":792,"x_min":71,"x_max":722,"o":"m 722 374 q 699 209 722 281 q 633 88 676 138 q 529 12 590 38 q 393 -14 468 -14 q 265 12 324 -14 q 162 88 206 38 q 94 209 118 138 q 71 374 71 281 q 110 583 71 497 q 224 713 150 668 q 397 758 297 758 q 566 713 493 758 q 681 583 639 668 q 722 374 722 497 m 196 374 q 217 222 196 286 q 282 122 238 157 q 396 88 326 88 q 510 122 465 88 q 576 222 554 157 q 597 374 597 286 q 576 525 597 463 q 510 622 554 588 q 394 656 465 656 q 243 581 290 656 q 196 374 196 506 z "},"p":{"ha":804,"x_min":110,"x_max":733,"o":"m 447 758 q 655 663 576 758 q 733 374 733 567 q 697 160 733 247 q 597 30 661 74 q 446 -14 532 -14 q 351 1 392 -14 q 281 41 310 17 q 231 94 251 65 l 222 94 q 228 35 225 71 q 231 -28 231 -1 l 231 -333 l 110 -333 l 110 744 l 208 744 l 225 643 l 231 643 q 281 701 251 675 q 351 743 310 728 q 447 758 392 758 m 424 656 q 312 627 354 656 q 250 542 269 599 q 231 397 231 485 l 231 374 q 248 218 231 282 q 308 121 265 154 q 426 88 351 88 q 529 125 489 88 q 589 227 569 163 q 608 375 608 292 q 563 579 608 503 q 424 656 518 656 z "},"q":{"ha":804,"x_min":71,"x_max":694,"o":"m 574 -15 q 575 43 574 10 q 581 100 576 76 l 572 100 q 490 19 542 53 q 354 -14 438 -14 q 149 83 228 -14 q 71 371 71 179 q 107 585 71 499 q 208 715 143 671 q 358 758 274 758 q 492 725 440 758 q 575 643 544 692 l 581 643 l 597 744 l 694 744 l 694 -333 l 574 -333 l 574 -15 m 381 88 q 494 115 451 88 q 556 201 536 143 q 575 344 575 258 l 575 369 q 532 584 575 511 q 378 657 489 657 q 240 578 285 657 q 196 368 196 500 q 241 162 196 236 q 381 88 286 88 z "},"r":{"ha":543,"x_min":110,"x_max":522,"o":"m 442 758 q 483 756 461 758 q 522 750 506 754 l 508 638 q 472 644 492 642 q 433 647 451 647 q 357 629 393 647 q 292 578 321 611 q 247 500 264 546 q 231 397 231 454 l 231 0 l 110 0 l 110 744 l 208 744 l 222 608 l 228 608 q 281 684 250 650 q 353 738 313 718 q 442 758 393 758 z "},"s":{"ha":628,"x_min":67,"x_max":569,"o":"m 569 206 q 535 85 569 133 q 439 11 501 36 q 289 -14 376 -14 q 162 -1 215 -14 q 68 33 108 11 l 68 144 q 171 103 111 122 q 292 85 231 85 q 415 115 376 85 q 453 194 453 144 q 438 244 453 222 q 387 289 424 267 q 281 339 350 311 q 166 394 214 367 q 92 461 118 422 q 67 561 67 500 q 140 707 67 656 q 331 758 213 758 q 450 745 394 758 q 556 708 506 732 l 515 611 q 454 635 486 625 q 390 652 422 646 q 324 658 357 658 q 219 634 256 658 q 183 568 183 610 q 200 515 183 538 q 255 473 217 493 q 360 426 293 453 q 474 372 426 400 q 545 305 521 344 q 569 206 569 265 z "},"t":{"ha":479,"x_min":22,"x_max":450,"o":"m 350 86 q 404 91 376 86 q 450 101 432 96 l 450 8 q 395 -8 431 -1 q 328 -14 360 -14 q 225 6 272 -14 q 149 76 178 26 q 121 217 121 126 l 121 650 l 22 650 l 22 708 l 124 757 l 169 915 l 242 915 l 242 744 l 444 744 l 444 650 l 242 650 l 242 219 q 272 119 242 151 q 350 86 303 86 z "},"u":{"ha":810,"x_min":103,"x_max":700,"o":"m 700 744 l 700 0 l 603 0 l 585 99 l 579 99 q 522 35 557 60 q 444 -2 486 10 q 357 -14 403 -14 q 217 15 274 -14 q 131 103 160 43 q 103 257 103 163 l 103 744 l 225 744 l 225 265 q 263 132 225 176 q 378 88 300 88 q 498 119 454 88 q 560 210 542 150 q 579 357 579 271 l 579 744 l 700 744 z "},"v":{"ha":669,"x_min":0,"x_max":669,"o":"m 265 0 l 0 744 l 129 744 l 276 306 q 299 238 288 275 q 319 166 310 200 q 331 108 328 132 l 336 108 q 350 167 340 132 q 372 239 360 201 q 393 306 383 276 l 540 744 l 669 744 l 403 0 l 265 0 z "},"w":{"ha":1032,"x_min":14,"x_max":1018,"o":"m 568 421 q 538 533 553 478 q 518 618 524 588 l 513 618 q 494 533 507 588 q 464 419 481 478 l 343 1 l 207 1 l 14 746 l 139 746 l 235 349 q 253 267 244 308 q 269 190 263 226 q 279 126 276 153 l 285 126 q 297 185 289 150 q 313 258 304 219 q 331 326 322 296 l 451 746 l 585 746 l 701 326 q 720 258 711 294 q 737 188 729 222 q 747 128 744 154 l 751 128 q 769 224 756 163 q 799 349 783 285 l 896 746 l 1018 746 l 824 1 l 683 1 l 568 421 z "},"x":{"ha":696,"x_min":22,"x_max":674,"o":"m 275 381 l 33 744 l 171 744 l 349 464 l 524 744 l 661 744 l 419 381 l 674 0 l 536 0 l 349 297 l 158 0 l 22 0 l 275 381 z "},"y":{"ha":672,"x_min":1,"x_max":672,"o":"m 1 744 l 132 744 l 281 321 q 306 249 294 283 q 325 181 317 214 q 338 118 333 149 l 342 118 q 366 209 350 153 q 400 322 382 265 l 540 744 l 672 744 l 371 -103 q 312 -224 346 -172 q 229 -305 278 -276 q 113 -333 181 -333 q 58 -330 82 -333 q 17 -322 33 -326 l 17 -225 q 51 -231 31 -228 q 94 -233 72 -233 q 164 -217 135 -233 q 214 -172 193 -201 q 249 -101 235 -142 l 283 -3 l 1 744 z "},"z":{"ha":615,"x_min":50,"x_max":565,"o":"m 565 0 l 50 0 l 50 81 l 422 650 l 72 650 l 72 744 l 557 744 l 557 653 l 189 94 l 565 94 l 565 0 z "},"{":{"ha":497,"x_min":35,"x_max":454,"o":"m 454 -219 q 314 -194 372 -218 q 225 -122 256 -171 q 194 1 194 -72 l 194 206 q 176 281 194 253 q 122 323 157 310 q 35 336 86 336 l 35 438 q 122 451 86 439 q 176 492 157 464 q 194 567 194 521 l 194 772 q 213 869 194 828 q 265 937 231 910 q 347 978 299 964 q 454 992 394 992 l 454 892 q 379 876 411 890 q 330 835 347 863 q 313 761 313 807 l 313 561 q 277 448 313 490 q 169 392 242 406 l 169 383 q 277 327 242 369 q 313 214 313 285 l 313 10 q 329 -63 313 -35 q 378 -105 346 -92 q 454 -119 410 -118 l 454 -219 z "},"|":{"ha":718,"x_min":310,"x_max":408,"o":"m 310 1056 l 408 1056 l 408 -335 l 310 -335 l 310 1056 z "},"}":{"ha":497,"x_min":43,"x_max":463,"o":"m 43 -119 q 119 -104 88 -118 q 168 -62 151 -90 q 185 11 185 -33 l 185 213 q 221 326 185 283 q 328 382 257 368 l 328 390 q 220 447 256 404 q 185 560 185 489 l 185 763 q 168 836 185 808 q 120 878 151 864 q 43 892 89 892 l 43 992 q 153 978 106 992 q 235 937 201 964 q 285 868 268 910 q 303 771 303 826 l 303 568 q 322 492 303 521 q 376 451 340 464 q 463 438 411 438 l 463 336 q 376 323 411 336 q 322 282 340 310 q 303 207 303 254 l 303 0 q 271 -122 303 -74 q 181 -195 239 -171 q 43 -219 122 -219 l 43 -119 z "},"~":{"ha":746,"x_min":64,"x_max":681,"o":"m 351 443 q 272 473 304 465 q 213 481 240 481 q 136 457 176 481 q 64 399 96 433 l 64 507 q 135 562 96 543 q 221 581 174 581 q 297 572 258 581 q 394 536 335 564 q 473 506 443 514 q 531 499 503 499 q 609 522 568 499 q 681 581 650 546 l 681 474 q 610 418 650 438 q 524 399 571 399 q 448 408 486 399 q 351 443 410 417 z "}," ":{"ha":339,"x_min":0,"x_max":0,"o":""},"¡":{"ha":354,"x_min":93,"x_max":260,"o":"m 129 458 l 226 458 l 249 -253 l 101 -253 l 129 458 m 260 664 q 235 592 260 613 q 176 571 211 571 q 117 592 142 571 q 93 664 93 613 q 117 736 93 714 q 176 758 142 758 q 235 736 211 758 q 260 664 260 714 z "},"¢":{"ha":747,"x_min":117,"x_max":636,"o":"m 461 894 q 557 881 511 893 q 636 854 603 869 l 600 753 q 522 778 565 767 q 443 789 479 789 q 328 758 374 789 q 262 663 283 726 q 240 504 240 600 q 263 347 240 408 q 329 257 285 286 q 439 228 374 228 q 539 240 496 228 q 624 269 582 251 l 624 163 q 549 134 588 144 q 461 121 511 124 l 461 -14 l 371 -14 l 371 125 q 236 179 293 138 q 148 300 179 221 q 117 503 117 379 q 149 710 117 629 q 238 833 181 790 q 371 889 294 876 l 371 1006 l 461 1006 l 461 894 z "},"£":{"ha":747,"x_min":43,"x_max":700,"o":"m 438 1004 q 567 988 508 1004 q 669 947 625 971 l 628 850 q 541 886 589 869 q 440 903 493 903 q 330 862 368 903 q 292 729 292 821 l 292 536 l 556 536 l 556 444 l 292 444 l 292 300 q 279 208 292 244 q 247 149 267 171 q 203 111 226 126 l 700 111 l 700 0 l 43 0 l 43 103 q 109 135 81 113 q 154 198 138 158 q 171 299 171 238 l 171 444 l 47 444 l 47 536 l 171 536 l 171 742 q 204 883 171 825 q 298 973 238 942 q 438 1004 358 1004 z "},"¤":{"ha":747,"x_min":76,"x_max":668,"o":"m 118 490 q 130 572 118 532 q 163 643 142 611 l 76 738 l 143 803 l 228 714 q 296 750 258 738 q 374 763 333 763 q 449 750 414 763 q 515 714 485 738 l 603 803 l 668 738 l 583 644 q 616 573 603 613 q 629 490 629 533 q 617 407 629 447 q 583 335 606 367 l 667 243 l 603 178 l 515 267 q 449 232 485 244 q 374 219 414 219 q 295 233 333 219 q 228 268 257 246 l 143 179 l 78 244 l 163 336 q 130 408 142 368 q 118 490 118 447 m 208 490 q 231 400 208 440 q 290 335 253 360 q 374 311 328 311 q 458 335 421 311 q 517 400 494 360 q 539 490 539 440 q 517 583 539 542 q 458 648 494 624 q 374 672 421 672 q 290 648 328 672 q 231 583 253 624 q 208 490 208 542 z "},"¥":{"ha":746,"x_min":17,"x_max":726,"o":"m 372 507 l 600 992 l 726 992 l 465 471 l 625 471 l 625 382 l 431 382 l 431 268 l 625 268 l 625 179 l 431 179 l 431 0 l 313 0 l 313 179 l 118 179 l 118 268 l 313 268 l 313 382 l 118 382 l 118 471 l 275 471 l 17 992 l 144 992 l 372 507 z "},"¦":{"ha":718,"x_min":310,"x_max":408,"o":"m 310 1056 l 408 1056 l 408 526 l 310 526 l 310 1056 m 310 194 l 408 194 l 408 -335 l 310 -335 l 310 194 z "},"§":{"ha":668,"x_min":76,"x_max":583,"o":"m 86 549 q 118 660 86 618 q 189 724 150 703 q 116 790 142 751 q 90 883 90 828 q 158 1015 90 967 q 347 1063 225 1063 q 472 1049 421 1063 q 571 1015 522 1036 l 535 922 q 446 955 490 942 q 340 968 401 968 q 233 947 264 968 q 201 886 201 925 q 217 841 201 861 q 269 801 232 821 q 371 754 306 781 q 485 697 438 728 q 558 627 533 667 q 583 532 583 588 q 569 449 583 485 q 533 389 556 414 q 486 347 511 364 q 557 284 532 321 q 582 194 582 247 q 506 46 582 99 q 297 -7 431 -7 q 172 5 225 -7 q 76 39 118 17 l 76 143 q 142 116 106 129 q 220 94 179 103 q 301 86 261 86 q 433 116 397 86 q 468 185 468 146 q 456 231 468 211 q 409 272 444 251 q 303 321 374 293 q 186 378 235 349 q 112 447 138 407 q 86 549 86 488 m 188 563 q 206 503 188 529 q 264 452 224 476 q 372 399 304 428 l 399 388 q 455 437 429 407 q 481 514 481 467 q 463 576 481 549 q 402 630 446 604 q 279 682 358 656 q 216 640 244 672 q 188 563 188 608 z "},"¨":{"ha":760,"x_min":193,"x_max":565,"o":"m 193 946 q 212 998 193 982 q 257 1014 231 1014 q 301 998 282 1014 q 319 946 319 982 q 301 894 319 911 q 257 876 282 876 q 212 894 231 876 q 193 946 193 911 m 439 946 q 458 998 439 982 q 501 1014 476 1014 q 547 998 528 1014 q 565 946 565 982 q 547 894 565 911 q 501 876 528 876 q 458 894 476 876 q 439 946 439 911 z "},"©":{"ha":1086,"x_min":64,"x_max":1022,"o":"m 569 715 q 450 657 493 715 q 407 496 407 599 q 444 333 407 390 q 568 275 482 275 q 636 284 599 275 q 706 307 674 293 l 706 218 q 641 194 674 204 q 563 185 608 185 q 369 270 433 185 q 306 496 306 356 q 336 656 306 586 q 425 766 367 726 q 568 806 483 806 q 651 794 608 806 q 728 764 693 783 l 690 679 q 628 706 658 697 q 569 715 597 715 m 64 496 q 101 694 64 601 q 203 856 138 786 q 356 966 269 926 q 543 1006 443 1006 q 730 966 643 1006 q 883 856 817 926 q 985 694 949 786 q 1022 496 1022 601 q 985 298 1022 390 q 883 135 949 206 q 730 26 817 65 q 543 -14 643 -14 q 356 26 443 -14 q 203 135 269 65 q 101 298 138 206 q 64 496 64 390 m 133 496 q 165 326 133 406 q 253 188 197 247 q 384 94 310 128 q 543 60 458 60 q 702 94 628 60 q 833 188 776 128 q 921 326 889 247 q 953 496 953 406 q 921 665 953 586 q 833 804 889 744 q 702 898 776 864 q 543 932 628 932 q 384 898 458 932 q 253 804 310 864 q 165 665 197 744 q 133 496 133 586 z "},"ª":{"ha":468,"x_min":40,"x_max":404,"o":"m 233 1003 q 361 965 318 1003 q 404 846 404 928 l 404 540 l 342 540 l 325 599 q 262 551 299 569 q 176 532 225 532 q 104 547 135 532 q 57 593 74 563 q 40 669 40 624 q 63 748 40 717 q 133 796 86 779 q 249 815 179 813 l 321 818 l 321 849 q 294 913 321 894 q 228 931 267 931 q 160 920 193 931 q 96 894 126 910 l 67 963 q 116 984 89 975 q 173 998 143 993 q 233 1003 203 1003 m 258 753 q 155 728 182 750 q 128 669 128 707 q 147 619 128 635 q 196 603 165 603 q 291 635 261 603 q 321 724 321 668 l 321 756 l 258 753 z "},"«":{"ha":676,"x_min":53,"x_max":625,"o":"m 53 375 l 274 654 l 360 604 l 178 367 l 360 129 l 274 78 l 53 357 l 53 375 m 317 375 l 539 654 l 625 604 l 442 367 l 625 129 l 539 78 l 317 357 l 317 375 z "},"¬":{"ha":746,"x_min":64,"x_max":679,"o":"m 679 539 l 679 178 l 583 178 l 583 440 l 64 440 l 64 539 l 679 539 z "},"­":{"ha":447,"x_min":51,"x_max":369,"o":"m 51 318 l 51 426 l 369 426 l 369 318 l 51 318 z "},"®":{"ha":1086,"x_min":64,"x_max":1022,"o":"m 529 518 q 609 546 581 518 q 638 617 638 574 q 611 688 638 665 q 528 710 585 710 l 464 710 l 464 518 l 529 518 m 738 619 q 706 516 738 554 q 636 461 675 478 l 788 192 l 675 192 l 544 432 l 464 432 l 464 192 l 364 192 l 364 799 l 532 799 q 688 754 639 799 q 738 619 738 710 m 64 496 q 101 694 64 601 q 203 856 138 786 q 356 966 269 926 q 543 1006 443 1006 q 730 966 643 1006 q 883 856 817 926 q 985 694 949 786 q 1022 496 1022 601 q 985 298 1022 390 q 883 135 949 206 q 730 26 817 65 q 543 -14 643 -14 q 356 26 443 -14 q 203 135 269 65 q 101 298 138 206 q 64 496 64 390 m 133 496 q 165 326 133 406 q 253 188 197 247 q 384 94 310 128 q 543 60 458 60 q 702 94 628 60 q 833 188 776 128 q 921 326 889 247 q 953 496 953 406 q 921 665 953 586 q 833 804 889 744 q 702 898 776 864 q 543 932 628 932 q 384 898 458 932 q 253 804 310 864 q 165 665 197 744 q 133 496 133 586 z "},"¯":{"ha":653,"x_min":-4,"x_max":657,"o":"m 657 1056 l -4 1056 l -4 1147 l 657 1147 l 657 1056 z "},"°":{"ha":558,"x_min":76,"x_max":482,"o":"m 76 792 q 103 901 76 853 q 177 977 131 949 q 279 1006 224 1006 q 381 977 335 1006 q 454 901 426 949 q 482 792 482 853 q 454 683 482 732 q 381 607 426 635 q 279 579 335 579 q 177 607 224 579 q 103 683 131 635 q 76 792 76 732 m 158 792 q 194 699 158 738 q 281 661 231 661 q 341 678 314 661 q 384 726 368 696 q 400 792 400 756 q 365 885 400 847 q 281 922 331 922 q 194 885 231 922 q 158 792 158 847 z "},"±":{"ha":746,"x_min":64,"x_max":681,"o":"m 64 0 l 64 99 l 681 99 l 681 0 l 64 0 m 421 543 l 679 543 l 679 444 l 421 444 l 421 158 l 322 158 l 322 444 l 64 444 l 64 543 l 322 543 l 322 831 l 421 831 l 421 543 z "},"²":{"ha":460,"x_min":32,"x_max":404,"o":"m 404 578 l 32 578 l 32 653 l 181 808 q 260 897 233 863 q 296 958 286 931 q 306 1015 306 985 q 283 1082 306 1060 q 221 1104 260 1104 q 151 1088 183 1104 q 86 1044 119 1072 l 38 1108 q 122 1164 76 1143 q 224 1185 168 1185 q 356 1141 307 1185 q 404 1021 404 1097 q 387 937 404 975 q 336 860 369 899 q 254 771 303 821 l 150 664 l 404 664 l 404 578 z "},"³":{"ha":460,"x_min":24,"x_max":421,"o":"m 218 1185 q 357 1142 310 1185 q 404 1032 404 1099 q 376 940 404 976 q 308 890 349 904 l 308 886 q 390 841 360 876 q 421 749 421 806 q 365 617 421 668 q 194 567 310 567 q 106 576 147 567 q 24 606 64 585 l 24 693 q 113 658 68 671 q 196 646 157 646 q 292 674 261 646 q 324 751 324 703 q 287 824 324 801 q 183 847 250 847 l 108 847 l 108 924 l 182 924 q 277 951 247 924 q 307 1021 307 978 q 281 1085 307 1065 q 218 1106 256 1106 q 145 1091 179 1106 q 75 1053 111 1076 l 26 1117 q 112 1167 67 1149 q 218 1185 157 1185 z "},"´":{"ha":382,"x_min":56,"x_max":326,"o":"m 326 1050 q 291 1003 314 1031 q 241 945 268 975 q 186 888 214 915 q 135 842 158 861 l 56 842 l 56 858 q 99 921 75 885 q 144 995 122 957 q 182 1064 167 1033 l 326 1064 l 326 1050 z "},"µ":{"ha":817,"x_min":110,"x_max":707,"o":"m 707 744 l 707 0 l 610 0 l 590 100 l 583 100 q 533 38 563 64 q 465 -1 503 13 q 378 -14 426 -14 q 291 3 328 -14 q 229 49 254 21 l 224 49 q 228 8 226 32 q 230 -48 229 -17 q 231 -117 231 -79 l 231 -333 l 110 -333 l 110 744 l 231 744 l 231 264 q 269 133 231 178 q 385 88 308 88 q 504 119 461 88 q 566 210 547 150 q 585 357 585 271 l 585 744 l 707 744 z "},"¶":{"ha":856,"x_min":72,"x_max":719,"o":"m 719 -176 l 642 -176 l 642 978 l 510 978 l 510 -176 l 432 -176 l 432 379 q 389 370 414 374 q 340 367 364 367 q 199 399 260 367 q 106 506 139 431 q 72 707 72 581 q 108 916 72 840 q 210 1024 144 992 q 360 1056 275 1056 l 719 1056 l 719 -176 z "},"·":{"ha":372,"x_min":93,"x_max":260,"o":"m 93 490 q 117 563 93 542 q 175 583 140 583 q 235 563 210 583 q 260 490 260 542 q 235 418 260 440 q 175 396 210 396 q 117 418 140 396 q 93 490 93 440 z "},"¸":{"ha":292,"x_min":15,"x_max":276,"o":"m 276 -193 q 255 -269 276 -237 q 191 -317 233 -300 q 83 -333 149 -333 q 44 -331 63 -333 q 15 -326 26 -329 l 15 -250 q 48 -255 28 -253 q 86 -257 68 -257 q 155 -244 131 -257 q 179 -196 179 -231 q 146 -143 179 -160 q 61 -119 113 -126 l 117 0 l 196 0 l 164 -74 q 220 -95 194 -81 q 261 -133 246 -110 q 276 -193 276 -157 z "},"¹":{"ha":460,"x_min":49,"x_max":318,"o":"m 318 1172 l 318 578 l 221 578 l 221 961 q 222 1006 221 985 q 223 1046 222 1026 q 225 1085 224 1065 q 197 1058 213 1072 q 165 1031 181 1043 l 96 976 l 49 1044 l 219 1172 l 318 1172 z "},"º":{"ha":493,"x_min":42,"x_max":453,"o":"m 453 768 q 396 594 453 656 q 244 532 339 532 q 99 592 156 532 q 42 768 42 653 q 97 942 42 882 q 247 1003 153 1003 q 356 976 310 1003 q 427 897 401 949 q 453 768 453 844 m 128 768 q 156 647 128 688 q 246 606 183 606 q 337 647 308 606 q 365 768 365 688 q 337 890 365 850 q 246 929 308 929 q 156 890 185 929 q 128 768 128 850 z "},"»":{"ha":676,"x_min":51,"x_max":624,"o":"m 624 357 l 400 78 l 315 129 l 497 367 l 315 604 l 400 654 l 624 375 l 624 357 m 358 357 l 138 78 l 51 129 l 233 367 l 51 604 l 138 654 l 358 375 l 358 357 z "},"¼":{"ha":981,"x_min":43,"x_max":969,"o":"m 168 0 l 732 992 l 835 992 l 269 0 l 168 0 m 215 781 q 216 825 215 804 q 217 865 217 846 q 219 904 218 885 q 191 877 207 892 q 160 850 175 863 l 90 796 l 43 864 l 214 992 l 313 992 l 313 397 l 215 397 l 215 781 m 788 0 l 788 133 l 533 133 l 533 206 l 790 599 l 890 599 l 890 217 l 969 217 l 969 133 l 890 133 l 890 0 l 788 0 m 628 217 l 788 217 l 788 346 q 789 414 788 375 q 792 486 790 453 q 765 437 785 471 q 731 379 746 403 l 628 217 z "},"½":{"ha":1017,"x_min":29,"x_max":961,"o":"m 132 0 l 697 992 l 799 992 l 233 0 l 132 0 m 201 781 q 201 815 201 799 q 202 846 201 831 q 203 876 203 861 q 206 904 204 890 q 178 877 193 892 q 146 850 163 863 l 76 796 l 29 864 l 200 992 l 299 992 l 299 397 l 201 397 l 201 781 m 589 0 l 589 75 l 738 231 q 817 319 790 285 q 854 380 844 353 q 864 438 864 407 q 840 504 864 482 q 778 526 817 526 q 708 510 740 526 q 643 467 676 494 l 594 531 q 679 586 633 565 q 781 607 725 607 q 913 563 864 607 q 961 443 961 519 q 944 359 961 397 q 893 282 926 321 q 811 193 860 243 l 707 86 l 961 86 l 961 0 l 589 0 z "},"¾":{"ha":1025,"x_min":22,"x_max":1014,"o":"m 224 0 l 789 992 l 892 992 l 326 0 l 224 0 m 193 386 q 104 395 146 386 q 22 425 63 404 l 22 513 q 111 478 67 490 q 194 465 156 465 q 291 494 260 465 q 322 571 322 522 q 285 644 322 621 q 182 667 249 667 l 107 667 l 107 743 l 181 743 q 276 770 246 743 q 306 840 306 797 q 280 905 306 885 q 217 925 254 925 q 144 910 178 925 q 74 872 110 896 l 25 936 q 110 986 65 968 q 217 1004 156 1004 q 356 961 308 1004 q 403 851 403 918 q 375 760 403 796 q 307 710 347 724 l 307 706 q 389 660 358 696 q 419 568 419 625 q 364 437 419 488 q 193 386 308 386 m 832 0 l 832 133 l 579 133 l 579 206 l 835 599 l 935 599 l 935 217 l 1014 217 l 1014 133 l 935 133 l 935 0 l 832 0 m 672 217 l 832 217 l 832 346 q 833 414 832 375 q 836 486 835 453 q 810 437 831 471 q 775 379 790 403 l 672 217 z "},"¿":{"ha":603,"x_min":63,"x_max":585,"o":"m 417 422 q 407 331 417 369 q 373 258 397 293 q 307 186 349 224 q 229 110 257 140 q 190 50 201 79 q 178 -21 178 21 q 218 -124 178 -87 q 332 -160 258 -160 q 446 -142 396 -160 q 542 -101 496 -125 l 585 -199 q 467 -247 532 -228 q 324 -267 403 -267 q 131 -201 199 -267 q 63 -24 63 -136 q 82 83 63 39 q 135 163 101 126 q 217 242 169 199 q 282 310 260 281 q 312 367 304 339 q 319 436 319 396 l 319 460 l 417 460 l 417 422 m 447 664 q 423 592 447 613 q 363 571 399 571 q 306 592 331 571 q 281 664 281 613 q 306 736 281 714 q 363 758 331 758 q 423 736 399 758 q 447 664 447 714 z "},"À":{"ha":839,"x_min":0,"x_max":838,"o":"m 710 0 l 601 307 l 233 307 l 126 0 l 0 0 l 361 996 l 478 996 l 838 0 l 710 0 m 463 718 q 451 758 460 729 q 433 819 442 788 q 418 867 424 850 q 397 783 408 824 q 376 718 385 742 l 274 418 l 565 418 l 463 718 z "},"Á":{"ha":839,"x_min":0,"x_max":838,"o":"m 710 0 l 601 307 l 233 307 l 126 0 l 0 0 l 361 996 l 478 996 l 838 0 l 710 0 m 463 718 q 451 758 460 729 q 433 819 442 788 q 418 867 424 850 q 397 783 408 824 q 376 718 385 742 l 274 418 l 565 418 l 463 718 z "},"Â":{"ha":839,"x_min":0,"x_max":838,"o":"m 710 0 l 601 307 l 233 307 l 126 0 l 0 0 l 361 996 l 478 996 l 838 0 l 710 0 m 463 718 q 451 758 460 729 q 433 819 442 788 q 418 867 424 850 q 397 783 408 824 q 376 718 385 742 l 274 418 l 565 418 l 463 718 z "},"Ã":{"ha":839,"x_min":0,"x_max":838,"o":"m 710 0 l 601 307 l 233 307 l 126 0 l 0 0 l 361 996 l 478 996 l 838 0 l 710 0 m 463 718 q 451 758 460 729 q 433 819 442 788 q 418 867 424 850 q 397 783 408 824 q 376 718 385 742 l 274 418 l 565 418 l 463 718 z "},"Ä":{"ha":839,"x_min":0,"x_max":838,"o":"m 710 0 l 601 307 l 233 307 l 126 0 l 0 0 l 361 996 l 478 996 l 838 0 l 710 0 m 463 718 q 451 758 460 729 q 433 819 442 788 q 418 867 424 850 q 397 783 408 824 q 376 718 385 742 l 274 418 l 565 418 l 463 718 z "},"Å":{"ha":839,"x_min":0,"x_max":838,"o":"m 710 0 l 601 307 l 233 307 l 126 0 l 0 0 l 361 996 l 478 996 l 838 0 l 710 0 m 463 718 q 451 758 460 729 q 433 819 442 788 q 418 867 424 850 q 397 783 408 824 q 376 718 385 742 l 274 418 l 565 418 l 463 718 m 415 926 q 312 965 351 926 q 272 1074 272 1004 q 312 1181 272 1143 q 415 1219 351 1219 q 520 1181 478 1219 q 563 1075 563 1143 q 521 965 563 1004 q 415 926 479 926 m 415 996 q 467 1017 447 996 q 488 1074 488 1038 q 467 1131 488 1110 q 415 1151 447 1151 q 364 1131 385 1151 q 343 1074 343 1110 q 362 1017 343 1038 q 415 996 381 996 z "},"Æ":{"ha":1157,"x_min":-1,"x_max":1079,"o":"m 1079 0 l 588 0 l 588 307 l 263 307 l 126 0 l -1 0 l 439 992 l 1079 992 l 1079 882 l 711 882 l 711 572 l 1054 572 l 1054 464 l 711 464 l 711 110 l 1079 110 l 1079 0 m 310 418 l 588 418 l 588 881 l 511 881 l 310 418 z "},"Ç":{"ha":825,"x_min":79,"x_max":785,"o":"m 525 896 q 393 869 451 896 q 294 790 335 842 q 231 663 253 738 q 210 496 210 589 q 244 283 210 374 q 349 144 279 193 q 524 96 419 96 q 640 107 585 96 q 749 135 694 118 l 749 26 q 640 -4 696 6 q 507 -14 585 -14 q 269 49 364 -14 q 126 226 174 111 q 79 497 79 342 q 108 703 79 610 q 194 864 138 796 q 335 969 251 932 q 526 1006 418 1006 q 664 990 597 1006 q 785 947 731 975 l 736 842 q 640 879 693 863 q 525 896 586 896 m 639 -193 q 617 -269 639 -237 q 553 -317 596 -300 q 446 -333 511 -333 q 407 -331 425 -333 q 378 -326 389 -329 l 378 -250 q 410 -255 390 -253 q 449 -257 431 -257 q 517 -244 493 -257 q 542 -196 542 -231 q 508 -143 542 -160 q 424 -119 475 -126 l 479 0 l 558 0 l 526 -74 q 583 -95 557 -81 q 624 -133 608 -110 q 639 -193 639 -157 z "},"È":{"ha":726,"x_min":126,"x_max":649,"o":"m 649 0 l 126 0 l 126 992 l 649 992 l 649 882 l 250 882 l 250 572 l 625 572 l 625 464 l 250 464 l 250 110 l 649 110 l 649 0 z "},"É":{"ha":726,"x_min":126,"x_max":649,"o":"m 649 0 l 126 0 l 126 992 l 649 992 l 649 882 l 250 882 l 250 572 l 625 572 l 625 464 l 250 464 l 250 110 l 649 110 l 649 0 z "},"Ê":{"ha":726,"x_min":126,"x_max":649,"o":"m 649 0 l 126 0 l 126 992 l 649 992 l 649 882 l 250 882 l 250 572 l 625 572 l 625 464 l 250 464 l 250 110 l 649 110 l 649 0 z "},"Ë":{"ha":726,"x_min":126,"x_max":649,"o":"m 649 0 l 126 0 l 126 992 l 649 992 l 649 882 l 250 882 l 250 572 l 625 572 l 625 464 l 250 464 l 250 110 l 649 110 l 649 0 z "},"Ì":{"ha":447,"x_min":28,"x_max":394,"o":"m 394 0 l 51 0 l 51 72 l 161 99 l 161 892 l 51 919 l 51 992 l 394 992 l 394 919 l 285 892 l 285 99 l 394 72 l 394 0 z "},"Í":{"ha":447,"x_min":51,"x_max":429,"o":"m 394 0 l 51 0 l 51 72 l 161 99 l 161 892 l 51 919 l 51 992 l 394 992 l 394 919 l 285 892 l 285 99 l 394 72 l 394 0 z "},"Î":{"ha":447,"x_min":0,"x_max":450,"o":"m 394 0 l 51 0 l 51 72 l 161 99 l 161 892 l 51 919 l 51 992 l 394 992 l 394 919 l 285 892 l 285 99 l 394 72 l 394 0 z "},"Ï":{"ha":447,"x_min":39,"x_max":411,"o":"m 394 0 l 51 0 l 51 72 l 161 99 l 161 892 l 51 919 l 51 992 l 394 992 l 394 919 l 285 892 l 285 99 l 394 72 l 394 0 z "},"Ð":{"ha":954,"x_min":39,"x_max":875,"o":"m 414 992 q 658 936 554 992 q 818 773 761 881 q 875 506 875 665 q 817 226 875 339 q 649 57 758 114 q 385 0 540 0 l 135 0 l 135 436 l 39 436 l 39 544 l 135 544 l 135 992 l 414 992 m 399 885 l 258 885 l 258 544 l 485 544 l 485 436 l 258 436 l 258 107 l 374 107 q 652 206 560 107 q 744 501 744 306 q 654 792 744 700 q 399 885 564 885 z "},"Ñ":{"ha":999,"x_min":126,"x_max":872,"o":"m 872 0 l 726 0 l 235 824 l 229 824 q 233 768 231 799 q 236 702 235 738 q 239 629 238 667 q 240 554 240 592 l 240 0 l 126 0 l 126 992 l 271 992 l 761 171 l 767 171 q 764 217 765 188 q 761 284 763 247 q 758 360 760 321 q 757 432 757 399 l 757 992 l 872 992 l 872 0 z "},"Ò":{"ha":1021,"x_min":79,"x_max":942,"o":"m 942 497 q 914 288 942 382 q 832 126 886 194 q 697 22 778 58 q 511 -14 617 -14 q 320 23 401 -14 q 185 127 239 60 q 106 289 132 194 q 79 499 79 383 q 126 765 79 651 q 270 943 174 879 q 513 1007 367 1007 q 749 944 653 1007 q 893 766 844 881 q 942 497 942 651 m 210 497 q 242 282 210 372 q 341 143 274 192 q 511 94 408 94 q 682 143 615 94 q 780 282 749 192 q 811 497 811 372 q 740 791 811 685 q 513 897 668 897 q 341 849 408 897 q 242 712 274 801 q 210 497 210 622 z "},"Ó":{"ha":1021,"x_min":79,"x_max":942,"o":"m 942 497 q 914 288 942 382 q 832 126 886 194 q 697 22 778 58 q 511 -14 617 -14 q 320 23 401 -14 q 185 127 239 60 q 106 289 132 194 q 79 499 79 383 q 126 765 79 651 q 270 943 174 879 q 513 1007 367 1007 q 749 944 653 1007 q 893 766 844 881 q 942 497 942 651 m 210 497 q 242 282 210 372 q 341 143 274 192 q 511 94 408 94 q 682 143 615 94 q 780 282 749 192 q 811 497 811 372 q 740 791 811 685 q 513 897 668 897 q 341 849 408 897 q 242 712 274 801 q 210 497 210 622 z "},"Ô":{"ha":1021,"x_min":79,"x_max":942,"o":"m 942 497 q 914 288 942 382 q 832 126 886 194 q 697 22 778 58 q 511 -14 617 -14 q 320 23 401 -14 q 185 127 239 60 q 106 289 132 194 q 79 499 79 383 q 126 765 79 651 q 270 943 174 879 q 513 1007 367 1007 q 749 944 653 1007 q 893 766 844 881 q 942 497 942 651 m 210 497 q 242 282 210 372 q 341 143 274 192 q 511 94 408 94 q 682 143 615 94 q 780 282 749 192 q 811 497 811 372 q 740 791 811 685 q 513 897 668 897 q 341 849 408 897 q 242 712 274 801 q 210 497 210 622 z "},"Õ":{"ha":1021,"x_min":79,"x_max":942,"o":"m 942 497 q 914 288 942 382 q 832 126 886 194 q 697 22 778 58 q 511 -14 617 -14 q 320 23 401 -14 q 185 127 239 60 q 106 289 132 194 q 79 499 79 383 q 126 765 79 651 q 270 943 174 879 q 513 1007 367 1007 q 749 944 653 1007 q 893 766 844 881 q 942 497 942 651 m 210 497 q 242 282 210 372 q 341 143 274 192 q 511 94 408 94 q 682 143 615 94 q 780 282 749 192 q 811 497 811 372 q 740 791 811 685 q 513 897 668 897 q 341 849 408 897 q 242 712 274 801 q 210 497 210 622 z "},"Ö":{"ha":1021,"x_min":79,"x_max":942,"o":"m 942 497 q 914 288 942 382 q 832 126 886 194 q 697 22 778 58 q 511 -14 617 -14 q 320 23 401 -14 q 185 127 239 60 q 106 289 132 194 q 79 499 79 383 q 126 765 79 651 q 270 943 174 879 q 513 1007 367 1007 q 749 944 653 1007 q 893 766 844 881 q 942 497 942 651 m 210 497 q 242 282 210 372 q 341 143 274 192 q 511 94 408 94 q 682 143 615 94 q 780 282 749 192 q 811 497 811 372 q 740 791 811 685 q 513 897 668 897 q 341 849 408 897 q 242 712 274 801 q 210 497 210 622 z "},"×":{"ha":747,"x_min":83,"x_max":661,"o":"m 593 797 l 661 726 l 440 490 l 660 254 l 592 183 l 371 418 l 154 183 l 85 254 l 303 490 l 83 725 l 153 797 l 372 560 l 593 797 z "},"Ø":{"ha":1021,"x_min":79,"x_max":942,"o":"m 942 497 q 914 288 942 382 q 832 126 886 194 q 697 22 778 58 q 511 -14 617 -14 q 378 3 439 -14 q 272 51 318 19 l 210 -43 l 128 13 l 194 115 q 108 281 136 183 q 79 499 79 378 q 126 765 79 651 q 270 943 174 879 q 513 1007 367 1007 q 638 990 581 1007 q 743 944 696 974 l 803 1036 l 885 979 l 819 881 q 910 717 879 814 q 942 497 942 619 m 811 497 q 795 656 811 585 q 747 778 779 726 l 338 147 q 415 108 371 122 q 511 94 458 94 q 682 143 615 94 q 780 282 749 192 q 811 497 811 372 m 210 497 q 224 343 210 413 q 269 222 239 274 l 678 849 q 604 885 646 872 q 513 897 563 897 q 341 849 408 897 q 242 712 274 801 q 210 497 210 622 z "},"Ù":{"ha":957,"x_min":117,"x_max":839,"o":"m 839 350 q 799 165 839 247 q 678 34 760 82 q 474 -14 597 -14 q 208 87 299 -14 q 117 353 117 188 l 117 992 l 240 992 l 240 349 q 300 161 240 228 q 481 94 360 94 q 615 127 564 94 q 691 217 667 160 q 715 350 715 275 l 715 992 l 839 992 l 839 350 z "},"Ú":{"ha":957,"x_min":117,"x_max":839,"o":"m 839 350 q 799 165 839 247 q 678 34 760 82 q 474 -14 597 -14 q 208 87 299 -14 q 117 353 117 188 l 117 992 l 240 992 l 240 349 q 300 161 240 228 q 481 94 360 94 q 615 127 564 94 q 691 217 667 160 q 715 350 715 275 l 715 992 l 839 992 l 839 350 z "},"Û":{"ha":957,"x_min":117,"x_max":839,"o":"m 839 350 q 799 165 839 247 q 678 34 760 82 q 474 -14 597 -14 q 208 87 299 -14 q 117 353 117 188 l 117 992 l 240 992 l 240 349 q 300 161 240 228 q 481 94 360 94 q 615 127 564 94 q 691 217 667 160 q 715 350 715 275 l 715 992 l 839 992 l 839 350 z "},"Ü":{"ha":957,"x_min":117,"x_max":839,"o":"m 839 350 q 799 165 839 247 q 678 34 760 82 q 474 -14 597 -14 q 208 87 299 -14 q 117 353 117 188 l 117 992 l 240 992 l 240 349 q 300 161 240 228 q 481 94 360 94 q 615 127 564 94 q 691 217 667 160 q 715 350 715 275 l 715 992 l 839 992 l 839 350 z "},"Ý":{"ha":744,"x_min":0,"x_max":744,"o":"m 372 504 l 611 992 l 744 992 l 435 385 l 435 0 l 311 0 l 311 379 l 0 992 l 135 992 l 372 504 z "},"Þ":{"ha":793,"x_min":126,"x_max":726,"o":"m 726 531 q 692 376 726 447 q 578 260 658 304 q 356 215 497 215 l 250 215 l 250 0 l 126 0 l 126 992 l 250 992 l 250 819 l 375 819 q 644 743 563 819 q 726 531 726 667 m 342 321 q 488 341 431 321 q 572 406 544 361 q 599 524 599 451 q 543 666 599 619 q 364 713 488 713 l 250 713 l 250 321 l 342 321 z "},"ß":{"ha":832,"x_min":110,"x_max":774,"o":"m 690 857 q 672 774 690 810 q 626 712 653 739 q 572 663 599 685 q 526 619 544 640 q 507 572 507 597 q 516 539 507 554 q 550 503 525 524 q 624 449 575 483 q 704 382 671 415 q 756 308 738 349 q 774 213 774 268 q 742 83 774 133 q 656 10 711 33 q 526 -14 600 -14 q 419 -1 465 -14 q 338 33 372 11 l 338 143 q 390 115 360 129 q 454 93 419 101 q 522 85 489 85 q 623 117 592 85 q 654 204 654 149 q 643 263 654 238 q 606 314 632 289 q 532 371 579 339 q 447 438 478 408 q 403 499 417 468 q 390 565 390 529 q 408 639 390 608 q 453 692 426 669 q 505 738 479 715 q 549 786 531 760 q 567 850 567 813 q 521 935 567 908 q 403 961 475 961 q 317 948 357 961 q 254 903 278 935 q 231 811 231 871 l 231 0 l 110 0 l 110 811 q 149 959 110 904 q 253 1038 188 1014 q 403 1063 319 1063 q 553 1040 489 1063 q 654 972 618 1017 q 690 857 690 926 z "},"à":{"ha":738,"x_min":60,"x_max":632,"o":"m 378 757 q 569 697 506 757 q 632 507 632 638 l 632 0 l 544 0 l 521 106 l 515 106 q 453 38 485 65 q 381 -1 422 11 q 281 -14 340 -14 q 168 10 218 -14 q 89 83 118 33 q 60 207 60 132 q 142 378 60 318 q 394 444 224 439 l 513 449 l 513 493 q 476 622 513 586 q 371 658 439 658 q 267 641 317 658 q 174 601 218 624 l 136 693 q 246 738 183 719 q 378 757 308 757 m 411 360 q 234 315 283 354 q 185 206 185 276 q 219 114 185 143 q 310 85 254 85 q 454 137 396 85 q 513 297 513 189 l 513 364 l 411 360 z "},"á":{"ha":738,"x_min":60,"x_max":632,"o":"m 378 757 q 569 697 506 757 q 632 507 632 638 l 632 0 l 544 0 l 521 106 l 515 106 q 453 38 485 65 q 381 -1 422 11 q 281 -14 340 -14 q 168 10 218 -14 q 89 83 118 33 q 60 207 60 132 q 142 378 60 318 q 394 444 224 439 l 513 449 l 513 493 q 476 622 513 586 q 371 658 439 658 q 267 641 317 658 q 174 601 218 624 l 136 693 q 246 738 183 719 q 378 757 308 757 m 411 360 q 234 315 283 354 q 185 206 185 276 q 219 114 185 143 q 310 85 254 85 q 454 137 396 85 q 513 297 513 189 l 513 364 l 411 360 z "},"â":{"ha":738,"x_min":60,"x_max":632,"o":"m 378 757 q 569 697 506 757 q 632 507 632 638 l 632 0 l 544 0 l 521 106 l 515 106 q 453 38 485 65 q 381 -1 422 11 q 281 -14 340 -14 q 168 10 218 -14 q 89 83 118 33 q 60 207 60 132 q 142 378 60 318 q 394 444 224 439 l 513 449 l 513 493 q 476 622 513 586 q 371 658 439 658 q 267 641 317 658 q 174 601 218 624 l 136 693 q 246 738 183 719 q 378 757 308 757 m 411 360 q 234 315 283 354 q 185 206 185 276 q 219 114 185 143 q 310 85 254 85 q 454 137 396 85 q 513 297 513 189 l 513 364 l 411 360 z "},"ã":{"ha":738,"x_min":60,"x_max":632,"o":"m 378 757 q 569 697 506 757 q 632 507 632 638 l 632 0 l 544 0 l 521 106 l 515 106 q 453 38 485 65 q 381 -1 422 11 q 281 -14 340 -14 q 168 10 218 -14 q 89 83 118 33 q 60 207 60 132 q 142 378 60 318 q 394 444 224 439 l 513 449 l 513 493 q 476 622 513 586 q 371 658 439 658 q 267 641 317 658 q 174 601 218 624 l 136 693 q 246 738 183 719 q 378 757 308 757 m 411 360 q 234 315 283 354 q 185 206 185 276 q 219 114 185 143 q 310 85 254 85 q 454 137 396 85 q 513 297 513 189 l 513 364 l 411 360 z "},"ä":{"ha":738,"x_min":60,"x_max":632,"o":"m 378 757 q 569 697 506 757 q 632 507 632 638 l 632 0 l 544 0 l 521 106 l 515 106 q 453 38 485 65 q 381 -1 422 11 q 281 -14 340 -14 q 168 10 218 -14 q 89 83 118 33 q 60 207 60 132 q 142 378 60 318 q 394 444 224 439 l 513 449 l 513 493 q 476 622 513 586 q 371 658 439 658 q 267 641 317 658 q 174 601 218 624 l 136 693 q 246 738 183 719 q 378 757 308 757 m 411 360 q 234 315 283 354 q 185 206 185 276 q 219 114 185 143 q 310 85 254 85 q 454 137 396 85 q 513 297 513 189 l 513 364 l 411 360 z "},"å":{"ha":738,"x_min":60,"x_max":632,"o":"m 378 757 q 569 697 506 757 q 632 507 632 638 l 632 0 l 544 0 l 521 106 l 515 106 q 453 38 485 65 q 381 -1 422 11 q 281 -14 340 -14 q 168 10 218 -14 q 89 83 118 33 q 60 207 60 132 q 142 378 60 318 q 394 444 224 439 l 513 449 l 513 493 q 476 622 513 586 q 371 658 439 658 q 267 641 317 658 q 174 601 218 624 l 136 693 q 246 738 183 719 q 378 757 308 757 m 411 360 q 234 315 283 354 q 185 206 185 276 q 219 114 185 143 q 310 85 254 85 q 454 137 396 85 q 513 297 513 189 l 513 364 l 411 360 z "},"æ":{"ha":1133,"x_min":60,"x_max":1068,"o":"m 792 758 q 938 717 876 758 q 1034 600 1000 675 q 1068 425 1068 525 l 1068 350 l 619 350 q 673 153 622 217 q 819 90 724 90 q 935 103 885 90 q 1036 142 985 117 l 1036 35 q 933 -2 985 10 q 815 -14 882 -14 q 705 3 756 -14 q 615 56 654 21 q 549 143 576 92 q 483 60 518 96 q 399 6 447 25 q 282 -14 350 -14 q 169 10 219 -14 q 89 83 118 33 q 60 207 60 132 q 94 333 60 282 q 200 413 129 385 q 378 444 271 442 l 496 449 l 496 496 q 457 622 496 586 q 353 658 418 658 q 251 642 301 658 q 157 601 200 625 l 119 693 q 232 739 167 721 q 361 757 297 757 q 496 728 443 757 q 576 638 549 700 q 666 726 611 694 q 792 758 721 758 m 397 360 q 231 315 278 354 q 185 206 185 276 q 217 114 185 143 q 304 85 250 85 q 401 108 358 85 q 468 178 443 131 q 493 297 493 225 l 493 364 l 397 360 m 790 658 q 672 603 715 658 q 621 446 628 549 l 942 446 q 925 558 942 510 q 875 632 908 606 q 790 658 842 658 z "},"ç":{"ha":631,"x_min":71,"x_max":588,"o":"m 392 -14 q 225 26 297 -14 q 112 151 153 67 q 71 368 71 236 q 114 592 71 506 q 231 718 157 678 q 400 758 306 758 q 505 747 454 758 q 588 718 556 735 l 550 617 q 476 640 518 629 q 397 651 433 651 q 285 619 329 651 q 218 525 240 588 q 196 369 196 463 q 218 218 196 281 q 284 124 240 156 q 392 92 328 92 q 493 104 449 92 q 575 135 538 117 l 575 26 q 496 -3 539 7 q 392 -14 453 -14 m 513 -193 q 491 -269 513 -237 q 427 -317 469 -300 q 319 -333 385 -333 q 281 -331 299 -333 q 251 -326 263 -329 l 251 -250 q 284 -255 264 -253 q 322 -257 304 -257 q 391 -244 367 -257 q 415 -196 415 -231 q 382 -143 415 -160 q 297 -119 349 -126 l 353 0 l 432 0 l 400 -74 q 456 -95 431 -81 q 497 -133 482 -110 q 513 -193 513 -157 z "},"è":{"ha":739,"x_min":71,"x_max":674,"o":"m 382 758 q 538 717 472 758 q 638 599 603 675 q 674 422 674 524 l 674 349 l 196 349 q 256 156 199 222 q 415 90 313 90 q 534 103 482 90 q 642 142 586 117 l 642 35 q 535 -2 588 10 q 410 -14 483 -14 q 233 29 310 -14 q 114 158 157 72 q 71 367 71 243 q 110 576 71 489 q 219 711 149 664 q 382 758 289 758 m 382 658 q 254 602 301 658 q 199 446 207 546 l 549 446 q 531 557 549 510 q 476 631 513 604 q 382 658 439 658 z "},"é":{"ha":739,"x_min":71,"x_max":674,"o":"m 382 758 q 538 717 472 758 q 638 599 603 675 q 674 422 674 524 l 674 349 l 196 349 q 256 156 199 222 q 415 90 313 90 q 534 103 482 90 q 642 142 586 117 l 642 35 q 535 -2 588 10 q 410 -14 483 -14 q 233 29 310 -14 q 114 158 157 72 q 71 367 71 243 q 110 576 71 489 q 219 711 149 664 q 382 758 289 758 m 382 658 q 254 602 301 658 q 199 446 207 546 l 549 446 q 531 557 549 510 q 476 631 513 604 q 382 658 439 658 z "},"ê":{"ha":739,"x_min":71,"x_max":674,"o":"m 382 758 q 538 717 472 758 q 638 599 603 675 q 674 422 674 524 l 674 349 l 196 349 q 256 156 199 222 q 415 90 313 90 q 534 103 482 90 q 642 142 586 117 l 642 35 q 535 -2 588 10 q 410 -14 483 -14 q 233 29 310 -14 q 114 158 157 72 q 71 367 71 243 q 110 576 71 489 q 219 711 149 664 q 382 758 289 758 m 382 658 q 254 602 301 658 q 199 446 207 546 l 549 446 q 531 557 549 510 q 476 631 513 604 q 382 658 439 658 z "},"ë":{"ha":739,"x_min":71,"x_max":674,"o":"m 382 758 q 538 717 472 758 q 638 599 603 675 q 674 422 674 524 l 674 349 l 196 349 q 256 156 199 222 q 415 90 313 90 q 534 103 482 90 q 642 142 586 117 l 642 35 q 535 -2 588 10 q 410 -14 483 -14 q 233 29 310 -14 q 114 158 157 72 q 71 367 71 243 q 110 576 71 489 q 219 711 149 664 q 382 758 289 758 m 382 658 q 254 602 301 658 q 199 446 207 546 l 549 446 q 531 557 549 510 q 476 631 513 604 q 382 658 439 658 z "},"ì":{"ha":340,"x_min":-26,"x_max":244,"o":"m 231 0 l 110 0 l 110 744 l 231 744 l 231 0 z "},"í":{"ha":340,"x_min":104,"x_max":375,"o":"m 231 0 l 110 0 l 110 744 l 231 744 l 231 0 z "},"î":{"ha":340,"x_min":-54,"x_max":396,"o":"m 231 0 l 110 0 l 110 744 l 231 744 l 231 0 z "},"ï":{"ha":340,"x_min":-15,"x_max":357,"o":"m 231 0 l 110 0 l 110 744 l 231 744 l 231 0 z "},"ð":{"ha":792,"x_min":71,"x_max":722,"o":"m 283 1063 q 367 1017 325 1042 q 447 963 410 992 l 597 1056 l 647 981 l 519 901 q 625 765 579 843 q 697 590 671 686 q 722 382 722 494 q 683 162 722 250 q 569 30 643 74 q 393 -14 496 -14 q 226 27 299 -14 q 112 144 153 68 q 71 324 71 219 q 108 502 71 428 q 215 617 146 576 q 378 657 285 657 q 462 649 424 657 q 530 622 500 640 q 579 576 560 604 l 585 579 q 522 725 564 658 q 425 844 479 792 l 257 740 l 207 817 l 350 906 q 294 944 324 925 q 235 979 265 963 l 283 1063 m 396 558 q 280 531 325 558 q 214 450 235 503 q 193 319 193 397 q 215 199 193 251 q 281 116 236 146 q 396 86 325 86 q 551 153 503 86 q 599 349 599 221 q 586 430 599 392 q 549 497 574 468 q 487 542 525 525 q 396 558 449 558 z "},"ñ":{"ha":811,"x_min":110,"x_max":706,"o":"m 451 758 q 641 694 576 758 q 706 485 706 629 l 706 0 l 585 0 l 585 476 q 547 611 585 567 q 432 656 510 656 q 274 586 318 656 q 231 386 231 517 l 231 0 l 110 0 l 110 744 l 207 744 l 225 643 l 232 643 q 289 708 254 682 q 365 746 324 733 q 451 758 407 758 z "},"ò":{"ha":792,"x_min":71,"x_max":722,"o":"m 722 374 q 699 209 722 281 q 633 88 676 138 q 529 12 590 38 q 393 -14 468 -14 q 265 12 324 -14 q 162 88 206 38 q 94 209 118 138 q 71 374 71 281 q 110 583 71 497 q 224 713 150 668 q 397 758 297 758 q 566 713 493 758 q 681 583 639 668 q 722 374 722 497 m 196 374 q 217 222 196 286 q 282 122 238 157 q 396 88 326 88 q 510 122 465 88 q 576 222 554 157 q 597 374 597 286 q 576 525 597 463 q 510 622 554 588 q 394 656 465 656 q 243 581 290 656 q 196 374 196 506 z "},"ó":{"ha":792,"x_min":71,"x_max":722,"o":"m 722 374 q 699 209 722 281 q 633 88 676 138 q 529 12 590 38 q 393 -14 468 -14 q 265 12 324 -14 q 162 88 206 38 q 94 209 118 138 q 71 374 71 281 q 110 583 71 497 q 224 713 150 668 q 397 758 297 758 q 566 713 493 758 q 681 583 639 668 q 722 374 722 497 m 196 374 q 217 222 196 286 q 282 122 238 157 q 396 88 326 88 q 510 122 465 88 q 576 222 554 157 q 597 374 597 286 q 576 525 597 463 q 510 622 554 588 q 394 656 465 656 q 243 581 290 656 q 196 374 196 506 z "},"ô":{"ha":792,"x_min":71,"x_max":722,"o":"m 722 374 q 699 209 722 281 q 633 88 676 138 q 529 12 590 38 q 393 -14 468 -14 q 265 12 324 -14 q 162 88 206 38 q 94 209 118 138 q 71 374 71 281 q 110 583 71 497 q 224 713 150 668 q 397 758 297 758 q 566 713 493 758 q 681 583 639 668 q 722 374 722 497 m 196 374 q 217 222 196 286 q 282 122 238 157 q 396 88 326 88 q 510 122 465 88 q 576 222 554 157 q 597 374 597 286 q 576 525 597 463 q 510 622 554 588 q 394 656 465 656 q 243 581 290 656 q 196 374 196 506 z "},"õ":{"ha":792,"x_min":71,"x_max":722,"o":"m 722 374 q 699 209 722 281 q 633 88 676 138 q 529 12 590 38 q 393 -14 468 -14 q 265 12 324 -14 q 162 88 206 38 q 94 209 118 138 q 71 374 71 281 q 110 583 71 497 q 224 713 150 668 q 397 758 297 758 q 566 713 493 758 q 681 583 639 668 q 722 374 722 497 m 196 374 q 217 222 196 286 q 282 122 238 157 q 396 88 326 88 q 510 122 465 88 q 576 222 554 157 q 597 374 597 286 q 576 525 597 463 q 510 622 554 588 q 394 656 465 656 q 243 581 290 656 q 196 374 196 506 z "},"ö":{"ha":792,"x_min":71,"x_max":722,"o":"m 722 374 q 699 209 722 281 q 633 88 676 138 q 529 12 590 38 q 393 -14 468 -14 q 265 12 324 -14 q 162 88 206 38 q 94 209 118 138 q 71 374 71 281 q 110 583 71 497 q 224 713 150 668 q 397 758 297 758 q 566 713 493 758 q 681 583 639 668 q 722 374 722 497 m 196 374 q 217 222 196 286 q 282 122 238 157 q 396 88 326 88 q 510 122 465 88 q 576 222 554 157 q 597 374 597 286 q 576 525 597 463 q 510 622 554 588 q 394 656 465 656 q 243 581 290 656 q 196 374 196 506 z "},"÷":{"ha":746,"x_min":64,"x_max":681,"o":"m 64 440 l 64 539 l 681 539 l 681 440 l 64 440 m 371 168 q 319 188 340 168 q 297 253 297 208 q 319 318 297 300 q 371 336 340 336 q 423 318 401 336 q 444 253 444 300 q 423 188 444 208 q 371 168 401 168 m 371 642 q 319 662 340 642 q 297 726 297 682 q 319 792 297 774 q 371 810 340 810 q 423 792 401 810 q 444 726 444 774 q 423 662 444 682 q 371 642 401 642 z "},"ø":{"ha":792,"x_min":71,"x_max":722,"o":"m 722 374 q 682 163 722 250 q 568 31 642 76 q 393 -14 494 -14 q 304 -2 346 -14 q 226 32 263 10 l 175 -46 l 97 8 l 156 94 q 93 215 115 144 q 71 374 71 285 q 158 658 71 558 q 397 758 246 758 q 489 745 446 758 q 568 708 532 732 l 617 786 l 696 733 l 639 646 q 700 528 678 597 q 722 374 722 460 m 196 374 q 203 276 196 321 q 225 196 210 231 l 507 621 q 456 647 485 638 q 394 656 428 656 q 243 581 290 656 q 196 374 196 506 m 597 374 q 590 468 597 425 q 568 544 583 511 l 288 119 q 338 96 310 104 q 396 88 365 88 q 510 122 465 88 q 576 222 554 157 q 597 374 597 286 z "},"ù":{"ha":810,"x_min":103,"x_max":700,"o":"m 700 744 l 700 0 l 603 0 l 585 99 l 579 99 q 522 35 557 60 q 444 -2 486 10 q 357 -14 403 -14 q 217 15 274 -14 q 131 103 160 43 q 103 257 103 163 l 103 744 l 225 744 l 225 265 q 263 132 225 176 q 378 88 300 88 q 498 119 454 88 q 560 210 542 150 q 579 357 579 271 l 579 744 l 700 744 z "},"ú":{"ha":810,"x_min":103,"x_max":700,"o":"m 700 744 l 700 0 l 603 0 l 585 99 l 579 99 q 522 35 557 60 q 444 -2 486 10 q 357 -14 403 -14 q 217 15 274 -14 q 131 103 160 43 q 103 257 103 163 l 103 744 l 225 744 l 225 265 q 263 132 225 176 q 378 88 300 88 q 498 119 454 88 q 560 210 542 150 q 579 357 579 271 l 579 744 l 700 744 z "},"û":{"ha":810,"x_min":103,"x_max":700,"o":"m 700 744 l 700 0 l 603 0 l 585 99 l 579 99 q 522 35 557 60 q 444 -2 486 10 q 357 -14 403 -14 q 217 15 274 -14 q 131 103 160 43 q 103 257 103 163 l 103 744 l 225 744 l 225 265 q 263 132 225 176 q 378 88 300 88 q 498 119 454 88 q 560 210 542 150 q 579 357 579 271 l 579 744 l 700 744 z "},"ü":{"ha":810,"x_min":103,"x_max":700,"o":"m 700 744 l 700 0 l 603 0 l 585 99 l 579 99 q 522 35 557 60 q 444 -2 486 10 q 357 -14 403 -14 q 217 15 274 -14 q 131 103 160 43 q 103 257 103 163 l 103 744 l 225 744 l 225 265 q 263 132 225 176 q 378 88 300 88 q 498 119 454 88 q 560 210 542 150 q 579 357 579 271 l 579 744 l 700 744 z "},"ý":{"ha":672,"x_min":1,"x_max":672,"o":"m 1 744 l 132 744 l 281 321 q 306 249 294 283 q 325 181 317 214 q 338 118 333 149 l 342 118 q 366 209 350 153 q 400 322 382 265 l 540 744 l 672 744 l 371 -103 q 312 -224 346 -172 q 229 -305 278 -276 q 113 -333 181 -333 q 58 -330 82 -333 q 17 -322 33 -326 l 17 -225 q 51 -231 31 -228 q 94 -233 72 -233 q 164 -217 135 -233 q 214 -172 193 -201 q 249 -101 235 -142 l 283 -3 l 1 744 z "},"þ":{"ha":804,"x_min":110,"x_max":733,"o":"m 733 374 q 698 160 733 247 q 598 30 663 74 q 447 -14 533 -14 q 352 1 393 -14 q 281 40 311 15 q 231 94 251 65 l 222 94 q 226 63 224 85 q 229 17 228 40 q 231 -22 231 -7 l 231 -333 l 110 -333 l 110 1056 l 231 1056 l 231 744 q 229 694 231 725 q 226 644 228 663 l 232 644 q 282 702 253 676 q 351 743 311 728 q 447 758 392 758 q 655 661 576 758 q 733 374 733 564 m 608 375 q 564 585 608 515 q 425 656 519 656 q 275 592 319 656 q 231 400 231 528 l 231 374 q 272 162 231 236 q 426 88 314 88 q 529 121 489 88 q 589 219 569 154 q 608 375 608 283 z "},"ÿ":{"ha":672,"x_min":1,"x_max":672,"o":"m 1 744 l 132 744 l 281 321 q 306 249 294 283 q 325 181 317 214 q 338 118 333 149 l 342 118 q 366 209 350 153 q 400 322 382 265 l 540 744 l 672 744 l 371 -103 q 312 -224 346 -172 q 229 -305 278 -276 q 113 -333 181 -333 q 58 -330 82 -333 q 17 -322 33 -326 l 17 -225 q 51 -231 31 -228 q 94 -233 72 -233 q 164 -217 135 -233 q 214 -172 193 -201 q 249 -101 235 -142 l 283 -3 l 1 744 z "},"Ā":{"ha":839,"x_min":0,"x_max":838,"o":"m 710 0 l 601 307 l 233 307 l 126 0 l 0 0 l 361 996 l 478 996 l 838 0 l 710 0 m 463 718 q 451 758 460 729 q 433 819 442 788 q 418 867 424 850 q 397 783 408 824 q 376 718 385 742 l 274 418 l 565 418 l 463 718 z "},"ā":{"ha":738,"x_min":60,"x_max":632,"o":"m 378 757 q 569 697 506 757 q 632 507 632 638 l 632 0 l 544 0 l 521 106 l 515 106 q 453 38 485 65 q 381 -1 422 11 q 281 -14 340 -14 q 168 10 218 -14 q 89 83 118 33 q 60 207 60 132 q 142 378 60 318 q 394 444 224 439 l 513 449 l 513 493 q 476 622 513 586 q 371 658 439 658 q 267 641 317 658 q 174 601 218 624 l 136 693 q 246 738 183 719 q 378 757 308 757 m 411 360 q 234 315 283 354 q 185 206 185 276 q 219 114 185 143 q 310 85 254 85 q 454 137 396 85 q 513 297 513 189 l 513 364 l 411 360 z "},"Ă":{"ha":839,"x_min":0,"x_max":838,"o":"m 710 0 l 601 307 l 233 307 l 126 0 l 0 0 l 361 996 l 478 996 l 838 0 l 710 0 m 463 718 q 451 758 460 729 q 433 819 442 788 q 418 867 424 850 q 397 783 408 824 q 376 718 385 742 l 274 418 l 565 418 l 463 718 z "},"ă":{"ha":738,"x_min":60,"x_max":632,"o":"m 378 757 q 569 697 506 757 q 632 507 632 638 l 632 0 l 544 0 l 521 106 l 515 106 q 453 38 485 65 q 381 -1 422 11 q 281 -14 340 -14 q 168 10 218 -14 q 89 83 118 33 q 60 207 60 132 q 142 378 60 318 q 394 444 224 439 l 513 449 l 513 493 q 476 622 513 586 q 371 658 439 658 q 267 641 317 658 q 174 601 218 624 l 136 693 q 246 738 183 719 q 378 757 308 757 m 411 360 q 234 315 283 354 q 185 206 185 276 q 219 114 185 143 q 310 85 254 85 q 454 137 396 85 q 513 297 513 189 l 513 364 l 411 360 z "},"Ą":{"ha":839,"x_min":0,"x_max":872,"o":"m 710 0 l 601 307 l 233 307 l 126 0 l 0 0 l 361 996 l 478 996 l 838 0 l 710 0 m 463 718 q 451 758 460 729 q 433 819 442 788 q 418 867 424 850 q 397 783 408 824 q 376 718 385 742 l 274 418 l 565 418 l 463 718 m 751 -161 q 767 -208 751 -192 q 810 -224 783 -224 q 847 -220 831 -224 q 872 -215 863 -217 l 872 -293 q 835 -302 854 -299 q 790 -306 817 -306 q 714 -290 744 -306 q 669 -245 683 -275 q 654 -175 654 -215 q 674 -97 654 -135 q 722 -29 693 -60 q 776 21 750 1 l 840 0 q 774 -81 797 -44 q 751 -161 751 -118 z "},"ą":{"ha":738,"x_min":60,"x_max":688,"o":"m 378 757 q 569 697 506 757 q 632 507 632 638 l 632 0 l 544 0 l 521 106 l 515 106 q 453 38 485 65 q 381 -1 422 11 q 281 -14 340 -14 q 168 10 218 -14 q 89 83 118 33 q 60 207 60 132 q 142 378 60 318 q 394 444 224 439 l 513 449 l 513 493 q 476 622 513 586 q 371 658 439 658 q 267 641 317 658 q 174 601 218 624 l 136 693 q 246 738 183 719 q 378 757 308 757 m 411 360 q 234 315 283 354 q 185 206 185 276 q 219 114 185 143 q 310 85 254 85 q 454 137 396 85 q 513 297 513 189 l 513 364 l 411 360 m 567 -161 q 583 -208 567 -192 q 625 -224 599 -224 q 662 -220 646 -224 q 688 -215 678 -217 l 688 -293 q 651 -302 669 -299 q 606 -306 632 -306 q 529 -290 560 -306 q 484 -245 499 -275 q 469 -175 469 -215 q 489 -97 469 -135 q 537 -29 508 -60 q 592 21 565 1 l 656 0 q 590 -81 613 -44 q 567 -161 567 -118 z "},"Ć":{"ha":825,"x_min":79,"x_max":785,"o":"m 525 896 q 393 869 451 896 q 294 790 335 842 q 231 663 253 738 q 210 496 210 589 q 244 283 210 374 q 349 144 279 193 q 524 96 419 96 q 640 107 585 96 q 749 135 694 118 l 749 26 q 640 -4 696 6 q 507 -14 585 -14 q 269 49 364 -14 q 126 226 174 111 q 79 497 79 342 q 108 703 79 610 q 194 864 138 796 q 335 969 251 932 q 526 1006 418 1006 q 664 990 597 1006 q 785 947 731 975 l 736 842 q 640 879 693 863 q 525 896 586 896 z "},"ć":{"ha":631,"x_min":71,"x_max":588,"o":"m 392 -14 q 225 26 297 -14 q 112 151 153 67 q 71 368 71 236 q 114 592 71 506 q 231 718 157 678 q 400 758 306 758 q 505 747 454 758 q 588 718 556 735 l 550 617 q 476 640 518 629 q 397 651 433 651 q 285 619 329 651 q 218 525 240 588 q 196 369 196 463 q 218 218 196 281 q 284 124 240 156 q 392 92 328 92 q 493 104 449 92 q 575 135 538 117 l 575 26 q 496 -3 539 7 q 392 -14 453 -14 z "},"Ĉ":{"ha":825,"x_min":79,"x_max":785,"o":"m 525 896 q 393 869 451 896 q 294 790 335 842 q 231 663 253 738 q 210 496 210 589 q 244 283 210 374 q 349 144 279 193 q 524 96 419 96 q 640 107 585 96 q 749 135 694 118 l 749 26 q 640 -4 696 6 q 507 -14 585 -14 q 269 49 364 -14 q 126 226 174 111 q 79 497 79 342 q 108 703 79 610 q 194 864 138 796 q 335 969 251 932 q 526 1006 418 1006 q 664 990 597 1006 q 785 947 731 975 l 736 842 q 640 879 693 863 q 525 896 586 896 z "},"ĉ":{"ha":631,"x_min":71,"x_max":596,"o":"m 392 -14 q 225 26 297 -14 q 112 151 153 67 q 71 368 71 236 q 114 592 71 506 q 231 718 157 678 q 400 758 306 758 q 505 747 454 758 q 588 718 556 735 l 550 617 q 476 640 518 629 q 397 651 433 651 q 285 619 329 651 q 218 525 240 588 q 196 369 196 463 q 218 218 196 281 q 284 124 240 156 q 392 92 328 92 q 493 104 449 92 q 575 135 538 117 l 575 26 q 496 -3 539 7 q 392 -14 453 -14 z "},"Ċ":{"ha":825,"x_min":79,"x_max":785,"o":"m 525 896 q 393 869 451 896 q 294 790 335 842 q 231 663 253 738 q 210 496 210 589 q 244 283 210 374 q 349 144 279 193 q 524 96 419 96 q 640 107 585 96 q 749 135 694 118 l 749 26 q 640 -4 696 6 q 507 -14 585 -14 q 269 49 364 -14 q 126 226 174 111 q 79 497 79 342 q 108 703 79 610 q 194 864 138 796 q 335 969 251 932 q 526 1006 418 1006 q 664 990 597 1006 q 785 947 731 975 l 736 842 q 640 879 693 863 q 525 896 586 896 z "},"ċ":{"ha":631,"x_min":71,"x_max":588,"o":"m 392 -14 q 225 26 297 -14 q 112 151 153 67 q 71 368 71 236 q 114 592 71 506 q 231 718 157 678 q 400 758 306 758 q 505 747 454 758 q 588 718 556 735 l 550 617 q 476 640 518 629 q 397 651 433 651 q 285 619 329 651 q 218 525 240 588 q 196 369 196 463 q 218 218 196 281 q 284 124 240 156 q 392 92 328 92 q 493 104 449 92 q 575 135 538 117 l 575 26 q 496 -3 539 7 q 392 -14 453 -14 z "},"Č":{"ha":825,"x_min":79,"x_max":785,"o":"m 525 896 q 393 869 451 896 q 294 790 335 842 q 231 663 253 738 q 210 496 210 589 q 244 283 210 374 q 349 144 279 193 q 524 96 419 96 q 640 107 585 96 q 749 135 694 118 l 749 26 q 640 -4 696 6 q 507 -14 585 -14 q 269 49 364 -14 q 126 226 174 111 q 79 497 79 342 q 108 703 79 610 q 194 864 138 796 q 335 969 251 932 q 526 1006 418 1006 q 664 990 597 1006 q 785 947 731 975 l 736 842 q 640 879 693 863 q 525 896 586 896 z "},"č":{"ha":631,"x_min":71,"x_max":596,"o":"m 392 -14 q 225 26 297 -14 q 112 151 153 67 q 71 368 71 236 q 114 592 71 506 q 231 718 157 678 q 400 758 306 758 q 505 747 454 758 q 588 718 556 735 l 550 617 q 476 640 518 629 q 397 651 433 651 q 285 619 329 651 q 218 525 240 588 q 196 369 196 463 q 218 218 196 281 q 284 124 240 156 q 392 92 328 92 q 493 104 449 92 q 575 135 538 117 l 575 26 q 496 -3 539 7 q 392 -14 453 -14 z "},"Ď":{"ha":954,"x_min":126,"x_max":875,"o":"m 875 506 q 817 226 875 339 q 649 57 758 114 q 386 0 540 0 l 126 0 l 126 992 l 414 992 q 659 936 556 992 q 819 773 763 881 q 875 506 875 665 m 744 501 q 704 718 744 633 q 587 844 664 803 q 399 885 510 885 l 250 885 l 250 107 l 374 107 q 652 206 560 107 q 744 501 744 306 z "},"ď":{"ha":854,"x_min":71,"x_max":932,"o":"m 932 1043 q 911 981 926 1018 q 876 903 896 943 q 838 833 857 864 l 771 833 l 771 850 q 784 896 778 869 q 796 951 790 922 q 806 1006 801 979 q 814 1056 811 1033 l 932 1056 l 932 1043 m 357 -14 q 149 83 228 -14 q 71 371 71 179 q 150 660 71 563 q 358 758 229 758 q 453 744 413 758 q 523 704 493 729 q 574 649 553 679 l 582 649 q 577 702 581 667 q 574 758 574 738 l 574 1056 l 694 1056 l 694 0 l 597 0 l 579 100 l 574 100 q 523 42 553 68 q 452 1 493 17 q 357 -14 411 -14 m 379 88 q 531 152 488 88 q 575 347 575 217 l 575 369 q 533 583 575 508 q 378 657 492 657 q 241 578 286 657 q 196 368 196 500 q 241 161 196 235 q 379 88 286 88 z "},"Đ":{"ha":954,"x_min":39,"x_max":875,"o":"m 414 992 q 658 936 554 992 q 818 773 761 881 q 875 506 875 665 q 817 226 875 339 q 649 57 758 114 q 385 0 540 0 l 135 0 l 135 436 l 39 436 l 39 544 l 135 544 l 135 992 l 414 992 m 399 885 l 258 885 l 258 544 l 485 544 l 485 436 l 258 436 l 258 107 l 374 107 q 652 206 560 107 q 744 501 744 306 q 654 792 744 700 q 399 885 564 885 z "},"đ":{"ha":808,"x_min":71,"x_max":793,"o":"m 357 -14 q 149 83 226 -14 q 71 368 71 179 q 150 658 71 563 q 357 754 229 754 q 453 740 413 754 q 523 700 493 725 q 574 644 553 675 l 582 644 q 576 698 579 663 q 574 756 574 733 l 574 840 l 301 840 l 301 932 l 574 932 l 574 1056 l 694 1056 l 694 932 l 793 932 l 793 840 l 694 840 l 694 0 l 596 0 l 578 100 l 572 100 q 522 42 551 68 q 451 1 492 17 q 357 -14 411 -14 m 381 88 q 531 151 488 88 q 575 344 575 215 l 575 368 q 533 581 575 508 q 378 653 492 653 q 242 576 286 653 q 197 367 197 500 q 242 160 197 233 q 381 88 288 88 z "},"Ē":{"ha":726,"x_min":126,"x_max":649,"o":"m 649 0 l 126 0 l 126 992 l 649 992 l 649 882 l 250 882 l 250 572 l 625 572 l 625 464 l 250 464 l 250 110 l 649 110 l 649 0 z "},"ē":{"ha":739,"x_min":71,"x_max":674,"o":"m 382 758 q 538 717 472 758 q 638 599 603 675 q 674 422 674 524 l 674 349 l 196 349 q 256 156 199 222 q 415 90 313 90 q 534 103 482 90 q 642 142 586 117 l 642 35 q 535 -2 588 10 q 410 -14 483 -14 q 233 29 310 -14 q 114 158 157 72 q 71 367 71 243 q 110 576 71 489 q 219 711 149 664 q 382 758 289 758 m 382 658 q 254 602 301 658 q 199 446 207 546 l 549 446 q 531 557 549 510 q 476 631 513 604 q 382 658 439 658 z "},"Ĕ":{"ha":726,"x_min":126,"x_max":649,"o":"m 649 0 l 126 0 l 126 992 l 649 992 l 649 882 l 250 882 l 250 572 l 625 572 l 625 464 l 250 464 l 250 110 l 649 110 l 649 0 z "},"ĕ":{"ha":739,"x_min":71,"x_max":674,"o":"m 382 758 q 538 717 472 758 q 638 599 603 675 q 674 422 674 524 l 674 349 l 196 349 q 256 156 199 222 q 415 90 313 90 q 534 103 482 90 q 642 142 586 117 l 642 35 q 535 -2 588 10 q 410 -14 483 -14 q 233 29 310 -14 q 114 158 157 72 q 71 367 71 243 q 110 576 71 489 q 219 711 149 664 q 382 758 289 758 m 382 658 q 254 602 301 658 q 199 446 207 546 l 549 446 q 531 557 549 510 q 476 631 513 604 q 382 658 439 658 z "},"Ė":{"ha":726,"x_min":126,"x_max":649,"o":"m 649 0 l 126 0 l 126 992 l 649 992 l 649 882 l 250 882 l 250 572 l 625 572 l 625 464 l 250 464 l 250 110 l 649 110 l 649 0 z "},"ė":{"ha":739,"x_min":71,"x_max":674,"o":"m 382 758 q 538 717 472 758 q 638 599 603 675 q 674 422 674 524 l 674 349 l 196 349 q 256 156 199 222 q 415 90 313 90 q 534 103 482 90 q 642 142 586 117 l 642 35 q 535 -2 588 10 q 410 -14 483 -14 q 233 29 310 -14 q 114 158 157 72 q 71 367 71 243 q 110 576 71 489 q 219 711 149 664 q 382 758 289 758 m 382 658 q 254 602 301 658 q 199 446 207 546 l 549 446 q 531 557 549 510 q 476 631 513 604 q 382 658 439 658 z "},"Ę":{"ha":726,"x_min":126,"x_max":668,"o":"m 649 0 l 126 0 l 126 992 l 649 992 l 649 882 l 250 882 l 250 572 l 625 572 l 625 464 l 250 464 l 250 110 l 649 110 l 649 0 m 547 -161 q 563 -208 547 -192 q 606 -224 579 -224 q 642 -220 626 -224 q 668 -215 658 -217 l 668 -293 q 631 -302 650 -299 q 586 -306 613 -306 q 510 -290 540 -306 q 465 -245 479 -275 q 450 -175 450 -215 q 469 -97 450 -135 q 517 -29 489 -60 q 572 21 546 1 l 636 0 q 570 -81 593 -44 q 547 -161 547 -118 z "},"ę":{"ha":739,"x_min":71,"x_max":674,"o":"m 499 -161 q 515 -208 499 -192 q 561 -224 532 -224 q 601 -220 585 -224 q 628 -215 617 -217 l 628 -293 q 589 -302 608 -299 q 542 -306 569 -306 q 433 -271 468 -306 q 399 -175 399 -236 q 419 -97 399 -135 q 469 -29 439 -60 q 526 21 499 1 l 638 35 q 551 -43 582 -10 q 510 -104 521 -76 q 499 -161 499 -132 m 382 758 q 538 717 472 758 q 638 599 603 675 q 674 422 674 524 l 674 349 l 196 349 q 256 156 199 222 q 415 90 313 90 q 534 103 482 90 q 642 142 586 117 l 642 35 q 535 -2 588 10 q 410 -14 483 -14 q 233 29 310 -14 q 114 158 157 72 q 71 367 71 243 q 110 576 71 489 q 219 711 149 664 q 382 758 289 758 m 382 658 q 254 602 301 658 q 199 446 207 546 l 549 446 q 531 557 549 510 q 476 631 513 604 q 382 658 439 658 z "},"Ě":{"ha":726,"x_min":126,"x_max":649,"o":"m 649 0 l 126 0 l 126 992 l 649 992 l 649 882 l 250 882 l 250 572 l 625 572 l 625 464 l 250 464 l 250 110 l 649 110 l 649 0 z "},"ě":{"ha":739,"x_min":71,"x_max":674,"o":"m 382 758 q 538 717 472 758 q 638 599 603 675 q 674 422 674 524 l 674 349 l 196 349 q 256 156 199 222 q 415 90 313 90 q 534 103 482 90 q 642 142 586 117 l 642 35 q 535 -2 588 10 q 410 -14 483 -14 q 233 29 310 -14 q 114 158 157 72 q 71 367 71 243 q 110 576 71 489 q 219 711 149 664 q 382 758 289 758 m 382 658 q 254 602 301 658 q 199 446 207 546 l 549 446 q 531 557 549 510 q 476 631 513 604 q 382 658 439 658 z "},"Ĝ":{"ha":950,"x_min":79,"x_max":853,"o":"m 526 524 l 853 524 l 853 38 q 701 -1 778 11 q 525 -14 624 -14 q 281 48 381 -14 q 131 224 182 110 q 79 496 79 339 q 136 765 79 651 q 301 942 193 879 q 563 1006 410 1006 q 710 990 640 1006 q 840 947 781 975 l 794 839 q 684 879 746 863 q 557 896 622 896 q 369 847 447 896 q 250 709 292 799 q 208 496 208 619 q 243 287 208 378 q 353 145 278 196 q 551 94 429 94 q 623 98 592 94 q 681 107 654 101 q 729 118 707 113 l 729 413 l 526 413 l 526 524 z "},"ĝ":{"ha":804,"x_min":71,"x_max":694,"o":"m 357 758 q 481 731 426 758 q 575 646 536 703 l 582 646 l 597 744 l 694 744 l 694 -12 q 660 -190 694 -118 q 556 -297 626 -261 q 378 -333 486 -333 q 239 -322 301 -333 q 125 -286 176 -310 l 125 -174 q 201 -205 160 -192 q 288 -225 242 -218 q 385 -232 335 -232 q 524 -176 474 -232 q 575 -22 575 -119 l 575 7 q 576 55 575 24 q 579 99 578 86 l 574 99 q 483 14 538 42 q 358 -14 429 -14 q 147 88 224 -14 q 71 371 71 189 q 105 577 71 490 q 203 711 139 664 q 357 758 268 758 m 376 656 q 278 622 319 656 q 217 525 238 589 q 196 369 196 461 q 242 159 196 232 q 379 86 289 86 q 468 101 431 86 q 529 147 506 115 q 565 226 553 178 q 576 342 576 275 l 576 371 q 555 535 576 472 q 490 626 533 597 q 376 656 446 656 z "},"Ğ":{"ha":950,"x_min":79,"x_max":853,"o":"m 526 524 l 853 524 l 853 38 q 701 -1 778 11 q 525 -14 624 -14 q 281 48 381 -14 q 131 224 182 110 q 79 496 79 339 q 136 765 79 651 q 301 942 193 879 q 563 1006 410 1006 q 710 990 640 1006 q 840 947 781 975 l 794 839 q 684 879 746 863 q 557 896 622 896 q 369 847 447 896 q 250 709 292 799 q 208 496 208 619 q 243 287 208 378 q 353 145 278 196 q 551 94 429 94 q 623 98 592 94 q 681 107 654 101 q 729 118 707 113 l 729 413 l 526 413 l 526 524 z "},"ğ":{"ha":804,"x_min":71,"x_max":694,"o":"m 357 758 q 481 731 426 758 q 575 646 536 703 l 582 646 l 597 744 l 694 744 l 694 -12 q 660 -190 694 -118 q 556 -297 626 -261 q 378 -333 486 -333 q 239 -322 301 -333 q 125 -286 176 -310 l 125 -174 q 201 -205 160 -192 q 288 -225 242 -218 q 385 -232 335 -232 q 524 -176 474 -232 q 575 -22 575 -119 l 575 7 q 576 55 575 24 q 579 99 578 86 l 574 99 q 483 14 538 42 q 358 -14 429 -14 q 147 88 224 -14 q 71 371 71 189 q 105 577 71 490 q 203 711 139 664 q 357 758 268 758 m 376 656 q 278 622 319 656 q 217 525 238 589 q 196 369 196 461 q 242 159 196 232 q 379 86 289 86 q 468 101 431 86 q 529 147 506 115 q 565 226 553 178 q 576 342 576 275 l 576 371 q 555 535 576 472 q 490 626 533 597 q 376 656 446 656 z "},"Ġ":{"ha":950,"x_min":79,"x_max":853,"o":"m 526 524 l 853 524 l 853 38 q 701 -1 778 11 q 525 -14 624 -14 q 281 48 381 -14 q 131 224 182 110 q 79 496 79 339 q 136 765 79 651 q 301 942 193 879 q 563 1006 410 1006 q 710 990 640 1006 q 840 947 781 975 l 794 839 q 684 879 746 863 q 557 896 622 896 q 369 847 447 896 q 250 709 292 799 q 208 496 208 619 q 243 287 208 378 q 353 145 278 196 q 551 94 429 94 q 623 98 592 94 q 681 107 654 101 q 729 118 707 113 l 729 413 l 526 413 l 526 524 z "},"ġ":{"ha":804,"x_min":71,"x_max":694,"o":"m 357 758 q 481 731 426 758 q 575 646 536 703 l 582 646 l 597 744 l 694 744 l 694 -12 q 660 -190 694 -118 q 556 -297 626 -261 q 378 -333 486 -333 q 239 -322 301 -333 q 125 -286 176 -310 l 125 -174 q 201 -205 160 -192 q 288 -225 242 -218 q 385 -232 335 -232 q 524 -176 474 -232 q 575 -22 575 -119 l 575 7 q 576 55 575 24 q 579 99 578 86 l 574 99 q 483 14 538 42 q 358 -14 429 -14 q 147 88 224 -14 q 71 371 71 189 q 105 577 71 490 q 203 711 139 664 q 357 758 268 758 m 376 656 q 278 622 319 656 q 217 525 238 589 q 196 369 196 461 q 242 159 196 232 q 379 86 289 86 q 468 101 431 86 q 529 147 506 115 q 565 226 553 178 q 576 342 576 275 l 576 371 q 555 535 576 472 q 490 626 533 597 q 376 656 446 656 z "},"Ģ":{"ha":950,"x_min":79,"x_max":853,"o":"m 526 524 l 853 524 l 853 38 q 701 -1 778 11 q 525 -14 624 -14 q 281 48 381 -14 q 131 224 182 110 q 79 496 79 339 q 136 765 79 651 q 301 942 193 879 q 563 1006 410 1006 q 710 990 640 1006 q 840 947 781 975 l 794 839 q 684 879 746 863 q 557 896 622 896 q 369 847 447 896 q 250 709 292 799 q 208 496 208 619 q 243 287 208 378 q 353 145 278 196 q 551 94 429 94 q 623 98 592 94 q 681 107 654 101 q 729 118 707 113 l 729 413 l 526 413 l 526 524 m 592 -97 q 570 -160 586 -122 q 533 -237 554 -199 q 488 -307 511 -276 l 421 -307 l 421 -290 q 442 -230 431 -267 q 462 -153 453 -193 q 474 -85 471 -114 l 592 -85 l 592 -97 z "},"ģ":{"ha":854,"x_min":71,"x_max":694,"o":"m 479 1047 q 458 987 469 1024 q 438 911 447 950 q 425 842 429 872 l 307 842 l 307 854 q 330 917 314 879 q 367 994 346 954 q 411 1064 389 1033 l 479 1064 l 479 1047 m 357 758 q 481 731 426 758 q 575 646 536 703 l 582 646 l 597 744 l 694 744 l 694 -12 q 660 -190 694 -118 q 556 -297 626 -261 q 378 -333 486 -333 q 239 -322 301 -333 q 125 -286 176 -310 l 125 -174 q 201 -205 160 -192 q 288 -225 242 -218 q 385 -232 335 -232 q 524 -176 474 -232 q 575 -22 575 -119 l 575 7 q 576 55 575 24 q 579 99 578 86 l 574 99 q 483 14 538 42 q 358 -14 429 -14 q 147 88 224 -14 q 71 371 71 189 q 105 577 71 490 q 203 711 139 664 q 357 758 268 758 m 376 656 q 278 622 319 656 q 217 525 238 589 q 196 369 196 461 q 242 159 196 232 q 379 86 289 86 q 468 101 431 86 q 529 147 506 115 q 565 226 553 178 q 576 342 576 275 l 576 371 q 555 535 576 472 q 490 626 533 597 q 376 656 446 656 z "},"Ĥ":{"ha":971,"x_min":126,"x_max":843,"o":"m 843 0 l 719 0 l 719 463 l 250 463 l 250 0 l 126 0 l 126 992 l 250 992 l 250 572 l 719 572 l 719 992 l 843 992 l 843 0 z "},"ĥ":{"ha":811,"x_min":-53,"x_max":706,"o":"m 231 746 q 228 692 231 719 q 224 642 226 664 l 232 642 q 288 706 254 681 q 363 744 322 731 q 449 757 404 757 q 590 728 533 757 q 676 640 647 700 q 706 485 706 581 l 706 0 l 585 0 l 585 476 q 547 611 585 567 q 432 656 510 656 q 311 624 356 656 q 249 533 267 593 q 231 385 231 472 l 231 0 l 110 0 l 110 1056 l 231 1056 l 231 746 z "},"Ħ":{"ha":969,"x_min":0,"x_max":968,"o":"m 126 0 l 126 726 l 0 726 l 0 826 l 126 826 l 126 992 l 250 992 l 250 826 l 719 826 l 719 992 l 843 992 l 843 826 l 968 826 l 968 726 l 843 726 l 843 0 l 719 0 l 719 463 l 250 463 l 250 0 l 126 0 m 250 572 l 719 572 l 719 726 l 250 726 l 250 572 z "},"ħ":{"ha":811,"x_min":11,"x_max":706,"o":"m 232 1056 l 232 931 l 503 931 l 503 839 l 232 839 l 232 718 q 230 665 232 692 q 225 615 228 638 l 233 615 q 289 679 256 654 q 364 717 322 704 q 451 731 406 731 q 592 702 535 731 q 677 613 649 674 q 706 457 706 553 l 706 0 l 586 0 l 586 449 q 549 583 586 539 q 432 628 511 628 q 312 597 356 628 q 250 506 268 565 q 232 358 232 446 l 232 0 l 110 0 l 110 839 l 11 839 l 11 931 l 110 931 l 110 1056 l 232 1056 z "},"Ĩ":{"ha":447,"x_min":-17,"x_max":467,"o":"m 394 0 l 51 0 l 51 72 l 161 99 l 161 892 l 51 919 l 51 992 l 394 992 l 394 919 l 285 892 l 285 99 l 394 72 l 394 0 z "},"ĩ":{"ha":340,"x_min":-71,"x_max":413,"o":"m 231 0 l 110 0 l 110 744 l 231 744 l 231 0 z "},"Ī":{"ha":447,"x_min":28,"x_max":419,"o":"m 394 0 l 51 0 l 51 72 l 161 99 l 161 892 l 51 919 l 51 992 l 394 992 l 394 919 l 285 892 l 285 99 l 394 72 l 394 0 z "},"ī":{"ha":340,"x_min":-26,"x_max":365,"o":"m 231 0 l 110 0 l 110 744 l 231 744 l 231 0 z "},"Ĭ":{"ha":447,"x_min":18,"x_max":432,"o":"m 394 0 l 51 0 l 51 72 l 161 99 l 161 892 l 51 919 l 51 992 l 394 992 l 394 919 l 285 892 l 285 99 l 394 72 l 394 0 z "},"ĭ":{"ha":340,"x_min":-36,"x_max":378,"o":"m 231 0 l 110 0 l 110 744 l 231 744 l 231 0 z "},"Į":{"ha":447,"x_min":51,"x_max":399,"o":"m 394 0 l 51 0 l 51 72 l 161 99 l 161 892 l 51 919 l 51 992 l 394 992 l 394 919 l 285 892 l 285 99 l 394 72 l 394 0 m 278 -161 q 294 -208 278 -192 q 336 -224 310 -224 q 373 -220 357 -224 q 399 -215 389 -217 l 399 -293 q 362 -302 381 -299 q 317 -306 343 -306 q 240 -290 271 -306 q 195 -245 210 -275 q 181 -175 181 -215 q 200 -97 181 -135 q 248 -29 219 -60 q 303 21 276 1 l 367 0 q 301 -81 324 -44 q 278 -161 278 -118 z "},"į":{"ha":342,"x_min":35,"x_max":253,"o":"m 232 744 l 232 0 l 111 0 l 111 744 l 232 744 m 172 1024 q 221 1005 200 1024 q 242 946 242 986 q 221 888 242 907 q 172 868 200 868 q 122 888 143 868 q 101 946 101 907 q 122 1005 101 986 q 172 1024 143 1024 m 132 -161 q 148 -208 132 -192 q 190 -224 164 -224 q 227 -220 211 -224 q 253 -215 243 -217 l 253 -293 q 216 -302 235 -299 q 171 -306 197 -306 q 94 -290 125 -306 q 49 -245 64 -275 q 35 -175 35 -215 q 54 -97 35 -135 q 102 -29 74 -60 q 157 21 131 1 l 221 0 q 155 -81 178 -44 q 132 -161 132 -118 z "},"İ":{"ha":447,"x_min":51,"x_max":394,"o":"m 394 0 l 51 0 l 51 72 l 161 99 l 161 892 l 51 919 l 51 992 l 394 992 l 394 919 l 285 892 l 285 99 l 394 72 l 394 0 z "},"Ĳ":{"ha":808,"x_min":51,"x_max":690,"o":"m 394 0 l 51 0 l 51 72 l 161 99 l 161 892 l 51 919 l 51 992 l 394 992 l 394 919 l 285 892 l 285 99 l 394 72 l 394 0 m 444 -264 q 388 -259 413 -264 q 346 -246 364 -254 l 346 -140 q 390 -150 367 -146 q 440 -154 414 -154 q 502 -140 474 -154 q 549 -92 531 -126 q 567 6 567 -57 l 567 992 l 690 992 l 690 15 q 660 -142 690 -81 q 574 -234 629 -204 q 444 -264 519 -264 z "},"ĳ":{"ha":683,"x_min":101,"x_max":583,"o":"m 232 744 l 232 0 l 111 0 l 111 744 l 232 744 m 172 1024 q 221 1005 200 1024 q 242 946 242 986 q 221 888 242 907 q 172 868 200 868 q 122 888 143 868 q 101 946 101 907 q 122 1005 101 986 q 172 1024 143 1024 m 372 -333 q 313 -328 339 -333 q 269 -317 288 -324 l 269 -218 q 310 -228 289 -224 q 356 -232 331 -232 q 426 -208 399 -232 q 453 -115 453 -183 l 453 744 l 574 744 l 574 -111 q 553 -231 574 -181 q 488 -307 532 -281 q 372 -333 443 -333 m 443 946 q 464 1005 443 986 q 514 1024 485 1024 q 563 1005 542 1024 q 583 946 583 986 q 563 888 583 907 q 514 868 542 868 q 464 888 485 868 q 443 946 443 907 z "},"Ĵ":{"ha":361,"x_min":-101,"x_max":407,"o":"m -3 -264 q -59 -259 -35 -264 q -101 -246 -83 -254 l -101 -140 q -57 -150 -81 -146 q -7 -154 -33 -154 q 55 -140 26 -154 q 101 -92 83 -126 q 119 6 119 -57 l 119 992 l 243 992 l 243 15 q 213 -142 243 -81 q 127 -234 182 -204 q -3 -264 72 -264 z "},"ĵ":{"ha":342,"x_min":-72,"x_max":396,"o":"m 31 -333 q -28 -328 -3 -333 q -72 -317 -54 -324 l -72 -218 q -32 -228 -53 -224 q 14 -232 -11 -232 q 84 -208 57 -232 q 111 -115 111 -183 l 111 744 l 232 744 l 232 -111 q 211 -231 232 -181 q 146 -307 190 -281 q 31 -333 101 -333 z "},"Ķ":{"ha":813,"x_min":126,"x_max":813,"o":"m 813 0 l 668 0 l 344 474 l 250 385 l 250 0 l 126 0 l 126 992 l 250 992 l 250 503 q 326 597 288 550 q 404 692 365 644 l 656 992 l 800 992 l 433 560 l 813 0 m 515 -97 q 494 -160 510 -122 q 456 -237 478 -199 q 411 -307 435 -276 l 344 -307 l 344 -290 q 365 -230 354 -267 q 385 -153 376 -193 q 397 -85 394 -114 l 515 -85 l 515 -97 z "},"ķ":{"ha":706,"x_min":110,"x_max":694,"o":"m 229 504 q 227 446 229 482 q 224 383 225 410 l 229 383 q 253 415 238 394 q 285 458 268 436 q 314 493 301 479 l 535 744 l 675 744 l 392 426 l 694 0 l 550 0 l 310 347 l 229 274 l 229 0 l 110 0 l 110 1056 l 229 1056 l 229 504 m 449 -97 q 427 -160 443 -122 q 390 -237 411 -199 q 344 -307 368 -276 l 278 -307 l 278 -290 q 299 -230 288 -267 q 319 -153 310 -193 q 331 -85 328 -114 l 449 -85 l 449 -97 z "},"ĸ":{"ha":706,"x_min":110,"x_max":694,"o":"m 674 744 l 407 415 l 694 0 l 551 0 l 324 336 l 236 261 l 236 0 l 110 0 l 110 744 l 236 744 l 236 551 q 234 443 236 496 q 229 363 232 390 l 232 363 q 259 399 244 381 q 286 433 274 418 l 531 744 l 674 744 z "},"Ĺ":{"ha":689,"x_min":119,"x_max":656,"o":"m 126 0 l 126 992 l 250 992 l 250 111 l 656 111 l 656 0 l 126 0 z "},"ĺ":{"ha":340,"x_min":104,"x_max":375,"o":"m 231 0 l 110 0 l 110 1056 l 231 1056 l 231 0 z "},"Ļ":{"ha":689,"x_min":126,"x_max":656,"o":"m 126 0 l 126 992 l 250 992 l 250 111 l 656 111 l 656 0 l 126 0 m 461 -97 q 440 -160 456 -122 q 402 -237 424 -199 q 357 -307 381 -276 l 290 -307 l 290 -290 q 311 -230 300 -267 q 331 -153 322 -193 q 343 -85 340 -114 l 461 -85 l 461 -97 z "},"ļ":{"ha":340,"x_min":68,"x_max":239,"o":"m 231 0 l 110 0 l 110 1056 l 231 1056 l 231 0 m 239 -97 q 217 -160 233 -122 q 180 -237 201 -199 q 135 -307 158 -276 l 68 -307 l 68 -290 q 89 -230 78 -267 q 109 -153 100 -193 q 121 -85 118 -114 l 239 -85 l 239 -97 z "},"Ľ":{"ha":728,"x_min":126,"x_max":669,"o":"m 669 979 q 649 917 664 954 q 614 840 633 879 q 575 769 594 800 l 508 769 l 508 786 q 522 832 515 806 q 533 887 528 858 q 544 942 539 915 q 551 992 549 969 l 669 992 l 669 979 m 126 0 l 126 992 l 250 992 l 250 111 l 656 111 l 656 0 l 126 0 z "},"ľ":{"ha":358,"x_min":110,"x_max":444,"o":"m 444 1043 q 424 981 439 1018 q 389 903 408 943 q 350 833 369 864 l 283 833 l 283 850 q 297 896 290 869 q 308 951 303 922 q 319 1006 314 979 q 326 1056 324 1033 l 444 1056 l 444 1043 m 231 0 l 110 0 l 110 1056 l 231 1056 l 231 0 z "},"Ŀ":{"ha":689,"x_min":126,"x_max":656,"o":"m 126 0 l 126 992 l 250 992 l 250 111 l 656 111 l 656 0 l 126 0 m 524 574 q 572 555 551 574 q 593 496 593 536 q 572 438 593 457 q 524 418 551 418 q 474 438 494 418 q 453 496 453 457 q 474 555 453 536 q 524 574 494 574 z "},"ŀ":{"ha":372,"x_min":110,"x_max":429,"o":"m 231 0 l 110 0 l 110 1056 l 231 1056 l 231 0 m 360 604 q 408 585 388 604 q 429 526 429 567 q 408 468 429 488 q 360 449 388 449 q 310 468 331 449 q 289 526 289 488 q 310 585 289 567 q 360 604 331 604 z "},"Ł":{"ha":688,"x_min":15,"x_max":654,"o":"m 125 0 l 125 343 l 63 304 l 15 388 l 125 457 l 125 992 l 249 992 l 249 531 l 421 643 l 471 556 l 249 417 l 249 111 l 654 111 l 654 0 l 125 0 z "},"ł":{"ha":340,"x_min":-12,"x_max":353,"o":"m 101 0 l 101 396 l 36 351 l -12 433 l 101 511 l 101 1056 l 222 1056 l 222 590 l 303 651 l 353 569 l 222 475 l 222 0 l 101 0 z "},"Ń":{"ha":999,"x_min":126,"x_max":872,"o":"m 872 0 l 726 0 l 235 824 l 229 824 q 233 768 231 799 q 236 702 235 738 q 239 629 238 667 q 240 554 240 592 l 240 0 l 126 0 l 126 992 l 271 992 l 761 171 l 767 171 q 764 217 765 188 q 761 284 763 247 q 758 360 760 321 q 757 432 757 399 l 757 992 l 872 992 l 872 0 z "},"ń":{"ha":811,"x_min":110,"x_max":706,"o":"m 451 758 q 641 694 576 758 q 706 485 706 629 l 706 0 l 585 0 l 585 476 q 547 611 585 567 q 432 656 510 656 q 274 586 318 656 q 231 386 231 517 l 231 0 l 110 0 l 110 744 l 207 744 l 225 643 l 232 643 q 289 708 254 682 q 365 746 324 733 q 451 758 407 758 z "},"Ņ":{"ha":999,"x_min":126,"x_max":872,"o":"m 872 0 l 726 0 l 235 824 l 229 824 q 233 768 231 799 q 236 702 235 738 q 239 629 238 667 q 240 554 240 592 l 240 0 l 126 0 l 126 992 l 271 992 l 761 171 l 767 171 q 764 217 765 188 q 761 284 763 247 q 758 360 760 321 q 757 432 757 399 l 757 992 l 872 992 l 872 0 m 567 -97 q 545 -160 561 -122 q 508 -237 529 -199 q 463 -307 486 -276 l 396 -307 l 396 -290 q 417 -230 406 -267 q 437 -153 428 -193 q 449 -85 446 -114 l 567 -85 l 567 -97 z "},"ņ":{"ha":811,"x_min":110,"x_max":706,"o":"m 451 758 q 641 694 576 758 q 706 485 706 629 l 706 0 l 585 0 l 585 476 q 547 611 585 567 q 432 656 510 656 q 274 586 318 656 q 231 386 231 517 l 231 0 l 110 0 l 110 744 l 207 744 l 225 643 l 232 643 q 289 708 254 682 q 365 746 324 733 q 451 758 407 758 m 474 -97 q 452 -160 468 -122 q 415 -237 436 -199 q 369 -307 393 -276 l 303 -307 l 303 -290 q 324 -230 313 -267 q 344 -153 335 -193 q 356 -85 353 -114 l 474 -85 l 474 -97 z "},"Ň":{"ha":999,"x_min":126,"x_max":872,"o":"m 872 0 l 726 0 l 235 824 l 229 824 q 233 768 231 799 q 236 702 235 738 q 239 629 238 667 q 240 554 240 592 l 240 0 l 126 0 l 126 992 l 271 992 l 761 171 l 767 171 q 764 217 765 188 q 761 284 763 247 q 758 360 760 321 q 757 432 757 399 l 757 992 l 872 992 l 872 0 z "},"ň":{"ha":811,"x_min":110,"x_max":706,"o":"m 451 758 q 641 694 576 758 q 706 485 706 629 l 706 0 l 585 0 l 585 476 q 547 611 585 567 q 432 656 510 656 q 274 586 318 656 q 231 386 231 517 l 231 0 l 110 0 l 110 744 l 207 744 l 225 643 l 232 643 q 289 708 254 682 q 365 746 324 733 q 451 758 407 758 z "},"ŉ":{"ha":956,"x_min":0,"x_max":850,"o":"m 596 758 q 785 694 721 758 q 850 485 850 629 l 850 0 l 729 0 l 729 476 q 692 611 729 567 q 576 656 654 656 q 419 586 463 656 q 375 386 375 517 l 375 0 l 254 0 l 254 744 l 351 744 l 369 643 l 376 643 q 433 708 399 682 q 510 746 468 733 q 596 758 551 758 m 201 976 q 172 871 190 928 q 131 758 153 814 q 89 651 110 701 l 0 651 q 19 735 10 690 q 38 824 29 779 q 53 913 46 869 q 65 992 61 956 l 192 992 l 201 976 z "},"Ŋ":{"ha":999,"x_min":126,"x_max":872,"o":"m 622 -264 q 565 -259 590 -264 q 521 -246 540 -254 l 521 -140 q 567 -150 542 -146 q 621 -154 593 -154 q 686 -141 656 -154 q 737 -94 717 -128 q 757 0 757 -60 l 235 824 l 229 824 q 233 770 231 803 q 236 698 235 738 q 239 617 238 658 q 240 538 240 575 l 240 0 l 126 0 l 126 992 l 271 992 l 761 197 l 767 197 q 763 251 765 219 q 760 320 761 283 q 758 397 758 357 q 757 475 757 436 l 757 992 l 872 992 l 872 8 q 842 -145 872 -85 q 755 -235 811 -206 q 622 -264 699 -264 z "},"ŋ":{"ha":811,"x_min":110,"x_max":707,"o":"m 515 -333 q 461 -328 485 -333 q 421 -317 438 -324 l 421 -218 q 457 -228 439 -224 q 499 -232 475 -232 q 560 -208 535 -232 q 585 -115 585 -183 l 585 478 q 548 612 585 568 q 433 656 511 656 q 313 625 357 656 q 249 535 268 594 q 231 388 231 475 l 231 0 l 110 0 l 110 744 l 207 744 l 225 643 l 232 643 q 290 708 256 682 q 365 746 324 733 q 450 758 406 758 q 593 730 536 758 q 678 642 650 701 q 707 486 707 582 l 707 -111 q 687 -231 707 -181 q 624 -307 667 -281 q 515 -333 582 -333 z "},"Ō":{"ha":1021,"x_min":79,"x_max":942,"o":"m 942 497 q 914 288 942 382 q 832 126 886 194 q 697 22 778 58 q 511 -14 617 -14 q 320 23 401 -14 q 185 127 239 60 q 106 289 132 194 q 79 499 79 383 q 126 765 79 651 q 270 943 174 879 q 513 1007 367 1007 q 749 944 653 1007 q 893 766 844 881 q 942 497 942 651 m 210 497 q 242 282 210 372 q 341 143 274 192 q 511 94 408 94 q 682 143 615 94 q 780 282 749 192 q 811 497 811 372 q 740 791 811 685 q 513 897 668 897 q 341 849 408 897 q 242 712 274 801 q 210 497 210 622 z "},"ō":{"ha":792,"x_min":71,"x_max":722,"o":"m 722 374 q 699 209 722 281 q 633 88 676 138 q 529 12 590 38 q 393 -14 468 -14 q 265 12 324 -14 q 162 88 206 38 q 94 209 118 138 q 71 374 71 281 q 110 583 71 497 q 224 713 150 668 q 397 758 297 758 q 566 713 493 758 q 681 583 639 668 q 722 374 722 497 m 196 374 q 217 222 196 286 q 282 122 238 157 q 396 88 326 88 q 510 122 465 88 q 576 222 554 157 q 597 374 597 286 q 576 525 597 463 q 510 622 554 588 q 394 656 465 656 q 243 581 290 656 q 196 374 196 506 z "},"Ŏ":{"ha":1021,"x_min":79,"x_max":942,"o":"m 942 497 q 914 288 942 382 q 832 126 886 194 q 697 22 778 58 q 511 -14 617 -14 q 320 23 401 -14 q 185 127 239 60 q 106 289 132 194 q 79 499 79 383 q 126 765 79 651 q 270 943 174 879 q 513 1007 367 1007 q 749 944 653 1007 q 893 766 844 881 q 942 497 942 651 m 210 497 q 242 282 210 372 q 341 143 274 192 q 511 94 408 94 q 682 143 615 94 q 780 282 749 192 q 811 497 811 372 q 740 791 811 685 q 513 897 668 897 q 341 849 408 897 q 242 712 274 801 q 210 497 210 622 z "},"ŏ":{"ha":792,"x_min":71,"x_max":722,"o":"m 722 374 q 699 209 722 281 q 633 88 676 138 q 529 12 590 38 q 393 -14 468 -14 q 265 12 324 -14 q 162 88 206 38 q 94 209 118 138 q 71 374 71 281 q 110 583 71 497 q 224 713 150 668 q 397 758 297 758 q 566 713 493 758 q 681 583 639 668 q 722 374 722 497 m 196 374 q 217 222 196 286 q 282 122 238 157 q 396 88 326 88 q 510 122 465 88 q 576 222 554 157 q 597 374 597 286 q 576 525 597 463 q 510 622 554 588 q 394 656 465 656 q 243 581 290 656 q 196 374 196 506 z "},"Ő":{"ha":1021,"x_min":79,"x_max":942,"o":"m 942 497 q 914 288 942 382 q 832 126 886 194 q 697 22 778 58 q 511 -14 617 -14 q 320 23 401 -14 q 185 127 239 60 q 106 289 132 194 q 79 499 79 383 q 126 765 79 651 q 270 943 174 879 q 513 1007 367 1007 q 749 944 653 1007 q 893 766 844 881 q 942 497 942 651 m 210 497 q 242 282 210 372 q 341 143 274 192 q 511 94 408 94 q 682 143 615 94 q 780 282 749 192 q 811 497 811 372 q 740 791 811 685 q 513 897 668 897 q 341 849 408 897 q 242 712 274 801 q 210 497 210 622 z "},"ő":{"ha":792,"x_min":71,"x_max":722,"o":"m 722 374 q 699 209 722 281 q 633 88 676 138 q 529 12 590 38 q 393 -14 468 -14 q 265 12 324 -14 q 162 88 206 38 q 94 209 118 138 q 71 374 71 281 q 110 583 71 497 q 224 713 150 668 q 397 758 297 758 q 566 713 493 758 q 681 583 639 668 q 722 374 722 497 m 196 374 q 217 222 196 286 q 282 122 238 157 q 396 88 326 88 q 510 122 465 88 q 576 222 554 157 q 597 374 597 286 q 576 525 597 463 q 510 622 554 588 q 394 656 465 656 q 243 581 290 656 q 196 374 196 506 z "},"Œ":{"ha":1215,"x_min":79,"x_max":1138,"o":"m 503 1007 q 547 1005 525 1007 q 590 1000 569 1003 q 631 992 611 997 l 1138 992 l 1138 882 l 764 882 l 764 572 l 1113 572 l 1113 464 l 764 464 l 764 110 l 1138 110 l 1138 0 l 638 0 q 597 -7 618 -4 q 553 -12 575 -10 q 508 -14 531 -14 q 268 50 364 -14 q 126 229 172 114 q 79 499 79 344 q 126 767 79 653 q 266 944 172 881 q 503 1007 360 1007 m 513 897 q 377 870 435 897 q 282 791 319 843 q 226 665 244 739 q 208 497 208 592 q 241 282 208 372 q 341 143 274 192 q 511 94 408 94 q 581 101 547 94 q 642 118 615 107 l 642 875 q 582 892 615 886 q 513 897 549 897 z "},"œ":{"ha":1238,"x_min":69,"x_max":1171,"o":"m 885 757 q 1038 715 974 757 q 1136 599 1101 674 q 1171 422 1171 524 l 1171 349 l 706 349 q 762 153 708 215 q 915 90 815 90 q 1036 103 985 90 q 1139 142 1088 117 l 1139 35 q 1035 -2 1086 10 q 913 -14 983 -14 q 756 25 824 -14 q 647 140 689 64 q 540 25 607 64 q 388 -14 474 -14 q 224 31 296 -14 q 110 163 151 76 q 69 374 69 250 q 108 581 69 496 q 219 712 147 667 q 392 757 292 757 q 539 718 474 757 q 643 604 604 679 q 705 688 669 654 q 786 740 740 722 q 885 757 832 757 m 386 656 q 240 585 285 656 q 196 374 196 514 q 216 217 196 281 q 278 120 236 153 q 389 88 321 88 q 498 119 456 88 q 560 214 540 151 q 581 368 581 276 q 560 528 581 465 q 497 624 539 592 q 386 656 454 656 m 883 657 q 761 603 807 657 q 708 446 715 549 l 1044 446 q 1028 557 1044 510 q 976 631 1011 604 q 883 657 940 657 z "},"Ŕ":{"ha":817,"x_min":126,"x_max":799,"o":"m 385 992 q 577 960 501 992 q 690 867 653 929 q 726 710 726 804 q 699 578 726 631 q 630 494 672 525 q 540 444 588 463 l 799 0 l 654 0 l 429 410 l 250 410 l 250 0 l 126 0 l 126 992 l 385 992 m 378 883 l 250 883 l 250 515 l 383 515 q 506 537 458 515 q 576 600 554 558 q 599 704 599 642 q 575 808 599 769 q 502 865 551 847 q 378 883 453 883 z "},"ŕ":{"ha":543,"x_min":110,"x_max":532,"o":"m 442 758 q 483 756 461 758 q 522 750 506 754 l 508 638 q 472 644 492 642 q 433 647 451 647 q 357 629 393 647 q 292 578 321 611 q 247 500 264 546 q 231 397 231 454 l 231 0 l 110 0 l 110 744 l 208 744 l 222 608 l 228 608 q 281 684 250 650 q 353 738 313 718 q 442 758 393 758 z "},"Ŗ":{"ha":817,"x_min":126,"x_max":799,"o":"m 385 992 q 577 960 501 992 q 690 867 653 929 q 726 710 726 804 q 699 578 726 631 q 630 494 672 525 q 540 444 588 463 l 799 0 l 654 0 l 429 410 l 250 410 l 250 0 l 126 0 l 126 992 l 385 992 m 378 883 l 250 883 l 250 515 l 383 515 q 506 537 458 515 q 576 600 554 558 q 599 704 599 642 q 575 808 599 769 q 502 865 551 847 q 378 883 453 883 m 500 -97 q 478 -160 494 -122 q 441 -237 463 -199 q 396 -307 419 -276 l 329 -307 l 329 -290 q 350 -230 339 -267 q 370 -153 361 -193 q 382 -85 379 -114 l 500 -85 l 500 -97 z "},"ŗ":{"ha":543,"x_min":64,"x_max":522,"o":"m 442 758 q 483 756 461 758 q 522 750 506 754 l 508 638 q 472 644 492 642 q 433 647 451 647 q 357 629 393 647 q 292 578 321 611 q 247 500 264 546 q 231 397 231 454 l 231 0 l 110 0 l 110 744 l 208 744 l 222 608 l 228 608 q 281 684 250 650 q 353 738 313 718 q 442 758 393 758 m 235 -97 q 213 -160 229 -122 q 176 -237 197 -199 q 131 -307 154 -276 l 64 -307 l 64 -290 q 85 -230 74 -267 q 105 -153 96 -193 q 117 -85 114 -114 l 235 -85 l 235 -97 z "},"Ř":{"ha":817,"x_min":126,"x_max":799,"o":"m 385 992 q 577 960 501 992 q 690 867 653 929 q 726 710 726 804 q 699 578 726 631 q 630 494 672 525 q 540 444 588 463 l 799 0 l 654 0 l 429 410 l 250 410 l 250 0 l 126 0 l 126 992 l 385 992 m 378 883 l 250 883 l 250 515 l 383 515 q 506 537 458 515 q 576 600 554 558 q 599 704 599 642 q 575 808 599 769 q 502 865 551 847 q 378 883 453 883 z "},"ř":{"ha":543,"x_min":103,"x_max":553,"o":"m 442 758 q 483 756 461 758 q 522 750 506 754 l 508 638 q 472 644 492 642 q 433 647 451 647 q 357 629 393 647 q 292 578 321 611 q 247 500 264 546 q 231 397 231 454 l 231 0 l 110 0 l 110 744 l 208 744 l 222 608 l 228 608 q 281 684 250 650 q 353 738 313 718 q 442 758 393 758 z "},"Ś":{"ha":718,"x_min":67,"x_max":657,"o":"m 657 265 q 616 115 657 176 q 501 19 575 53 q 324 -14 426 -14 q 224 -8 272 -14 q 137 8 176 -3 q 67 33 97 18 l 67 153 q 185 113 115 131 q 329 94 256 94 q 442 114 397 94 q 510 169 488 133 q 533 254 533 206 q 513 336 533 303 q 446 398 493 369 q 317 458 399 426 q 187 528 240 489 q 106 622 133 567 q 78 753 78 676 q 116 888 78 832 q 222 975 154 944 q 378 1006 289 1006 q 518 990 454 1006 q 636 950 582 975 l 597 843 q 491 881 547 865 q 375 896 435 896 q 280 878 318 896 q 222 827 242 860 q 203 751 203 794 q 222 668 203 701 q 286 608 242 635 q 404 551 331 582 q 542 483 486 519 q 628 394 599 446 q 657 265 657 343 z "},"ś":{"ha":628,"x_min":67,"x_max":569,"o":"m 569 206 q 535 85 569 133 q 439 11 501 36 q 289 -14 376 -14 q 162 -1 215 -14 q 68 33 108 11 l 68 144 q 171 103 111 122 q 292 85 231 85 q 415 115 376 85 q 453 194 453 144 q 438 244 453 222 q 387 289 424 267 q 281 339 350 311 q 166 394 214 367 q 92 461 118 422 q 67 561 67 500 q 140 707 67 656 q 331 758 213 758 q 450 745 394 758 q 556 708 506 732 l 515 611 q 454 635 486 625 q 390 652 422 646 q 324 658 357 658 q 219 634 256 658 q 183 568 183 610 q 200 515 183 538 q 255 473 217 493 q 360 426 293 453 q 474 372 426 400 q 545 305 521 344 q 569 206 569 265 z "},"Ŝ":{"ha":718,"x_min":67,"x_max":657,"o":"m 657 265 q 616 115 657 176 q 501 19 575 53 q 324 -14 426 -14 q 224 -8 272 -14 q 137 8 176 -3 q 67 33 97 18 l 67 153 q 185 113 115 131 q 329 94 256 94 q 442 114 397 94 q 510 169 488 133 q 533 254 533 206 q 513 336 533 303 q 446 398 493 369 q 317 458 399 426 q 187 528 240 489 q 106 622 133 567 q 78 753 78 676 q 116 888 78 832 q 222 975 154 944 q 378 1006 289 1006 q 518 990 454 1006 q 636 950 582 975 l 597 843 q 491 881 547 865 q 375 896 435 896 q 280 878 318 896 q 222 827 242 860 q 203 751 203 794 q 222 668 203 701 q 286 608 242 635 q 404 551 331 582 q 542 483 486 519 q 628 394 599 446 q 657 265 657 343 z "},"ŝ":{"ha":628,"x_min":67,"x_max":569,"o":"m 569 206 q 535 85 569 133 q 439 11 501 36 q 289 -14 376 -14 q 162 -1 215 -14 q 68 33 108 11 l 68 144 q 171 103 111 122 q 292 85 231 85 q 415 115 376 85 q 453 194 453 144 q 438 244 453 222 q 387 289 424 267 q 281 339 350 311 q 166 394 214 367 q 92 461 118 422 q 67 561 67 500 q 140 707 67 656 q 331 758 213 758 q 450 745 394 758 q 556 708 506 732 l 515 611 q 454 635 486 625 q 390 652 422 646 q 324 658 357 658 q 219 634 256 658 q 183 568 183 610 q 200 515 183 538 q 255 473 217 493 q 360 426 293 453 q 474 372 426 400 q 545 305 521 344 q 569 206 569 265 z "},"Ş":{"ha":718,"x_min":67,"x_max":657,"o":"m 657 265 q 616 115 657 176 q 501 19 575 53 q 324 -14 426 -14 q 224 -8 272 -14 q 137 8 176 -3 q 67 33 97 18 l 67 153 q 185 113 115 131 q 329 94 256 94 q 442 114 397 94 q 510 169 488 133 q 533 254 533 206 q 513 336 533 303 q 446 398 493 369 q 317 458 399 426 q 187 528 240 489 q 106 622 133 567 q 78 753 78 676 q 116 888 78 832 q 222 975 154 944 q 378 1006 289 1006 q 518 990 454 1006 q 636 950 582 975 l 597 843 q 491 881 547 865 q 375 896 435 896 q 280 878 318 896 q 222 827 242 860 q 203 751 203 794 q 222 668 203 701 q 286 608 242 635 q 404 551 331 582 q 542 483 486 519 q 628 394 599 446 q 657 265 657 343 z "},"ş":{"ha":628,"x_min":67,"x_max":569,"o":"m 569 206 q 535 85 569 133 q 439 11 501 36 q 289 -14 376 -14 q 162 -1 215 -14 q 68 33 108 11 l 68 144 q 171 103 111 122 q 292 85 231 85 q 415 115 376 85 q 453 194 453 144 q 438 244 453 222 q 387 289 424 267 q 281 339 350 311 q 166 394 214 367 q 92 461 118 422 q 67 561 67 500 q 140 707 67 656 q 331 758 213 758 q 450 745 394 758 q 556 708 506 732 l 515 611 q 454 635 486 625 q 390 652 422 646 q 324 658 357 658 q 219 634 256 658 q 183 568 183 610 q 200 515 183 538 q 255 473 217 493 q 360 426 293 453 q 474 372 426 400 q 545 305 521 344 q 569 206 569 265 z "},"Š":{"ha":718,"x_min":67,"x_max":657,"o":"m 657 265 q 616 115 657 176 q 501 19 575 53 q 324 -14 426 -14 q 224 -8 272 -14 q 137 8 176 -3 q 67 33 97 18 l 67 153 q 185 113 115 131 q 329 94 256 94 q 442 114 397 94 q 510 169 488 133 q 533 254 533 206 q 513 336 533 303 q 446 398 493 369 q 317 458 399 426 q 187 528 240 489 q 106 622 133 567 q 78 753 78 676 q 116 888 78 832 q 222 975 154 944 q 378 1006 289 1006 q 518 990 454 1006 q 636 950 582 975 l 597 843 q 491 881 547 865 q 375 896 435 896 q 280 878 318 896 q 222 827 242 860 q 203 751 203 794 q 222 668 203 701 q 286 608 242 635 q 404 551 331 582 q 542 483 486 519 q 628 394 599 446 q 657 265 657 343 z "},"š":{"ha":628,"x_min":67,"x_max":569,"o":"m 569 206 q 535 85 569 133 q 439 11 501 36 q 289 -14 376 -14 q 162 -1 215 -14 q 68 33 108 11 l 68 144 q 171 103 111 122 q 292 85 231 85 q 415 115 376 85 q 453 194 453 144 q 438 244 453 222 q 387 289 424 267 q 281 339 350 311 q 166 394 214 367 q 92 461 118 422 q 67 561 67 500 q 140 707 67 656 q 331 758 213 758 q 450 745 394 758 q 556 708 506 732 l 515 611 q 454 635 486 625 q 390 652 422 646 q 324 658 357 658 q 219 634 256 658 q 183 568 183 610 q 200 515 183 538 q 255 473 217 493 q 360 426 293 453 q 474 372 426 400 q 545 305 521 344 q 569 206 569 265 z "},"Ț":{"ha":728,"x_min":14,"x_max":713,"o":"m 426 0 l 303 0 l 303 882 l 14 882 l 14 992 l 713 992 l 713 882 l 426 882 l 426 0 m 432 -97 q 410 -160 426 -122 q 373 -237 394 -199 q 328 -307 351 -276 l 261 -307 l 261 -290 q 282 -230 271 -267 q 302 -153 293 -193 q 314 -85 311 -114 l 432 -85 l 432 -97 z "},"ț":{"ha":479,"x_min":22,"x_max":450,"o":"m 350 86 q 404 91 376 86 q 450 101 432 96 l 450 8 q 395 -8 431 -1 q 328 -14 360 -14 q 225 6 272 -14 q 149 76 178 26 q 121 217 121 126 l 121 650 l 22 650 l 22 708 l 124 757 l 169 915 l 242 915 l 242 744 l 444 744 l 444 650 l 242 650 l 242 219 q 272 119 242 151 q 350 86 303 86 m 351 -97 q 330 -160 346 -122 q 292 -237 314 -199 q 247 -307 271 -276 l 181 -307 l 181 -290 q 201 -230 190 -267 q 222 -153 213 -193 q 233 -85 231 -114 l 351 -85 l 351 -97 z "},"Ť":{"ha":728,"x_min":14,"x_max":713,"o":"m 426 0 l 303 0 l 303 882 l 14 882 l 14 992 l 713 992 l 713 882 l 426 882 l 426 0 z "},"ť":{"ha":479,"x_min":22,"x_max":629,"o":"m 629 1043 q 608 981 624 1018 q 574 903 593 943 q 535 833 554 864 l 468 833 l 468 850 q 481 896 475 869 q 493 951 488 922 q 503 1006 499 979 q 511 1056 508 1033 l 629 1056 l 629 1043 m 350 86 q 404 91 376 86 q 450 101 432 96 l 450 8 q 395 -8 431 -1 q 328 -14 360 -14 q 225 6 272 -14 q 149 76 178 26 q 121 217 121 126 l 121 650 l 22 650 l 22 708 l 124 757 l 169 915 l 242 915 l 242 744 l 444 744 l 444 650 l 242 650 l 242 219 q 272 119 242 151 q 350 86 303 86 z "},"Ŧ":{"ha":728,"x_min":14,"x_max":713,"o":"m 301 0 l 301 451 l 110 451 l 110 554 l 301 554 l 301 881 l 14 881 l 14 992 l 713 992 l 713 881 l 425 881 l 425 554 l 615 554 l 615 451 l 425 451 l 425 0 l 301 0 z "},"ŧ":{"ha":501,"x_min":22,"x_max":453,"o":"m 33 389 l 33 481 l 453 481 l 453 389 l 33 389 m 350 86 q 404 91 376 86 q 450 101 432 96 l 450 8 q 395 -8 431 -1 q 328 -14 360 -14 q 225 6 272 -14 q 149 76 178 26 q 121 217 121 126 l 121 650 l 22 650 l 22 708 l 124 757 l 169 915 l 242 915 l 242 744 l 444 744 l 444 650 l 242 650 l 242 219 q 272 119 242 151 q 350 86 303 86 z "},"Ũ":{"ha":957,"x_min":117,"x_max":839,"o":"m 839 350 q 799 165 839 247 q 678 34 760 82 q 474 -14 597 -14 q 208 87 299 -14 q 117 353 117 188 l 117 992 l 240 992 l 240 349 q 300 161 240 228 q 481 94 360 94 q 615 127 564 94 q 691 217 667 160 q 715 350 715 275 l 715 992 l 839 992 l 839 350 z "},"ũ":{"ha":810,"x_min":103,"x_max":700,"o":"m 700 744 l 700 0 l 603 0 l 585 99 l 579 99 q 522 35 557 60 q 444 -2 486 10 q 357 -14 403 -14 q 217 15 274 -14 q 131 103 160 43 q 103 257 103 163 l 103 744 l 225 744 l 225 265 q 263 132 225 176 q 378 88 300 88 q 498 119 454 88 q 560 210 542 150 q 579 357 579 271 l 579 744 l 700 744 z "},"Ū":{"ha":957,"x_min":117,"x_max":839,"o":"m 839 350 q 799 165 839 247 q 678 34 760 82 q 474 -14 597 -14 q 208 87 299 -14 q 117 353 117 188 l 117 992 l 240 992 l 240 349 q 300 161 240 228 q 481 94 360 94 q 615 127 564 94 q 691 217 667 160 q 715 350 715 275 l 715 992 l 839 992 l 839 350 z "},"ū":{"ha":810,"x_min":103,"x_max":700,"o":"m 700 744 l 700 0 l 603 0 l 585 99 l 579 99 q 522 35 557 60 q 444 -2 486 10 q 357 -14 403 -14 q 217 15 274 -14 q 131 103 160 43 q 103 257 103 163 l 103 744 l 225 744 l 225 265 q 263 132 225 176 q 378 88 300 88 q 498 119 454 88 q 560 210 542 150 q 579 357 579 271 l 579 744 l 700 744 z "},"Ŭ":{"ha":957,"x_min":117,"x_max":839,"o":"m 839 350 q 799 165 839 247 q 678 34 760 82 q 474 -14 597 -14 q 208 87 299 -14 q 117 353 117 188 l 117 992 l 240 992 l 240 349 q 300 161 240 228 q 481 94 360 94 q 615 127 564 94 q 691 217 667 160 q 715 350 715 275 l 715 992 l 839 992 l 839 350 z "},"ŭ":{"ha":810,"x_min":103,"x_max":700,"o":"m 700 744 l 700 0 l 603 0 l 585 99 l 579 99 q 522 35 557 60 q 444 -2 486 10 q 357 -14 403 -14 q 217 15 274 -14 q 131 103 160 43 q 103 257 103 163 l 103 744 l 225 744 l 225 265 q 263 132 225 176 q 378 88 300 88 q 498 119 454 88 q 560 210 542 150 q 579 357 579 271 l 579 744 l 700 744 z "},"Ů":{"ha":957,"x_min":117,"x_max":839,"o":"m 839 350 q 799 165 839 247 q 678 34 760 82 q 474 -14 597 -14 q 208 87 299 -14 q 117 353 117 188 l 117 992 l 240 992 l 240 349 q 300 161 240 228 q 481 94 360 94 q 615 127 564 94 q 691 217 667 160 q 715 350 715 275 l 715 992 l 839 992 l 839 350 z "},"ů":{"ha":810,"x_min":103,"x_max":700,"o":"m 700 744 l 700 0 l 603 0 l 585 99 l 579 99 q 522 35 557 60 q 444 -2 486 10 q 357 -14 403 -14 q 217 15 274 -14 q 131 103 160 43 q 103 257 103 163 l 103 744 l 225 744 l 225 265 q 263 132 225 176 q 378 88 300 88 q 498 119 454 88 q 560 210 542 150 q 579 357 579 271 l 579 744 l 700 744 z "},"Ű":{"ha":957,"x_min":117,"x_max":839,"o":"m 839 350 q 799 165 839 247 q 678 34 760 82 q 474 -14 597 -14 q 208 87 299 -14 q 117 353 117 188 l 117 992 l 240 992 l 240 349 q 300 161 240 228 q 481 94 360 94 q 615 127 564 94 q 691 217 667 160 q 715 350 715 275 l 715 992 l 839 992 l 839 350 z "},"ű":{"ha":810,"x_min":103,"x_max":700,"o":"m 700 744 l 700 0 l 603 0 l 585 99 l 579 99 q 522 35 557 60 q 444 -2 486 10 q 357 -14 403 -14 q 217 15 274 -14 q 131 103 160 43 q 103 257 103 163 l 103 744 l 225 744 l 225 265 q 263 132 225 176 q 378 88 300 88 q 498 119 454 88 q 560 210 542 150 q 579 357 579 271 l 579 744 l 700 744 z "},"Ų":{"ha":1015,"x_min":117,"x_max":839,"o":"m 604 -149 q 621 -206 604 -189 q 667 -224 638 -224 q 706 -220 690 -224 q 733 -215 722 -217 l 733 -293 q 694 -302 714 -299 q 647 -306 675 -306 q 539 -269 574 -306 q 504 -162 504 -233 q 526 -76 504 -118 q 581 1 549 -33 q 640 56 613 36 l 728 71 q 658 -14 686 24 q 617 -83 631 -51 q 604 -149 604 -115 m 839 350 q 799 165 839 247 q 678 34 760 82 q 474 -14 597 -14 q 208 87 299 -14 q 117 353 117 188 l 117 992 l 240 992 l 240 349 q 300 161 240 228 q 481 94 360 94 q 615 127 564 94 q 691 217 667 160 q 715 350 715 275 l 715 992 l 839 992 l 839 350 z "},"ų":{"ha":810,"x_min":103,"x_max":722,"o":"m 700 744 l 700 0 l 603 0 l 585 99 l 579 99 q 522 35 557 60 q 444 -2 486 10 q 357 -14 403 -14 q 217 15 274 -14 q 131 103 160 43 q 103 257 103 163 l 103 744 l 225 744 l 225 265 q 263 132 225 176 q 378 88 300 88 q 498 119 454 88 q 560 210 542 150 q 579 357 579 271 l 579 744 l 700 744 m 601 -161 q 617 -208 601 -192 q 660 -224 633 -224 q 697 -220 681 -224 q 722 -215 713 -217 l 722 -293 q 685 -302 704 -299 q 640 -306 667 -306 q 564 -290 594 -306 q 519 -245 533 -275 q 504 -175 504 -215 q 524 -97 504 -135 q 572 -29 543 -60 q 626 21 600 1 l 690 0 q 624 -81 647 -44 q 601 -161 601 -118 z "},"Ŵ":{"ha":1217,"x_min":14,"x_max":1201,"o":"m 1201 992 l 954 0 l 828 0 l 651 650 q 635 710 643 679 q 621 768 628 740 q 610 816 614 796 q 604 846 606 836 q 599 816 603 836 q 589 768 594 796 q 576 709 583 740 q 560 646 568 678 l 388 0 l 260 0 l 14 992 l 143 992 l 286 386 q 304 303 296 344 q 319 223 313 261 q 329 150 325 185 q 342 227 335 186 q 358 310 349 268 q 379 393 368 351 l 540 992 l 668 992 l 836 389 q 858 303 849 346 q 874 221 867 260 q 886 150 882 182 q 897 223 890 185 q 913 303 904 261 q 932 388 922 344 l 1074 992 l 1201 992 z "},"ŵ":{"ha":1032,"x_min":14,"x_max":1018,"o":"m 568 421 q 538 533 553 478 q 518 618 524 588 l 513 618 q 494 533 507 588 q 464 419 481 478 l 343 1 l 207 1 l 14 746 l 139 746 l 235 349 q 253 267 244 308 q 269 190 263 226 q 279 126 276 153 l 285 126 q 297 185 289 150 q 313 258 304 219 q 331 326 322 296 l 451 746 l 585 746 l 701 326 q 720 258 711 294 q 737 188 729 222 q 747 128 744 154 l 751 128 q 769 224 756 163 q 799 349 783 285 l 896 746 l 1018 746 l 824 1 l 683 1 l 568 421 z "},"Ŷ":{"ha":744,"x_min":0,"x_max":744,"o":"m 372 504 l 611 992 l 744 992 l 435 385 l 435 0 l 311 0 l 311 379 l 0 992 l 135 992 l 372 504 z "},"ŷ":{"ha":672,"x_min":1,"x_max":672,"o":"m 1 744 l 132 744 l 281 321 q 306 249 294 283 q 325 181 317 214 q 338 118 333 149 l 342 118 q 366 209 350 153 q 400 322 382 265 l 540 744 l 672 744 l 371 -103 q 312 -224 346 -172 q 229 -305 278 -276 q 113 -333 181 -333 q 58 -330 82 -333 q 17 -322 33 -326 l 17 -225 q 51 -231 31 -228 q 94 -233 72 -233 q 164 -217 135 -233 q 214 -172 193 -201 q 249 -101 235 -142 l 283 -3 l 1 744 z "},"Ÿ":{"ha":744,"x_min":0,"x_max":744,"o":"m 372 504 l 611 992 l 744 992 l 435 385 l 435 0 l 311 0 l 311 379 l 0 992 l 135 992 l 372 504 z "},"Ź":{"ha":749,"x_min":49,"x_max":699,"o":"m 699 0 l 49 0 l 49 94 l 536 881 l 64 881 l 64 992 l 686 992 l 686 897 l 199 111 l 699 111 l 699 0 z "},"ź":{"ha":615,"x_min":50,"x_max":565,"o":"m 565 0 l 50 0 l 50 81 l 422 650 l 72 650 l 72 744 l 557 744 l 557 653 l 189 94 l 565 94 l 565 0 z "},"Ż":{"ha":749,"x_min":49,"x_max":699,"o":"m 699 0 l 49 0 l 49 94 l 536 881 l 64 881 l 64 992 l 686 992 l 686 897 l 199 111 l 699 111 l 699 0 z "},"ż":{"ha":615,"x_min":50,"x_max":565,"o":"m 565 0 l 50 0 l 50 81 l 422 650 l 72 650 l 72 744 l 557 744 l 557 653 l 189 94 l 565 94 l 565 0 z "},"Ž":{"ha":749,"x_min":49,"x_max":699,"o":"m 699 0 l 49 0 l 49 94 l 536 881 l 64 881 l 64 992 l 686 992 l 686 897 l 199 111 l 699 111 l 699 0 z "},"ž":{"ha":615,"x_min":50,"x_max":565,"o":"m 565 0 l 50 0 l 50 81 l 422 650 l 72 650 l 72 744 l 557 744 l 557 653 l 189 94 l 565 94 l 565 0 z "},"ſ":{"ha":431,"x_min":110,"x_max":476,"o":"m 343 961 q 260 925 290 961 q 231 801 231 889 l 231 0 l 110 0 l 110 801 q 138 954 110 897 q 219 1037 167 1011 q 342 1063 272 1063 q 417 1055 385 1063 q 476 1036 450 1047 l 446 940 q 398 954 425 947 q 343 961 371 961 z "},"ƒ":{"ha":564,"x_min":-22,"x_max":621,"o":"m 168 -336 q 27 -286 76 -336 q -22 -162 -22 -236 q -19 -126 -22 -143 q -12 -97 -17 -110 l 93 -119 q 91 -135 92 -126 q 90 -151 90 -143 q 110 -211 90 -190 q 168 -232 129 -232 q 232 -197 213 -232 q 251 -104 251 -161 l 251 650 l 131 650 l 131 707 l 251 749 l 251 792 q 278 947 251 888 q 357 1035 306 1007 q 481 1063 408 1063 q 559 1055 524 1063 q 621 1038 594 1047 l 589 942 q 540 956 567 949 q 483 963 513 963 q 401 922 428 963 q 374 793 374 881 l 374 744 l 549 744 l 549 650 l 374 650 l 374 -118 q 353 -227 374 -178 q 287 -306 332 -276 q 168 -336 242 -336 z "},"Ǻ":{"ha":840,"x_min":0,"x_max":840,"o":"m 336 844 q 290 894 307 863 q 274 969 274 926 q 314 1078 274 1039 q 418 1117 354 1117 q 522 1078 479 1117 q 565 971 565 1040 q 549 896 565 928 q 506 846 533 864 l 840 0 l 713 0 l 608 267 l 226 267 l 128 0 l 0 0 l 336 844 m 268 378 l 574 378 l 467 665 q 452 706 461 682 q 435 755 443 729 q 419 806 426 781 q 408 767 414 788 q 395 728 401 747 q 383 692 389 708 q 374 664 378 675 l 268 378 m 418 892 q 470 912 450 892 q 490 969 490 932 q 470 1027 490 1007 q 418 1047 450 1047 q 367 1027 388 1047 q 346 969 346 1007 q 365 913 346 933 q 418 892 383 892 m 356 1164 q 394 1215 374 1186 q 434 1275 415 1244 q 467 1331 453 1306 l 611 1331 l 611 1319 q 581 1282 601 1304 q 535 1235 560 1260 q 484 1189 510 1211 q 436 1151 458 1167 l 356 1151 l 356 1164 z "},"ǻ":{"ha":738,"x_min":60,"x_max":632,"o":"m 378 757 q 569 697 506 757 q 632 507 632 638 l 632 0 l 544 0 l 521 106 l 515 106 q 453 38 485 65 q 381 -1 422 11 q 281 -14 340 -14 q 168 10 218 -14 q 89 83 118 33 q 60 207 60 132 q 142 378 60 318 q 394 444 224 439 l 513 449 l 513 493 q 476 622 513 586 q 371 658 439 658 q 267 641 317 658 q 174 601 218 624 l 136 693 q 246 738 183 719 q 378 757 308 757 m 411 360 q 234 315 283 354 q 185 206 185 276 q 219 114 185 143 q 310 85 254 85 q 414 108 368 85 q 486 178 460 131 q 513 297 513 225 l 513 364 l 411 360 m 374 1067 q 322 1046 343 1067 q 301 989 301 1025 q 320 932 301 953 q 374 911 339 911 q 426 932 406 911 q 446 989 446 953 q 426 1046 446 1025 q 374 1067 406 1067 m 374 1135 q 449 1117 415 1135 q 501 1068 482 1100 q 521 990 521 1036 q 479 881 521 919 q 374 842 438 842 q 270 881 310 842 q 231 989 231 919 q 270 1097 231 1058 q 374 1135 310 1135 m 586 1322 q 535 1281 572 1307 q 457 1231 499 1256 q 386 1189 415 1206 l 300 1189 l 300 1200 q 340 1240 319 1218 q 378 1287 360 1263 q 411 1331 397 1311 l 586 1331 l 586 1322 z "},"Ǽ":{"ha":1157,"x_min":-1,"x_max":1079,"o":"m 1079 0 l 588 0 l 588 307 l 263 307 l 126 0 l -1 0 l 439 992 l 1079 992 l 1079 882 l 711 882 l 711 572 l 1054 572 l 1054 464 l 711 464 l 711 110 l 1079 110 l 1079 0 m 310 418 l 588 418 l 588 881 l 511 881 l 310 418 z "},"ǽ":{"ha":1133,"x_min":60,"x_max":1068,"o":"m 792 758 q 938 717 876 758 q 1034 600 1000 675 q 1068 425 1068 525 l 1068 350 l 619 350 q 673 153 622 217 q 819 90 724 90 q 935 103 885 90 q 1036 142 985 117 l 1036 35 q 933 -2 985 10 q 815 -14 882 -14 q 705 3 756 -14 q 615 56 654 21 q 549 143 576 92 q 483 60 518 96 q 399 6 447 25 q 282 -14 350 -14 q 169 10 219 -14 q 89 83 118 33 q 60 207 60 132 q 94 333 60 282 q 200 413 129 385 q 378 444 271 442 l 496 449 l 496 496 q 457 622 496 586 q 353 658 418 658 q 251 642 301 658 q 157 601 200 625 l 119 693 q 232 739 167 721 q 361 757 297 757 q 496 728 443 757 q 576 638 549 700 q 666 726 611 694 q 792 758 721 758 m 397 360 q 231 315 278 354 q 185 206 185 276 q 217 114 185 143 q 304 85 250 85 q 401 108 358 85 q 468 178 443 131 q 493 297 493 225 l 493 364 l 397 360 m 790 658 q 672 603 715 658 q 621 446 628 549 l 942 446 q 925 558 942 510 q 875 632 908 606 q 790 658 842 658 z "},"Ǿ":{"ha":1021,"x_min":79,"x_max":942,"o":"m 942 497 q 914 288 942 382 q 832 126 886 194 q 697 22 778 58 q 511 -14 617 -14 q 378 3 439 -14 q 272 51 318 19 l 210 -43 l 128 13 l 194 115 q 108 281 136 183 q 79 499 79 378 q 126 765 79 651 q 270 943 174 879 q 513 1007 367 1007 q 638 990 581 1007 q 743 944 696 974 l 803 1036 l 885 979 l 819 881 q 910 717 879 814 q 942 497 942 619 m 811 497 q 795 656 811 585 q 747 778 779 726 l 338 147 q 415 108 371 122 q 511 94 458 94 q 682 143 615 94 q 780 282 749 192 q 811 497 811 372 m 210 497 q 224 343 210 413 q 269 222 239 274 l 678 849 q 604 885 646 872 q 513 897 563 897 q 341 849 408 897 q 242 712 274 801 q 210 497 210 622 z "},"ǿ":{"ha":792,"x_min":71,"x_max":722,"o":"m 722 374 q 682 163 722 250 q 568 31 642 76 q 393 -14 494 -14 q 304 -2 346 -14 q 226 32 263 10 l 175 -46 l 97 8 l 156 94 q 93 215 115 144 q 71 374 71 285 q 158 658 71 558 q 397 758 246 758 q 489 745 446 758 q 568 708 532 732 l 617 786 l 696 733 l 639 646 q 700 528 678 597 q 722 374 722 460 m 196 374 q 203 276 196 321 q 225 196 210 231 l 507 621 q 456 647 485 638 q 394 656 428 656 q 243 581 290 656 q 196 374 196 506 m 597 374 q 590 468 597 425 q 568 544 583 511 l 288 119 q 338 96 310 104 q 396 88 365 88 q 510 122 465 88 q 576 222 554 157 q 597 374 597 286 z "},"Ș":{"ha":718,"x_min":67,"x_max":657,"o":"m 657 265 q 616 115 657 176 q 501 19 575 53 q 324 -14 426 -14 q 224 -8 272 -14 q 137 8 176 -3 q 67 33 97 18 l 67 153 q 185 113 115 131 q 329 94 256 94 q 442 114 397 94 q 510 169 488 133 q 533 254 533 206 q 513 336 533 303 q 446 398 493 369 q 317 458 399 426 q 187 528 240 489 q 106 622 133 567 q 78 753 78 676 q 116 888 78 832 q 222 975 154 944 q 378 1006 289 1006 q 518 990 454 1006 q 636 950 582 975 l 597 843 q 491 881 547 865 q 375 896 435 896 q 280 878 318 896 q 222 827 242 860 q 203 751 203 794 q 222 668 203 701 q 286 608 242 635 q 404 551 331 582 q 542 483 486 519 q 628 394 599 446 q 657 265 657 343 m 406 -97 q 384 -160 400 -122 q 347 -237 368 -199 q 301 -307 325 -276 l 235 -307 l 235 -290 q 256 -230 244 -267 q 276 -153 267 -193 q 288 -85 285 -114 l 406 -85 l 406 -97 z "},"ș":{"ha":628,"x_min":67,"x_max":569,"o":"m 569 206 q 535 85 569 133 q 439 11 501 36 q 289 -14 376 -14 q 162 -1 215 -14 q 68 33 108 11 l 68 144 q 171 103 111 122 q 292 85 231 85 q 415 115 376 85 q 453 194 453 144 q 438 244 453 222 q 387 289 424 267 q 281 339 350 311 q 166 394 214 367 q 92 461 118 422 q 67 561 67 500 q 140 707 67 656 q 331 758 213 758 q 450 745 394 758 q 556 708 506 732 l 515 611 q 454 635 486 625 q 390 652 422 646 q 324 658 357 658 q 219 634 256 658 q 183 568 183 610 q 200 515 183 538 q 255 473 217 493 q 360 426 293 453 q 474 372 426 400 q 545 305 521 344 q 569 206 569 265 m 383 -97 q 362 -160 378 -122 q 324 -237 346 -199 q 279 -307 303 -276 l 213 -307 l 213 -290 q 233 -230 222 -267 q 253 -153 244 -193 q 265 -85 263 -114 l 383 -85 l 383 -97 z "},"ˆ":{"ha":561,"x_min":56,"x_max":506,"o":"m 342 1064 q 388 995 358 1033 q 449 920 417 957 q 506 857 481 883 l 506 842 l 421 842 q 350 897 386 864 q 278 967 314 929 q 208 897 243 929 q 138 842 172 865 l 56 842 l 56 857 q 111 921 81 885 q 171 995 142 957 q 217 1064 200 1033 l 342 1064 z "},"ˇ":{"ha":561,"x_min":56,"x_max":506,"o":"m 506 1046 q 449 983 481 1019 q 388 910 417 947 q 342 842 358 874 l 217 842 q 171 910 200 874 q 110 983 142 947 q 56 1046 79 1019 l 56 1064 l 138 1064 q 209 1007 172 1040 q 278 936 246 974 q 350 1007 314 974 q 421 1064 386 1040 l 506 1064 l 506 1046 z "},"ˉ":{"ha":503,"x_min":56,"x_max":447,"o":"m 447 940 l 447 842 l 56 842 l 56 940 l 447 940 z "},"˘":{"ha":525,"x_min":56,"x_max":469,"o":"m 469 1028 q 440 931 465 972 q 369 865 414 889 q 260 842 324 842 q 111 892 161 842 q 56 1028 61 943 l 129 1028 q 149 972 133 990 q 194 947 165 953 q 261 940 222 940 q 350 957 313 940 q 394 1028 388 974 l 469 1028 z "},"˙":{"ha":251,"x_min":56,"x_max":196,"o":"m 126 1024 q 175 1005 154 1024 q 196 946 196 986 q 175 888 196 907 q 126 868 154 868 q 76 888 97 868 q 56 946 56 907 q 76 1005 56 986 q 126 1024 97 1024 z "},"˚":{"ha":401,"x_min":56,"x_max":346,"o":"m 199 842 q 95 881 135 842 q 56 989 56 919 q 95 1097 56 1058 q 199 1135 135 1135 q 303 1097 261 1135 q 346 990 346 1058 q 304 881 346 919 q 199 842 263 842 m 199 911 q 251 932 231 911 q 271 989 271 953 q 251 1046 271 1025 q 199 1067 231 1067 q 147 1046 168 1067 q 126 989 126 1025 q 145 932 126 953 q 199 911 164 911 z "},"˛":{"ha":329,"x_min":56,"x_max":274,"o":"m 153 -161 q 169 -208 153 -192 q 211 -224 185 -224 q 248 -220 232 -224 q 274 -215 264 -217 l 274 -293 q 237 -302 256 -299 q 192 -306 218 -306 q 115 -290 146 -306 q 70 -245 85 -275 q 56 -175 56 -215 q 75 -97 56 -135 q 123 -29 94 -60 q 178 21 151 1 l 242 0 q 176 -81 199 -44 q 153 -161 153 -118 z "},"˜":{"ha":594,"x_min":56,"x_max":539,"o":"m 539 1021 q 493 892 531 940 q 394 843 456 843 q 340 855 367 843 q 289 883 314 867 q 240 910 264 899 q 196 922 217 922 q 149 902 165 922 q 125 842 133 882 l 56 842 q 72 916 60 883 q 101 972 83 949 q 145 1007 119 994 q 201 1019 171 1019 q 257 1008 231 1019 q 308 980 283 996 q 356 952 333 964 q 400 940 379 940 q 445 960 429 940 q 471 1021 461 981 l 539 1021 z "},"˝":{"ha":588,"x_min":56,"x_max":532,"o":"m 532 1050 q 501 1004 522 1032 q 455 946 481 976 q 403 888 429 915 q 356 842 378 861 l 288 842 l 288 858 q 326 921 306 885 q 367 995 347 957 q 401 1064 388 1033 l 532 1064 l 532 1050 m 300 1050 q 270 1004 290 1032 q 224 946 250 976 q 172 888 199 915 q 124 842 146 861 l 56 842 l 56 858 q 94 921 74 885 q 135 995 115 957 q 169 1064 156 1033 l 300 1064 l 300 1050 z "},"΄":{"ha":753,"x_min":329,"x_max":514,"o":"m 329 861 q 347 919 338 886 q 363 987 356 951 q 377 1056 371 1022 q 388 1118 383 1090 l 514 1118 l 514 1103 q 489 1026 507 1072 q 448 930 471 979 q 401 842 425 881 l 329 842 l 329 861 z "},"΅":{"ha":753,"x_min":169,"x_max":583,"o":"m 510 1150 q 475 1085 496 1121 q 431 1012 454 1049 q 382 942 407 975 l 324 942 l 324 958 q 344 1022 333 986 q 365 1094 356 1057 q 381 1164 375 1132 l 510 1164 l 510 1150 m 231 1014 q 275 998 257 1014 q 293 946 293 982 q 275 894 293 911 q 231 876 257 876 q 187 894 204 876 q 169 946 169 911 q 187 998 169 982 q 231 1014 204 1014 m 522 1014 q 565 998 546 1014 q 583 946 583 982 q 565 894 583 911 q 522 876 546 876 q 478 894 496 876 q 460 946 460 911 q 478 998 460 982 q 522 1014 496 1014 z "},"Ά":{"ha":839,"x_min":-10,"x_max":838,"o":"m 710 0 l 601 307 l 233 307 l 126 0 l 0 0 l 361 996 l 478 996 l 838 0 l 710 0 m 463 718 q 451 758 460 729 q 433 819 442 788 q 418 867 424 850 q 397 783 408 824 q 376 718 385 742 l 274 418 l 565 418 l 463 718 m -10 788 q 8 845 -1 813 q 24 913 17 878 q 38 983 32 949 q 49 1044 44 1017 l 175 1044 l 175 1029 q 150 952 168 999 q 109 856 132 906 q 63 768 86 807 l -10 768 l -10 788 z "},"·":{"ha":372,"x_min":103,"x_max":269,"o":"m 103 671 q 126 743 103 722 q 185 764 150 764 q 244 743 219 764 q 269 671 269 722 q 244 599 269 621 q 185 576 219 576 q 126 599 150 576 q 103 671 103 621 z "},"Έ":{"ha":844,"x_min":-24,"x_max":767,"o":"m 767 0 l 244 0 l 244 992 l 767 992 l 767 882 l 368 882 l 368 572 l 743 572 l 743 464 l 368 464 l 368 110 l 767 110 l 767 0 m -24 788 q -6 845 -15 813 q 10 913 3 878 q 24 983 18 949 q 35 1044 31 1017 l 161 1044 l 161 1029 q 136 952 154 999 q 95 856 118 906 q 49 768 72 807 l -24 768 l -24 788 z "},"Ή":{"ha":1089,"x_min":-24,"x_max":961,"o":"m 961 0 l 838 0 l 838 463 l 368 463 l 368 0 l 244 0 l 244 992 l 368 992 l 368 572 l 838 572 l 838 992 l 961 992 l 961 0 m -24 788 q -6 845 -15 813 q 10 913 3 878 q 24 983 18 949 q 35 1044 31 1017 l 161 1044 l 161 1029 q 136 952 154 999 q 95 856 118 906 q 49 768 72 807 l -24 768 l -24 788 z "},"Ί":{"ha":621,"x_min":-24,"x_max":568,"o":"m 568 0 l 225 0 l 225 72 l 335 99 l 335 892 l 225 919 l 225 992 l 568 992 l 568 919 l 458 892 l 458 99 l 568 72 l 568 0 m -24 788 q -6 845 -15 813 q 10 913 3 878 q 24 983 18 949 q 35 1044 31 1017 l 161 1044 l 161 1029 q 136 952 154 999 q 95 856 118 906 q 49 768 72 807 l -24 768 l -24 788 z "},"Ό":{"ha":1085,"x_min":-24,"x_max":1006,"o":"m 1006 497 q 978 288 1006 382 q 896 126 950 194 q 761 22 842 58 q 575 -14 681 -14 q 384 23 465 -14 q 249 127 303 60 q 169 289 196 194 q 143 499 143 383 q 190 765 143 651 q 334 943 238 879 q 576 1007 431 1007 q 813 944 717 1007 q 957 766 908 881 q 1006 497 1006 651 m 274 497 q 306 282 274 372 q 405 143 338 192 q 575 94 472 94 q 746 143 679 94 q 844 282 813 192 q 875 497 875 372 q 803 791 875 685 q 576 897 732 897 q 405 849 472 897 q 306 712 338 801 q 274 497 274 622 m -24 788 q -6 845 -15 813 q 10 913 3 878 q 24 983 18 949 q 35 1044 31 1017 l 161 1044 l 161 1029 q 136 952 154 999 q 95 856 118 906 q 49 768 72 807 l -24 768 l -24 788 z "},"Ύ":{"ha":960,"x_min":-24,"x_max":960,"o":"m 588 504 l 826 992 l 960 992 l 650 385 l 650 0 l 526 0 l 526 379 l 215 992 l 350 992 l 588 504 m -24 788 q -6 845 -15 813 q 10 913 3 878 q 24 983 18 949 q 35 1044 31 1017 l 161 1044 l 161 1029 q 136 952 154 999 q 95 856 118 906 q 49 768 72 807 l -24 768 l -24 788 z "},"Ώ":{"ha":1072,"x_min":-33,"x_max":1025,"o":"m 563 897 q 394 856 461 897 q 296 739 328 815 q 264 557 264 663 q 285 384 264 465 q 352 233 306 303 q 478 100 399 163 l 478 0 l 100 0 l 100 110 l 333 110 q 232 222 278 156 q 160 373 186 288 q 133 561 133 458 q 183 797 133 697 q 330 952 233 897 q 563 1007 426 1007 q 797 953 701 1007 q 942 799 892 899 q 992 563 992 699 q 965 373 992 458 q 894 222 939 288 q 794 110 850 156 l 1025 110 l 1025 0 l 647 0 l 647 100 q 774 232 728 161 q 842 384 821 303 q 863 557 863 465 q 831 739 863 663 q 732 856 799 815 q 563 897 665 897 m -33 789 q -16 847 -25 814 q 1 915 -7 879 q 15 984 8 950 q 25 1046 21 1018 l 151 1046 l 151 1031 q 126 953 144 1000 q 85 858 108 907 q 39 769 63 808 l -33 769 l -33 789 z "},"ΐ":{"ha":458,"x_min":-33,"x_max":435,"o":"m 226 219 q 251 119 226 153 q 326 86 275 86 q 385 91 354 86 q 435 101 417 96 l 435 8 q 380 -8 415 -1 q 308 -14 344 -14 q 205 6 250 -14 q 133 77 160 26 q 107 218 107 128 l 107 744 l 226 744 l 226 219 m 307 1150 q 272 1085 293 1121 q 228 1012 251 1049 q 179 942 204 975 l 121 942 l 121 958 q 142 1022 131 986 q 163 1094 153 1057 q 178 1164 172 1132 l 307 1164 l 307 1150 m 28 1014 q 72 998 54 1014 q 90 946 90 982 q 72 894 90 911 q 28 876 54 876 q -16 894 1 876 q -33 946 -33 911 q -16 998 -33 982 q 28 1014 1 1014 m 319 1014 q 362 998 343 1014 q 381 946 381 982 q 362 894 381 911 q 319 876 343 876 q 275 894 293 876 q 257 946 257 911 q 275 998 257 982 q 319 1014 293 1014 z "},"Α":{"ha":839,"x_min":0,"x_max":838,"o":"m 710 0 l 601 307 l 233 307 l 126 0 l 0 0 l 361 996 l 478 996 l 838 0 l 710 0 m 463 718 q 451 758 460 729 q 433 819 442 788 q 418 867 424 850 q 397 783 408 824 q 376 718 385 742 l 274 418 l 565 418 l 463 718 z "},"Β":{"ha":851,"x_min":126,"x_max":781,"o":"m 394 992 q 590 968 511 992 q 710 890 669 944 q 750 746 750 836 q 730 642 750 688 q 671 567 710 597 q 575 526 632 538 l 575 519 q 680 483 633 510 q 753 408 726 457 q 781 282 781 360 q 741 128 781 192 q 629 33 701 65 q 456 0 557 0 l 126 0 l 126 992 l 394 992 m 418 569 q 578 610 535 569 q 622 732 622 651 q 569 849 622 814 q 400 885 515 885 l 250 885 l 250 569 l 418 569 m 250 465 l 250 106 l 433 106 q 602 157 554 106 q 650 292 650 208 q 628 383 650 344 q 558 444 607 422 q 425 465 510 465 l 250 465 z "},"Γ":{"ha":688,"x_min":126,"x_max":657,"o":"m 657 992 l 657 881 l 250 881 l 250 0 l 126 0 l 126 992 l 657 992 z "},"Δ":{"ha":765,"x_min":26,"x_max":739,"o":"m 444 992 l 739 75 l 739 0 l 26 0 l 26 76 l 319 992 l 444 992 m 442 626 q 417 708 429 668 q 397 785 406 749 q 381 856 388 822 q 365 785 374 822 q 345 710 356 749 q 322 631 335 671 l 158 110 l 604 110 l 442 626 z "},"Ε":{"ha":726,"x_min":126,"x_max":649,"o":"m 649 0 l 126 0 l 126 992 l 649 992 l 649 882 l 250 882 l 250 572 l 625 572 l 625 464 l 250 464 l 250 110 l 649 110 l 649 0 z "},"Ζ":{"ha":749,"x_min":49,"x_max":699,"o":"m 699 0 l 49 0 l 49 94 l 536 881 l 64 881 l 64 992 l 686 992 l 686 897 l 199 111 l 699 111 l 699 0 z "},"Η":{"ha":971,"x_min":126,"x_max":843,"o":"m 843 0 l 719 0 l 719 463 l 250 463 l 250 0 l 126 0 l 126 992 l 250 992 l 250 572 l 719 572 l 719 992 l 843 992 l 843 0 z "},"Θ":{"ha":1085,"x_min":79,"x_max":942,"o":"m 725 558 l 725 450 l 306 450 l 306 558 l 725 558 m 942 497 q 914 288 942 382 q 832 126 886 194 q 697 22 778 58 q 511 -14 617 -14 q 320 23 401 -14 q 185 127 239 60 q 106 289 132 194 q 79 499 79 383 q 126 765 79 651 q 270 943 174 879 q 513 1007 367 1007 q 749 944 653 1007 q 893 766 844 881 q 942 497 942 651 m 210 497 q 242 282 210 372 q 341 143 274 192 q 511 94 408 94 q 682 143 615 94 q 780 282 749 192 q 811 497 811 372 q 740 791 811 685 q 513 897 668 897 q 341 849 408 897 q 242 712 274 801 q 210 497 210 622 z "},"Ι":{"ha":447,"x_min":51,"x_max":394,"o":"m 394 0 l 51 0 l 51 72 l 161 99 l 161 892 l 51 919 l 51 992 l 394 992 l 394 919 l 285 892 l 285 99 l 394 72 l 394 0 z "},"Κ":{"ha":813,"x_min":126,"x_max":813,"o":"m 813 0 l 668 0 l 344 474 l 250 385 l 250 0 l 126 0 l 126 992 l 250 992 l 250 503 q 326 597 288 550 q 404 692 365 644 l 656 992 l 800 992 l 433 560 l 813 0 z "},"Λ":{"ha":799,"x_min":0,"x_max":797,"o":"m 463 992 l 797 0 l 667 0 l 464 625 q 438 708 450 668 q 415 785 425 749 q 397 856 404 822 q 380 785 390 822 q 358 708 369 749 q 332 626 346 668 l 131 0 l 0 0 l 333 992 l 463 992 z "},"Μ":{"ha":1189,"x_min":126,"x_max":1063,"o":"m 536 0 l 236 869 l 231 869 q 235 799 233 842 q 239 705 238 756 q 240 601 240 654 l 240 0 l 126 0 l 126 992 l 307 992 l 589 179 l 594 179 l 882 992 l 1063 992 l 1063 0 l 940 0 l 940 610 q 942 706 940 658 q 946 797 943 754 q 950 868 949 839 l 944 868 l 639 0 l 536 0 z "},"Ν":{"ha":999,"x_min":126,"x_max":872,"o":"m 872 0 l 726 0 l 235 824 l 229 824 q 233 768 231 799 q 236 702 235 738 q 239 629 238 667 q 240 554 240 592 l 240 0 l 126 0 l 126 992 l 271 992 l 761 171 l 767 171 q 764 217 765 188 q 761 284 763 247 q 758 360 760 321 q 757 432 757 399 l 757 992 l 872 992 l 872 0 z "},"Ξ":{"ha":725,"x_min":46,"x_max":678,"o":"m 46 0 l 46 110 l 678 110 l 678 0 l 46 0 m 124 464 l 124 572 l 600 572 l 600 464 l 124 464 m 72 882 l 72 992 l 653 992 l 653 882 l 72 882 z "},"Ο":{"ha":1021,"x_min":79,"x_max":942,"o":"m 942 497 q 914 288 942 382 q 832 126 886 194 q 697 22 778 58 q 511 -14 617 -14 q 320 23 401 -14 q 185 127 239 60 q 106 289 132 194 q 79 499 79 383 q 126 765 79 651 q 270 943 174 879 q 513 1007 367 1007 q 749 944 653 1007 q 893 766 844 881 q 942 497 942 651 m 210 497 q 242 282 210 372 q 341 143 274 192 q 511 94 408 94 q 682 143 615 94 q 780 282 749 192 q 811 497 811 372 q 740 791 811 685 q 513 897 668 897 q 341 849 408 897 q 242 712 274 801 q 210 497 210 622 z "},"Π":{"ha":957,"x_min":126,"x_max":829,"o":"m 126 0 l 126 992 l 829 992 l 829 0 l 707 0 l 707 882 l 250 882 l 250 0 l 126 0 z "},"Ρ":{"ha":793,"x_min":126,"x_max":726,"o":"m 376 992 q 643 915 560 992 q 726 700 726 839 q 692 547 726 618 q 576 431 657 475 q 356 386 496 386 l 250 386 l 250 0 l 126 0 l 126 992 l 376 992 m 367 885 l 250 885 l 250 493 l 342 493 q 485 513 428 493 q 570 578 542 533 q 599 694 599 622 q 542 838 599 790 q 367 885 486 885 z "},"Σ":{"ha":746,"x_min":47,"x_max":714,"o":"m 47 0 l 47 103 l 353 518 l 56 888 l 56 992 l 676 992 l 676 881 l 347 881 q 298 881 328 881 q 240 881 268 881 q 196 882 211 882 l 489 519 l 182 108 q 280 109 231 108 q 381 110 329 110 l 714 110 l 714 0 l 47 0 z "},"Τ":{"ha":728,"x_min":14,"x_max":713,"o":"m 426 0 l 303 0 l 303 882 l 14 882 l 14 992 l 713 992 l 713 882 l 426 882 l 426 0 z "},"Υ":{"ha":744,"x_min":0,"x_max":744,"o":"m 372 504 l 611 992 l 744 992 l 435 385 l 435 0 l 311 0 l 311 379 l 0 992 l 135 992 l 372 504 z "},"Φ":{"ha":1056,"x_min":67,"x_max":989,"o":"m 589 883 q 828 831 740 881 q 952 698 915 781 q 989 514 989 615 q 969 381 989 447 q 905 262 950 315 q 783 175 860 208 q 589 139 706 142 l 589 -14 l 467 -14 l 467 139 q 271 176 349 142 q 148 265 193 210 q 85 385 103 319 q 67 514 67 450 q 88 653 67 588 q 154 770 108 719 q 277 851 200 821 q 467 883 354 882 l 467 1006 l 589 1006 l 589 883 m 467 778 q 303 742 364 775 q 216 651 242 708 q 190 515 190 593 q 219 373 190 433 q 310 279 249 313 q 467 242 371 246 l 467 778 m 589 242 q 749 281 688 246 q 838 376 810 315 q 865 515 865 436 q 840 652 865 594 q 753 742 814 710 q 589 778 693 775 l 589 242 z "},"Χ":{"ha":772,"x_min":4,"x_max":768,"o":"m 768 0 l 628 0 l 383 431 l 135 0 l 4 0 l 314 517 l 24 992 l 161 992 l 388 603 l 615 992 l 746 992 l 457 519 l 768 0 z "},"Ψ":{"ha":1057,"x_min":69,"x_max":988,"o":"m 988 665 q 969 529 988 594 q 905 413 950 464 q 782 331 860 361 q 588 301 704 301 l 588 0 l 468 0 l 468 301 q 272 332 350 301 q 150 414 194 363 q 88 531 106 465 q 69 664 69 596 l 69 992 l 192 992 l 192 667 q 221 523 192 581 q 311 437 250 465 q 468 408 372 408 l 468 992 l 588 992 l 588 408 q 745 438 685 408 q 834 524 806 467 q 863 664 863 581 l 863 992 l 988 992 l 988 665 z "},"Ω":{"ha":1021,"x_min":49,"x_max":974,"o":"m 511 897 q 343 856 410 897 q 244 739 276 815 q 213 557 213 663 q 233 384 213 465 q 301 233 254 303 q 426 100 347 163 l 426 0 l 49 0 l 49 110 l 282 110 q 181 222 226 156 q 108 373 135 288 q 82 561 82 458 q 132 797 82 697 q 278 952 182 897 q 511 1007 375 1007 q 745 953 650 1007 q 890 799 840 899 q 940 563 940 699 q 914 373 940 458 q 843 222 888 288 q 743 110 799 156 l 974 110 l 974 0 l 596 0 l 596 100 q 723 232 676 161 q 790 384 769 303 q 811 557 811 465 q 779 739 811 663 q 681 856 747 815 q 511 897 614 897 z "},"Ϊ":{"ha":447,"x_min":39,"x_max":411,"o":"m 394 0 l 51 0 l 51 72 l 161 99 l 161 892 l 51 919 l 51 992 l 394 992 l 394 919 l 285 892 l 285 99 l 394 72 l 394 0 z "},"Ϋ":{"ha":744,"x_min":0,"x_max":744,"o":"m 372 504 l 611 992 l 744 992 l 435 385 l 435 0 l 311 0 l 311 379 l 0 992 l 135 992 l 372 504 z "},"ά":{"ha":807,"x_min":71,"x_max":786,"o":"m 381 88 q 494 117 451 88 q 556 207 536 146 q 575 363 575 268 l 575 371 q 533 583 575 510 q 379 656 490 656 q 240 582 285 656 q 196 368 196 508 q 240 158 196 229 q 381 88 285 88 m 357 -14 q 150 83 229 -14 q 71 369 71 179 q 149 658 71 558 q 368 758 228 758 q 497 730 446 758 q 582 644 547 701 l 589 644 q 606 696 596 668 q 632 744 617 724 l 726 744 q 709 664 717 714 q 697 558 701 614 q 693 453 693 503 l 693 164 q 709 103 693 121 q 747 86 725 86 q 769 89 757 86 q 786 93 781 92 l 786 4 q 767 -4 779 0 q 741 -11 756 -8 q 711 -14 726 -14 q 631 11 663 -14 q 585 100 599 36 l 575 100 q 526 43 556 69 q 456 1 497 17 q 357 -14 415 -14 m 354 861 q 372 919 363 886 q 388 987 381 951 q 402 1056 396 1022 q 413 1118 408 1090 l 539 1118 l 539 1103 q 514 1026 532 1072 q 473 930 496 979 q 426 842 450 881 l 354 842 l 354 861 z "},"έ":{"ha":638,"x_min":56,"x_max":593,"o":"m 469 438 l 469 338 l 372 338 q 263 323 306 338 q 198 281 219 308 q 176 210 176 253 q 200 137 176 164 q 266 98 224 110 q 361 86 308 86 q 491 104 435 86 q 590 144 547 122 l 590 38 q 529 10 564 22 q 451 -8 494 -1 q 354 -14 408 -14 q 186 15 253 -14 q 88 92 119 43 q 56 203 56 142 q 102 326 56 286 q 213 385 149 367 l 213 392 q 117 452 153 411 q 82 561 82 493 q 117 668 82 624 q 213 735 151 713 q 354 758 275 758 q 445 752 404 758 q 522 734 486 746 q 593 706 558 722 l 549 608 q 460 643 506 629 q 353 657 414 657 q 235 631 275 657 q 196 551 196 604 q 249 464 196 490 q 394 438 303 438 l 469 438 m 301 861 q 319 919 310 886 q 335 987 328 951 q 349 1056 343 1022 q 360 1118 356 1090 l 486 1118 l 486 1103 q 461 1026 479 1072 q 420 930 443 979 q 374 842 397 881 l 301 842 l 301 861 z "},"ή":{"ha":811,"x_min":110,"x_max":706,"o":"m 451 758 q 592 730 535 758 q 677 641 649 701 q 706 485 706 581 l 706 -333 l 585 -333 l 585 476 q 548 610 585 565 q 432 656 511 656 q 313 624 357 656 q 249 533 268 593 q 231 386 231 474 l 231 0 l 110 0 l 110 744 l 207 744 l 225 643 l 232 643 q 289 708 254 682 q 365 746 324 733 q 451 758 407 758 m 374 861 q 391 919 382 886 q 408 987 400 951 q 422 1056 415 1022 q 432 1118 428 1090 l 558 1118 l 558 1103 q 533 1026 551 1072 q 492 930 515 979 q 446 842 469 881 l 374 842 l 374 861 z "},"ί":{"ha":458,"x_min":107,"x_max":435,"o":"m 226 219 q 251 119 226 153 q 326 86 275 86 q 385 91 354 86 q 435 101 417 96 l 435 8 q 380 -8 415 -1 q 308 -14 344 -14 q 205 6 250 -14 q 133 77 160 26 q 107 218 107 128 l 107 744 l 226 744 l 226 219 m 121 861 q 138 919 129 886 q 155 987 147 951 q 169 1056 163 1022 q 179 1118 175 1090 l 306 1118 l 306 1103 q 281 1026 299 1072 q 240 930 263 979 q 193 842 217 881 l 121 842 l 121 861 z "},"ΰ":{"ha":804,"x_min":103,"x_max":733,"o":"m 403 -14 q 221 33 286 -14 q 129 159 156 79 q 103 338 103 239 l 103 744 l 224 744 l 224 342 q 269 155 224 224 q 411 86 314 86 q 563 165 514 86 q 611 411 611 244 q 601 585 611 508 q 571 744 590 661 l 692 744 q 715 638 706 690 q 728 531 724 586 q 733 406 733 475 q 650 88 733 190 q 403 -14 567 -14 m 536 1150 q 501 1085 522 1121 q 457 1012 481 1049 q 408 942 433 975 l 350 942 l 350 958 q 371 1022 360 986 q 392 1094 382 1057 q 407 1164 401 1132 l 536 1164 l 536 1150 m 257 1014 q 301 998 283 1014 q 319 946 319 982 q 301 894 319 911 q 257 876 283 876 q 213 894 231 876 q 196 946 196 911 q 213 998 196 982 q 257 1014 231 1014 m 549 1014 q 591 998 572 1014 q 610 946 610 982 q 591 894 610 911 q 549 876 572 876 q 504 894 522 876 q 486 946 486 911 q 504 998 486 982 q 549 1014 522 1014 z "},"α":{"ha":807,"x_min":71,"x_max":786,"o":"m 381 88 q 494 117 451 88 q 556 207 536 146 q 575 363 575 268 l 575 371 q 533 583 575 510 q 379 656 490 656 q 240 582 285 656 q 196 368 196 508 q 240 158 196 229 q 381 88 285 88 m 357 -14 q 150 83 229 -14 q 71 369 71 179 q 149 658 71 558 q 368 758 228 758 q 497 730 446 758 q 582 644 547 701 l 589 644 q 606 696 596 668 q 632 744 617 724 l 726 744 q 709 664 717 714 q 697 558 701 614 q 693 453 693 503 l 693 164 q 709 103 693 121 q 747 86 725 86 q 769 89 757 86 q 786 93 781 92 l 786 4 q 767 -4 779 0 q 741 -11 756 -8 q 711 -14 726 -14 q 631 11 663 -14 q 585 100 599 36 l 575 100 q 526 43 556 69 q 456 1 497 17 q 357 -14 415 -14 z "},"β":{"ha":826,"x_min":110,"x_max":768,"o":"m 424 1063 q 581 1033 513 1063 q 688 944 649 1003 q 726 797 726 886 q 675 639 726 697 q 528 564 624 581 l 528 558 q 660 515 607 549 q 741 424 714 482 q 768 282 768 367 q 730 121 768 188 q 621 20 692 54 q 450 -14 550 -14 q 324 -1 375 -14 q 231 33 272 11 l 231 -333 l 110 -333 l 110 743 q 151 926 110 856 q 263 1029 192 996 q 424 1063 333 1063 m 421 961 q 327 942 371 961 q 257 874 283 922 q 231 738 231 825 l 231 143 q 324 102 275 118 q 438 86 374 86 q 597 140 547 86 q 647 290 647 193 q 619 410 647 364 q 542 479 592 457 q 425 501 492 501 l 357 501 l 357 604 l 411 604 q 557 656 511 604 q 603 792 603 707 q 553 919 603 878 q 421 961 503 961 z "},"γ":{"ha":682,"x_min":6,"x_max":676,"o":"m 417 18 q 382 -101 397 -37 q 359 -226 367 -165 q 351 -333 351 -286 l 222 -333 q 231 -236 222 -294 q 253 -113 239 -178 q 288 8 268 -49 l 6 744 l 132 744 l 276 354 q 304 274 290 318 q 330 189 318 229 q 344 124 342 149 l 350 124 q 365 188 354 146 q 390 274 376 229 q 414 349 404 318 l 551 744 l 676 744 l 417 18 z "},"δ":{"ha":790,"x_min":69,"x_max":721,"o":"m 418 1056 q 573 1032 508 1056 q 690 981 638 1008 l 638 885 q 534 935 589 914 q 414 956 479 956 q 328 927 356 956 q 301 860 301 899 q 318 800 301 826 q 374 745 335 774 q 476 679 413 717 q 610 583 556 633 q 693 470 665 532 q 721 328 721 408 q 680 140 721 217 q 565 25 639 64 q 392 -14 492 -14 q 226 22 299 -14 q 111 128 153 58 q 69 297 69 199 q 105 453 69 386 q 202 565 140 519 q 340 633 264 610 q 256 697 293 664 q 199 769 219 729 q 179 861 179 810 q 247 1006 179 957 q 418 1056 315 1056 m 433 581 q 353 551 394 571 q 276 498 311 531 q 218 416 240 465 q 196 296 196 367 q 219 188 196 235 q 286 114 242 140 q 392 88 331 88 q 503 115 457 88 q 572 197 549 143 q 596 326 596 250 q 553 479 596 421 q 433 581 510 538 z "},"ε":{"ha":638,"x_min":56,"x_max":593,"o":"m 469 438 l 469 338 l 372 338 q 263 323 306 338 q 198 281 219 308 q 176 210 176 253 q 200 137 176 164 q 266 98 224 110 q 361 86 308 86 q 491 104 435 86 q 590 144 547 122 l 590 38 q 529 10 564 22 q 451 -8 494 -1 q 354 -14 408 -14 q 186 15 253 -14 q 88 92 119 43 q 56 203 56 142 q 102 326 56 286 q 213 385 149 367 l 213 392 q 117 452 153 411 q 82 561 82 493 q 117 668 82 624 q 213 735 151 713 q 354 758 275 758 q 445 752 404 758 q 522 734 486 746 q 593 706 558 722 l 549 608 q 460 643 506 629 q 353 657 414 657 q 235 631 275 657 q 196 551 196 604 q 249 464 196 490 q 394 438 303 438 l 469 438 z "},"ζ":{"ha":633,"x_min":71,"x_max":600,"o":"m 600 -56 q 575 -172 600 -117 q 518 -271 550 -226 l 397 -271 q 438 -208 419 -242 q 467 -144 456 -175 q 479 -87 479 -112 q 469 -51 479 -68 q 426 -20 458 -35 q 325 7 393 -6 q 185 59 242 22 q 100 158 129 96 q 71 311 71 219 q 102 502 71 415 q 188 665 133 589 q 312 814 242 742 q 458 960 382 886 q 422 958 451 960 q 352 956 393 957 q 268 954 311 954 l 110 954 l 110 1056 l 600 1056 l 600 964 q 385 748 465 843 q 263 576 304 653 q 209 438 222 500 q 196 319 196 375 q 222 199 196 240 q 297 138 247 158 q 414 103 346 118 q 523 66 482 88 q 582 15 564 44 q 600 -56 600 -15 z "},"η":{"ha":811,"x_min":110,"x_max":706,"o":"m 451 758 q 592 730 535 758 q 677 641 649 701 q 706 485 706 581 l 706 -333 l 585 -333 l 585 476 q 548 610 585 565 q 432 656 511 656 q 313 624 357 656 q 249 533 268 593 q 231 386 231 474 l 231 0 l 110 0 l 110 744 l 207 744 l 225 643 l 232 643 q 289 708 254 682 q 365 746 324 733 q 451 758 407 758 z "},"θ":{"ha":779,"x_min":71,"x_max":708,"o":"m 708 524 q 676 235 708 356 q 574 51 644 115 q 388 -14 504 -14 q 148 129 225 -14 q 71 524 71 272 q 103 814 71 693 q 204 999 135 935 q 388 1063 274 1063 q 630 922 551 1063 q 708 524 708 781 m 388 86 q 535 186 488 86 q 586 488 582 286 l 193 488 q 241 188 196 289 q 388 86 286 86 m 388 963 q 245 869 290 963 q 193 589 200 775 l 585 589 q 532 869 578 775 q 388 963 486 963 z "},"ι":{"ha":458,"x_min":107,"x_max":435,"o":"m 226 219 q 251 119 226 153 q 326 86 275 86 q 385 91 354 86 q 435 101 417 96 l 435 8 q 380 -8 415 -1 q 308 -14 344 -14 q 205 6 250 -14 q 133 77 160 26 q 107 218 107 128 l 107 744 l 226 744 l 226 219 z "},"κ":{"ha":706,"x_min":110,"x_max":694,"o":"m 674 744 l 407 415 l 694 0 l 551 0 l 324 336 l 236 261 l 236 0 l 110 0 l 110 744 l 236 744 l 236 551 q 234 443 236 496 q 229 363 232 390 l 232 363 q 259 399 244 381 q 286 433 274 418 l 531 744 l 674 744 z "},"λ":{"ha":714,"x_min":-7,"x_max":714,"o":"m -7 0 l 294 731 l 260 835 q 232 903 247 875 q 193 947 217 932 q 132 963 169 963 q 92 960 110 963 q 60 954 74 957 l 60 1053 q 86 1058 72 1056 q 116 1063 100 1061 q 147 1064 132 1064 q 258 1039 217 1064 q 328 963 300 1014 q 383 831 357 911 l 607 161 q 625 119 615 136 q 647 94 635 103 q 675 86 660 86 q 696 89 685 86 q 714 93 707 92 l 714 3 q 692 -6 704 -1 q 666 -12 679 -10 q 638 -14 653 -14 q 580 -3 604 -14 q 538 34 556 8 q 507 100 521 60 l 414 383 q 396 438 406 408 q 378 499 386 468 q 362 556 369 529 q 350 604 354 583 l 346 604 q 316 500 335 556 q 275 390 297 444 l 119 0 l -7 0 z "},"μ":{"ha":811,"x_min":110,"x_max":707,"o":"m 707 744 l 707 0 l 610 0 l 590 100 l 583 100 q 533 38 563 64 q 465 -1 503 13 q 378 -14 426 -14 q 291 3 328 -14 q 229 49 254 21 l 224 49 q 228 8 226 32 q 230 -48 229 -17 q 231 -117 231 -79 l 231 -333 l 110 -333 l 110 744 l 231 744 l 231 264 q 269 133 231 178 q 385 88 308 88 q 504 119 461 88 q 566 210 547 150 q 585 357 585 271 l 585 744 l 707 744 z "},"ν":{"ha":718,"x_min":0,"x_max":665,"o":"m 0 744 l 126 744 l 265 343 q 291 264 276 310 q 319 174 306 218 q 338 103 332 131 l 343 103 q 440 239 401 168 q 503 388 479 310 q 536 555 526 467 q 546 744 546 643 l 665 744 q 642 473 665 599 q 558 231 618 347 q 389 0 497 115 l 261 0 l 0 744 z "},"ξ":{"ha":625,"x_min":69,"x_max":600,"o":"m 69 286 q 94 409 69 356 q 161 498 119 463 q 251 549 203 533 l 251 557 q 178 594 208 571 q 131 656 147 618 q 114 746 114 693 q 140 853 114 811 q 209 922 165 896 q 306 963 253 947 q 238 957 281 960 q 147 954 196 954 l 110 954 l 110 1056 l 567 1056 l 567 961 l 531 961 q 422 948 475 961 q 325 908 368 935 q 256 842 282 882 q 231 749 231 801 q 278 640 231 678 q 440 601 326 601 l 549 601 l 549 508 l 438 508 q 305 480 358 508 q 224 403 251 451 q 196 296 196 356 q 223 189 196 225 q 301 135 250 153 q 419 101 351 117 q 526 65 486 88 q 583 12 565 42 q 600 -56 600 -18 q 575 -172 600 -117 q 521 -271 550 -226 l 406 -271 q 444 -208 426 -242 q 474 -143 463 -175 q 485 -86 485 -111 q 474 -51 485 -67 q 431 -20 464 -35 q 329 7 397 -6 q 186 58 244 22 q 99 150 128 93 q 69 286 69 207 z "},"ο":{"ha":792,"x_min":71,"x_max":722,"o":"m 722 374 q 699 209 722 281 q 633 88 676 138 q 529 12 590 38 q 393 -14 468 -14 q 265 12 324 -14 q 162 88 206 38 q 94 209 118 138 q 71 374 71 281 q 110 583 71 497 q 224 713 150 668 q 397 758 297 758 q 566 713 493 758 q 681 583 639 668 q 722 374 722 497 m 196 374 q 217 222 196 286 q 282 122 238 157 q 396 88 326 88 q 510 122 465 88 q 576 222 554 157 q 597 374 597 286 q 576 525 597 463 q 510 622 554 588 q 394 656 465 656 q 243 581 290 656 q 196 374 196 506 z "},"π":{"ha":868,"x_min":15,"x_max":826,"o":"m 747 86 q 782 90 767 86 q 807 100 797 94 l 807 4 q 772 -8 796 -1 q 717 -14 749 -14 q 606 31 644 -14 q 568 164 568 75 l 568 643 l 278 643 l 278 0 l 158 0 l 158 643 l 15 643 l 15 696 l 111 744 l 826 744 l 826 643 l 688 643 l 688 172 q 704 105 688 124 q 747 86 721 86 z "},"ρ":{"ha":792,"x_min":101,"x_max":721,"o":"m 721 372 q 683 161 721 247 q 577 31 646 75 q 413 -14 508 -14 q 310 2 360 -14 q 224 49 261 18 l 217 49 q 222 -24 219 26 q 224 -136 224 -74 l 224 -333 l 101 -333 l 101 382 q 140 592 101 508 q 249 717 179 675 q 415 758 319 758 q 574 714 506 758 q 682 583 643 669 q 721 372 721 497 m 410 656 q 269 587 315 656 q 224 381 224 518 l 224 156 q 308 104 260 121 q 408 88 357 88 q 553 160 508 88 q 597 372 597 232 q 553 585 597 515 q 410 656 508 656 z "},"ς":{"ha":633,"x_min":71,"x_max":601,"o":"m 410 758 q 513 747 463 758 q 601 718 564 735 l 564 617 q 488 641 529 631 q 404 651 447 651 q 244 575 293 651 q 196 353 196 499 q 206 249 196 290 q 240 181 215 208 q 308 136 265 154 q 418 103 351 118 q 526 65 486 88 q 583 13 565 43 q 600 -56 600 -17 q 575 -173 600 -117 q 521 -271 550 -229 l 406 -271 q 445 -208 426 -242 q 475 -143 464 -175 q 486 -86 486 -111 q 475 -51 486 -67 q 431 -20 464 -35 q 329 8 397 -6 q 228 42 275 19 q 145 105 181 65 q 90 205 110 144 q 71 351 71 265 q 114 582 71 492 q 233 715 157 672 q 410 758 310 758 z "},"σ":{"ha":808,"x_min":71,"x_max":778,"o":"m 721 342 q 684 161 721 242 q 575 33 647 81 q 394 -14 503 -14 q 224 28 297 -14 q 111 153 151 71 q 71 356 71 236 q 118 581 71 496 q 251 706 165 667 q 453 744 336 744 l 778 744 l 778 643 l 607 643 q 690 517 658 592 q 721 342 721 442 m 196 356 q 217 217 196 278 q 282 122 238 156 q 397 88 326 88 q 550 158 503 88 q 597 339 597 229 q 585 453 597 399 q 549 555 572 507 q 492 643 526 603 l 451 643 q 259 578 322 643 q 196 356 196 513 z "},"τ":{"ha":631,"x_min":14,"x_max":594,"o":"m 594 744 l 594 642 l 324 642 l 324 228 q 358 115 324 147 q 446 83 392 83 q 505 88 474 83 q 557 99 536 93 l 557 7 q 503 -8 539 -1 q 426 -15 467 -15 q 315 3 367 -15 q 233 72 264 22 q 201 215 201 122 l 201 642 l 14 642 l 14 696 l 111 744 l 594 744 z "},"υ":{"ha":804,"x_min":103,"x_max":733,"o":"m 403 -14 q 221 33 286 -14 q 129 159 156 79 q 103 338 103 239 l 103 744 l 224 744 l 224 342 q 269 155 224 224 q 411 86 314 86 q 563 165 514 86 q 611 411 611 244 q 601 585 611 508 q 571 744 590 661 l 692 744 q 715 638 706 690 q 728 531 724 586 q 733 406 733 475 q 650 88 733 190 q 403 -14 567 -14 z "},"φ":{"ha":953,"x_min":71,"x_max":882,"o":"m 297 686 q 220 544 250 618 q 190 372 190 469 q 221 210 190 271 q 301 122 251 150 q 410 88 351 94 l 410 501 q 467 693 410 628 q 621 758 524 758 q 761 712 703 758 q 851 583 819 665 q 882 390 882 500 q 833 169 882 256 q 703 38 783 82 q 528 -12 622 -7 l 528 -333 l 410 -333 l 410 -12 q 237 33 314 -7 q 115 157 160 74 q 71 376 71 240 q 109 583 71 489 q 206 751 147 676 l 297 686 m 622 657 q 556 624 583 657 q 528 503 528 590 l 528 88 q 647 128 594 94 q 731 227 700 163 q 761 389 761 292 q 743 536 761 476 q 694 626 725 596 q 622 657 663 657 z "},"χ":{"ha":724,"x_min":-15,"x_max":717,"o":"m 121 749 q 219 705 188 749 q 281 579 251 661 l 367 340 l 565 744 l 693 744 l 418 222 l 539 -106 q 571 -176 556 -147 q 607 -219 586 -204 q 658 -233 628 -233 q 690 -231 675 -233 q 717 -228 704 -229 l 717 -322 q 681 -330 701 -326 q 633 -333 661 -333 q 538 -310 575 -333 q 475 -245 500 -287 q 429 -144 450 -203 l 339 114 l 114 -333 l -15 -333 l 283 236 l 178 532 q 137 619 158 588 q 82 650 115 650 q 59 648 71 650 q 36 642 47 646 l 36 738 q 72 745 51 742 q 121 749 93 749 z "},"ψ":{"ha":1001,"x_min":103,"x_max":922,"o":"m 564 90 q 692 131 638 97 q 776 228 746 164 q 806 389 806 292 q 794 566 806 485 q 763 744 783 647 l 882 744 q 913 568 903 651 q 922 393 922 485 q 874 163 922 250 q 744 35 825 76 q 564 -12 663 -6 l 564 -333 l 446 -333 l 446 -12 q 269 31 346 -8 q 147 153 192 69 q 103 375 103 238 l 103 744 l 222 744 l 222 371 q 253 207 222 267 q 334 121 283 147 q 446 89 385 94 l 446 1054 l 564 1054 l 564 90 z "},"ω":{"ha":1028,"x_min":72,"x_max":956,"o":"m 879 744 q 922 620 906 681 q 947 497 939 560 q 956 361 956 433 q 927 165 956 250 q 842 33 899 81 q 703 -14 786 -14 q 585 18 631 -14 q 517 111 539 50 l 510 111 q 444 18 489 50 q 325 -14 399 -14 q 186 33 243 -14 q 101 165 129 81 q 72 361 72 250 q 81 497 72 433 q 106 620 89 560 q 149 744 122 681 l 272 744 q 226 619 244 679 q 200 497 208 560 q 192 360 192 433 q 231 156 192 225 q 333 88 269 88 q 403 111 376 88 q 444 176 431 135 q 457 268 457 217 l 457 478 l 571 478 l 571 268 q 585 170 571 211 q 628 108 600 129 q 694 88 656 88 q 770 118 739 88 q 819 210 801 149 q 836 360 836 271 q 817 559 836 471 q 756 744 797 647 l 879 744 z "},"ϊ":{"ha":458,"x_min":-12,"x_max":435,"o":"m 226 219 q 251 119 226 153 q 326 86 275 86 q 385 91 354 86 q 435 101 417 96 l 435 8 q 380 -8 415 -1 q 308 -14 344 -14 q 205 6 250 -14 q 133 77 160 26 q 107 218 107 128 l 107 744 l 226 744 l 226 219 z "},"ϋ":{"ha":804,"x_min":103,"x_max":733,"o":"m 403 -14 q 221 33 286 -14 q 129 159 156 79 q 103 338 103 239 l 103 744 l 224 744 l 224 342 q 269 155 224 224 q 411 86 314 86 q 563 165 514 86 q 611 411 611 244 q 601 585 611 508 q 571 744 590 661 l 692 744 q 715 638 706 690 q 728 531 724 586 q 733 406 733 475 q 650 88 733 190 q 403 -14 567 -14 z "},"ό":{"ha":792,"x_min":71,"x_max":722,"o":"m 722 374 q 699 209 722 281 q 633 88 676 138 q 529 12 590 38 q 393 -14 468 -14 q 265 12 324 -14 q 162 88 206 38 q 94 209 118 138 q 71 374 71 281 q 110 583 71 497 q 224 713 150 668 q 397 758 297 758 q 566 713 493 758 q 681 583 639 668 q 722 374 722 497 m 196 374 q 217 222 196 286 q 282 122 238 157 q 396 88 326 88 q 510 122 465 88 q 576 222 554 157 q 597 374 597 286 q 576 525 597 463 q 510 622 554 588 q 394 656 465 656 q 243 581 290 656 q 196 374 196 506 m 343 861 q 360 919 351 886 q 377 987 369 951 q 391 1056 385 1022 q 401 1118 397 1090 l 528 1118 l 528 1103 q 503 1026 521 1072 q 462 930 485 979 q 415 842 439 881 l 343 842 l 343 861 z "},"ύ":{"ha":804,"x_min":103,"x_max":733,"o":"m 403 -14 q 221 33 286 -14 q 129 159 156 79 q 103 338 103 239 l 103 744 l 224 744 l 224 342 q 269 155 224 224 q 411 86 314 86 q 563 165 514 86 q 611 411 611 244 q 601 585 611 508 q 571 744 590 661 l 692 744 q 715 638 706 690 q 728 531 724 586 q 733 406 733 475 q 650 88 733 190 q 403 -14 567 -14 m 350 861 q 367 919 358 886 q 384 987 376 951 q 398 1056 392 1022 q 408 1118 404 1090 l 535 1118 l 535 1103 q 510 1026 528 1072 q 469 930 492 979 q 422 842 446 881 l 350 842 l 350 861 z "},"ώ":{"ha":1028,"x_min":72,"x_max":956,"o":"m 879 744 q 922 620 906 681 q 947 497 939 560 q 956 361 956 433 q 927 165 956 250 q 842 33 899 81 q 703 -14 786 -14 q 585 18 631 -14 q 517 111 539 50 l 510 111 q 444 18 489 50 q 325 -14 399 -14 q 186 33 243 -14 q 101 165 129 81 q 72 361 72 250 q 81 497 72 433 q 106 620 89 560 q 149 744 122 681 l 272 744 q 226 619 244 679 q 200 497 208 560 q 192 360 192 433 q 231 156 192 225 q 333 88 269 88 q 403 111 376 88 q 444 176 431 135 q 457 268 457 217 l 457 478 l 571 478 l 571 268 q 585 170 571 211 q 628 108 600 129 q 694 88 656 88 q 770 118 739 88 q 819 210 801 149 q 836 360 836 271 q 817 559 836 471 q 756 744 797 647 l 879 744 m 460 861 q 477 919 468 886 q 494 987 486 951 q 508 1056 501 1022 q 518 1118 514 1090 l 644 1118 l 644 1103 q 619 1026 638 1072 q 578 930 601 979 q 532 842 556 881 l 460 842 l 460 861 z "},"Ё":{"ha":726,"x_min":126,"x_max":649,"o":"m 649 0 l 126 0 l 126 992 l 649 992 l 649 882 l 250 882 l 250 572 l 625 572 l 625 464 l 250 464 l 250 110 l 649 110 l 649 0 m 214 1193 q 233 1245 214 1229 q 278 1261 251 1261 q 322 1245 303 1261 q 340 1193 340 1229 q 322 1141 340 1158 q 278 1124 303 1124 q 233 1141 251 1124 q 214 1193 214 1158 m 460 1193 q 478 1245 460 1229 q 522 1261 497 1261 q 567 1245 549 1261 q 586 1193 586 1229 q 567 1141 586 1158 q 522 1124 549 1124 q 478 1141 497 1124 q 460 1193 460 1158 z "},"Ђ":{"ha":974,"x_min":14,"x_max":878,"o":"m 639 -14 q 581 -9 608 -14 q 538 3 554 -4 l 538 111 q 580 101 557 104 q 632 97 603 97 q 690 109 661 97 q 737 154 718 121 q 756 251 756 188 l 756 340 q 719 460 756 421 q 593 499 682 499 l 354 499 l 354 0 l 232 0 l 232 882 l 14 882 l 14 992 l 638 992 l 638 882 l 354 882 l 354 608 l 601 608 q 806 544 733 608 q 878 357 878 479 l 878 260 q 811 53 878 121 q 639 -14 744 -14 z "},"Ѓ":{"ha":688,"x_min":126,"x_max":657,"o":"m 657 992 l 657 881 l 250 881 l 250 0 l 126 0 l 126 992 l 657 992 m 592 1297 q 556 1250 579 1278 q 506 1192 533 1222 q 451 1135 479 1163 q 400 1089 424 1108 l 321 1089 l 321 1106 q 364 1168 340 1132 q 410 1242 388 1204 q 447 1311 432 1281 l 592 1311 l 592 1297 z "},"Є":{"ha":843,"x_min":79,"x_max":804,"o":"m 532 896 q 409 875 464 896 q 313 814 354 854 q 246 713 271 774 q 213 571 221 651 l 663 571 l 663 463 l 210 463 q 235 306 214 375 q 297 191 257 238 q 396 120 338 144 q 532 96 454 96 q 654 107 596 96 q 768 135 713 118 l 768 26 q 652 -4 714 6 q 517 -14 590 -14 q 268 50 365 -14 q 125 228 171 114 q 79 497 79 343 q 109 706 79 613 q 197 867 139 799 q 339 971 254 935 q 535 1007 424 1007 q 684 990 619 1007 q 804 946 749 974 l 754 839 q 653 879 707 863 q 532 896 599 896 z "},"Ѕ":{"ha":718,"x_min":67,"x_max":657,"o":"m 657 265 q 616 115 657 176 q 501 19 575 53 q 324 -14 426 -14 q 224 -8 272 -14 q 137 8 176 -3 q 67 33 97 18 l 67 153 q 185 113 115 131 q 329 94 256 94 q 442 114 397 94 q 510 169 488 133 q 533 254 533 206 q 513 336 533 303 q 446 398 493 369 q 317 458 399 426 q 187 528 240 489 q 106 622 133 567 q 78 753 78 676 q 116 888 78 832 q 222 975 154 944 q 378 1006 289 1006 q 518 990 454 1006 q 636 950 582 975 l 597 843 q 491 881 547 865 q 375 896 435 896 q 280 878 318 896 q 222 827 242 860 q 203 751 203 794 q 222 668 203 701 q 286 608 242 635 q 404 551 331 582 q 542 483 486 519 q 628 394 599 446 q 657 265 657 343 z "},"І":{"ha":447,"x_min":51,"x_max":394,"o":"m 394 0 l 51 0 l 51 72 l 161 99 l 161 892 l 51 919 l 51 992 l 394 992 l 394 919 l 285 892 l 285 99 l 394 72 l 394 0 z "},"Ї":{"ha":447,"x_min":39,"x_max":411,"o":"m 394 0 l 51 0 l 51 72 l 161 99 l 161 892 l 51 919 l 51 992 l 394 992 l 394 919 l 285 892 l 285 99 l 394 72 l 394 0 z "},"Ј":{"ha":361,"x_min":-101,"x_max":243,"o":"m -3 -264 q -59 -259 -35 -264 q -101 -246 -83 -254 l -101 -140 q -57 -150 -81 -146 q -7 -154 -33 -154 q 55 -140 26 -154 q 101 -92 83 -126 q 119 6 119 -57 l 119 992 l 243 992 l 243 15 q 213 -142 243 -81 q 127 -234 182 -204 q -3 -264 72 -264 z "},"Љ":{"ha":1228,"x_min":1,"x_max":1178,"o":"m 88 -15 q 42 -10 65 -15 q 1 1 19 -6 l 1 106 q 35 94 17 99 q 74 89 53 89 q 133 122 111 89 q 169 205 156 154 q 192 310 182 256 q 210 419 200 351 q 233 576 221 488 q 258 771 244 665 q 286 992 272 876 l 738 992 l 738 572 l 815 572 q 1031 535 951 572 q 1144 433 1110 497 q 1178 290 1178 369 q 1141 138 1178 203 q 1028 36 1104 72 q 832 0 951 0 l 614 0 l 614 882 l 390 882 q 375 754 383 821 q 358 621 367 688 q 340 492 349 554 q 322 374 331 429 q 306 275 314 318 q 263 117 289 182 q 197 18 238 51 q 88 -15 156 -15 m 818 107 q 994 152 938 107 q 1050 290 1050 197 q 1022 392 1050 354 q 939 447 994 431 q 799 464 883 464 l 738 464 l 738 107 l 818 107 z "},"Њ":{"ha":1256,"x_min":126,"x_max":1206,"o":"m 126 0 l 126 992 l 250 992 l 250 572 l 642 572 l 642 992 l 767 992 l 767 572 l 843 572 q 1058 535 979 572 q 1172 433 1138 497 q 1206 290 1206 369 q 1169 138 1206 203 q 1056 36 1132 72 q 861 0 981 0 l 642 0 l 642 463 l 250 463 l 250 0 l 126 0 m 847 107 q 1022 152 965 107 q 1078 290 1078 197 q 1050 392 1078 354 q 967 447 1022 431 q 828 464 913 464 l 767 464 l 767 107 l 847 107 z "},"Ћ":{"ha":974,"x_min":14,"x_max":878,"o":"m 671 992 l 671 881 l 354 881 l 354 607 l 607 607 q 808 543 738 607 q 878 356 878 479 l 878 0 l 754 0 l 754 340 q 719 459 754 421 q 599 497 685 497 l 354 497 l 354 0 l 231 0 l 231 881 l 14 881 l 14 992 l 671 992 z "},"Ќ":{"ha":813,"x_min":126,"x_max":813,"o":"m 813 0 l 665 0 l 250 503 l 250 0 l 126 0 l 126 992 l 250 992 l 250 511 l 656 992 l 794 992 l 394 510 l 813 0 m 635 1297 q 599 1250 622 1278 q 549 1192 576 1222 q 494 1135 522 1163 q 443 1089 467 1108 l 364 1089 l 364 1106 q 407 1168 383 1132 q 453 1242 431 1204 q 490 1311 475 1281 l 635 1311 l 635 1297 z "},"Ў":{"ha":818,"x_min":14,"x_max":819,"o":"m 678 1300 q 645 1183 672 1231 q 565 1113 618 1136 q 426 1089 511 1089 q 287 1113 339 1089 q 210 1183 235 1136 q 181 1300 186 1229 l 293 1300 q 330 1199 300 1225 q 428 1174 360 1174 q 524 1201 489 1174 q 564 1300 558 1228 l 678 1300 m 522 282 q 438 117 481 183 q 337 19 396 51 q 188 -14 278 -14 q 119 -8 153 -14 q 60 7 86 -3 l 60 131 q 116 110 86 118 q 179 103 146 103 q 262 117 228 103 q 322 165 296 132 q 369 254 347 199 l 14 992 l 149 992 l 403 446 q 419 410 410 432 q 435 369 429 389 l 440 369 q 454 406 446 385 q 468 442 463 428 l 689 992 l 819 992 l 522 282 z "},"Џ":{"ha":957,"x_min":126,"x_max":829,"o":"m 829 0 l 538 0 l 538 -261 l 411 -261 l 411 0 l 126 0 l 126 992 l 250 992 l 250 111 l 707 111 l 707 992 l 829 992 l 829 0 z "},"А":{"ha":839,"x_min":0,"x_max":838,"o":"m 710 0 l 601 307 l 233 307 l 126 0 l 0 0 l 361 996 l 478 996 l 838 0 l 710 0 m 463 718 q 451 758 460 729 q 433 819 442 788 q 418 867 424 850 q 397 783 408 824 q 376 718 385 742 l 274 418 l 565 418 l 463 718 z "},"Б":{"ha":807,"x_min":126,"x_max":740,"o":"m 126 0 l 126 992 l 683 992 l 683 882 l 250 882 l 250 572 l 383 572 q 601 535 524 572 q 709 435 678 499 q 740 290 740 372 q 706 135 740 200 q 597 35 672 69 q 399 0 522 0 l 126 0 m 388 107 q 562 152 511 107 q 613 290 613 197 q 588 392 613 354 q 510 447 564 431 q 368 464 456 464 l 250 464 l 250 107 l 388 107 z "},"В":{"ha":851,"x_min":126,"x_max":781,"o":"m 394 992 q 590 968 511 992 q 710 890 669 944 q 750 746 750 836 q 730 642 750 688 q 671 567 710 597 q 575 526 632 538 l 575 519 q 680 483 633 510 q 753 408 726 457 q 781 282 781 360 q 741 128 781 192 q 629 33 701 65 q 456 0 557 0 l 126 0 l 126 992 l 394 992 m 418 569 q 578 610 535 569 q 622 732 622 651 q 569 849 622 814 q 400 885 515 885 l 250 885 l 250 569 l 418 569 m 250 465 l 250 106 l 433 106 q 602 157 554 106 q 650 292 650 208 q 628 383 650 344 q 558 444 607 422 q 425 465 510 465 l 250 465 z "},"Г":{"ha":688,"x_min":126,"x_max":657,"o":"m 657 992 l 657 881 l 250 881 l 250 0 l 126 0 l 126 992 l 657 992 z "},"Д":{"ha":911,"x_min":8,"x_max":882,"o":"m 763 992 l 763 111 l 882 111 l 882 -261 l 764 -261 l 764 0 l 126 0 l 126 -261 l 8 -261 l 8 111 l 81 111 q 168 304 126 197 q 242 528 210 411 q 296 764 275 646 q 322 992 317 882 l 763 992 m 431 879 q 405 697 425 799 q 355 490 385 596 q 288 285 325 383 q 211 111 251 186 l 640 111 l 640 879 l 431 879 z "},"Е":{"ha":726,"x_min":126,"x_max":649,"o":"m 649 0 l 126 0 l 126 992 l 649 992 l 649 882 l 250 882 l 250 572 l 625 572 l 625 464 l 250 464 l 250 110 l 649 110 l 649 0 z "},"Ж":{"ha":1125,"x_min":1,"x_max":1122,"o":"m 372 510 l 15 992 l 151 992 l 503 511 l 503 992 l 621 992 l 621 511 l 974 992 l 1110 992 l 751 511 l 1122 0 l 982 0 l 621 503 l 621 0 l 503 0 l 503 503 l 142 0 l 1 0 l 372 510 z "},"З":{"ha":774,"x_min":51,"x_max":704,"o":"m 685 760 q 624 599 685 658 q 463 524 564 540 l 463 518 q 643 440 582 501 q 704 281 704 379 q 663 127 704 193 q 538 24 621 61 q 328 -14 454 -14 q 180 -2 250 -14 q 51 40 110 10 l 51 154 q 138 119 92 133 q 233 97 185 104 q 324 89 281 89 q 513 139 449 89 q 576 281 576 189 q 500 418 576 375 q 289 461 424 461 l 158 461 l 158 565 l 282 565 q 436 588 375 565 q 527 651 497 610 q 557 747 557 692 q 506 863 557 822 q 371 903 454 903 q 226 879 285 903 q 113 818 168 856 l 54 903 q 140 955 92 932 q 247 992 189 978 q 374 1006 306 1006 q 544 974 475 1006 q 649 887 614 942 q 685 760 685 832 z "},"И":{"ha":1010,"x_min":128,"x_max":885,"o":"m 128 992 l 243 992 l 243 447 q 242 372 243 413 q 240 290 242 331 q 237 219 239 250 q 233 171 235 188 l 239 171 l 746 992 l 885 992 l 885 0 l 769 0 l 769 539 q 771 620 769 576 q 774 705 772 664 q 777 778 775 746 q 779 825 779 810 l 775 825 l 267 0 l 128 0 l 128 992 z "},"Й":{"ha":1010,"x_min":128,"x_max":885,"o":"m 771 1300 q 738 1183 765 1231 q 658 1113 711 1136 q 519 1089 604 1089 q 380 1113 432 1089 q 303 1183 328 1136 q 274 1300 279 1229 l 386 1300 q 423 1199 393 1225 q 521 1174 453 1174 q 617 1201 582 1174 q 657 1300 651 1228 l 771 1300 m 128 992 l 243 992 l 243 447 q 242 372 243 413 q 240 290 242 331 q 237 219 239 250 q 233 171 235 188 l 239 171 l 746 992 l 885 992 l 885 0 l 769 0 l 769 539 q 771 620 769 576 q 774 705 772 664 q 777 778 775 746 q 779 825 779 810 l 775 825 l 267 0 l 128 0 l 128 992 z "},"К":{"ha":813,"x_min":126,"x_max":813,"o":"m 813 0 l 665 0 l 250 503 l 250 0 l 126 0 l 126 992 l 250 992 l 250 511 l 656 992 l 794 992 l 394 510 l 813 0 z "},"Л":{"ha":928,"x_min":1,"x_max":801,"o":"m 801 0 l 678 0 l 678 882 l 388 882 q 369 722 379 806 q 348 556 358 638 q 326 401 338 474 q 306 275 315 329 q 263 117 289 182 q 197 18 238 51 q 88 -15 156 -15 q 42 -10 65 -15 q 1 1 18 -6 l 1 106 q 35 94 17 99 q 74 89 53 89 q 133 123 111 89 q 169 208 156 157 q 192 310 182 258 q 209 417 199 349 q 232 574 219 485 q 258 770 244 664 q 285 992 271 876 l 801 992 l 801 0 z "},"М":{"ha":1189,"x_min":126,"x_max":1063,"o":"m 536 0 l 236 869 l 231 869 q 235 799 233 842 q 239 705 238 756 q 240 601 240 654 l 240 0 l 126 0 l 126 992 l 307 992 l 589 179 l 594 179 l 882 992 l 1063 992 l 1063 0 l 940 0 l 940 610 q 942 706 940 658 q 946 797 943 754 q 950 868 949 839 l 944 868 l 639 0 l 536 0 z "},"Н":{"ha":971,"x_min":126,"x_max":843,"o":"m 843 0 l 719 0 l 719 463 l 250 463 l 250 0 l 126 0 l 126 992 l 250 992 l 250 572 l 719 572 l 719 992 l 843 992 l 843 0 z "},"О":{"ha":1021,"x_min":79,"x_max":942,"o":"m 942 497 q 914 288 942 382 q 832 126 886 194 q 697 22 778 58 q 511 -14 617 -14 q 320 23 401 -14 q 185 127 239 60 q 106 289 132 194 q 79 499 79 383 q 126 765 79 651 q 270 943 174 879 q 513 1007 367 1007 q 749 944 653 1007 q 893 766 844 881 q 942 497 942 651 m 210 497 q 242 282 210 372 q 341 143 274 192 q 511 94 408 94 q 682 143 615 94 q 780 282 749 192 q 811 497 811 372 q 740 791 811 685 q 513 897 668 897 q 341 849 408 897 q 242 712 274 801 q 210 497 210 622 z "},"П":{"ha":957,"x_min":126,"x_max":829,"o":"m 126 0 l 126 992 l 829 992 l 829 0 l 707 0 l 707 882 l 250 882 l 250 0 l 126 0 z "},"Р":{"ha":793,"x_min":126,"x_max":726,"o":"m 376 992 q 643 915 560 992 q 726 700 726 839 q 692 547 726 618 q 576 431 657 475 q 356 386 496 386 l 250 386 l 250 0 l 126 0 l 126 992 l 376 992 m 367 885 l 250 885 l 250 493 l 342 493 q 485 513 428 493 q 570 578 542 533 q 599 694 599 622 q 542 838 599 790 q 367 885 486 885 z "},"С":{"ha":825,"x_min":79,"x_max":785,"o":"m 525 896 q 393 869 451 896 q 294 790 335 842 q 231 663 253 738 q 210 496 210 589 q 244 283 210 374 q 349 144 279 193 q 524 96 419 96 q 640 107 585 96 q 749 135 694 118 l 749 26 q 640 -4 696 6 q 507 -14 585 -14 q 269 49 364 -14 q 126 226 174 111 q 79 497 79 342 q 108 703 79 610 q 194 864 138 796 q 335 969 251 932 q 526 1006 418 1006 q 664 990 597 1006 q 785 947 731 975 l 736 842 q 640 879 693 863 q 525 896 586 896 z "},"Т":{"ha":728,"x_min":14,"x_max":713,"o":"m 426 0 l 303 0 l 303 882 l 14 882 l 14 992 l 713 992 l 713 882 l 426 882 l 426 0 z "},"У":{"ha":818,"x_min":14,"x_max":819,"o":"m 522 282 q 438 117 481 183 q 337 19 396 51 q 188 -14 278 -14 q 119 -8 153 -14 q 60 7 86 -3 l 60 131 q 116 110 86 118 q 179 103 146 103 q 262 117 228 103 q 322 165 296 132 q 369 254 347 199 l 14 992 l 149 992 l 403 446 q 419 410 410 432 q 435 369 429 389 l 440 369 q 454 406 446 385 q 468 442 463 428 l 689 992 l 819 992 l 522 282 z "},"Ф":{"ha":1056,"x_min":67,"x_max":989,"o":"m 589 883 q 828 831 740 881 q 952 698 915 781 q 989 514 989 615 q 969 381 989 447 q 905 262 950 315 q 783 175 860 208 q 589 139 706 142 l 589 -14 l 467 -14 l 467 139 q 271 176 349 142 q 148 265 193 210 q 85 385 103 319 q 67 514 67 450 q 88 653 67 588 q 154 770 108 719 q 277 851 200 821 q 467 883 354 882 l 467 1006 l 589 1006 l 589 883 m 467 778 q 303 742 364 775 q 216 651 242 708 q 190 515 190 593 q 219 373 190 433 q 310 279 249 313 q 467 242 371 246 l 467 778 m 589 242 q 749 281 688 246 q 838 376 810 315 q 865 515 865 436 q 840 652 865 594 q 753 742 814 710 q 589 778 693 775 l 589 242 z "},"Х":{"ha":772,"x_min":4,"x_max":768,"o":"m 768 0 l 628 0 l 383 431 l 135 0 l 4 0 l 314 517 l 24 992 l 161 992 l 388 603 l 615 992 l 746 992 l 457 519 l 768 0 z "},"Ц":{"ha":972,"x_min":126,"x_max":944,"o":"m 944 110 l 944 -261 l 826 -261 l 826 0 l 126 0 l 126 992 l 250 992 l 250 111 l 707 111 l 707 992 l 829 992 l 829 110 l 944 110 z "},"Ч":{"ha":914,"x_min":101,"x_max":788,"o":"m 788 0 l 664 0 l 664 407 q 522 362 588 379 q 376 344 456 344 q 174 409 246 344 q 101 596 101 474 l 101 992 l 225 992 l 225 614 q 264 494 225 533 q 392 454 303 454 q 527 469 467 454 q 664 511 588 485 l 664 992 l 788 992 l 788 0 z "},"Ш":{"ha":1360,"x_min":126,"x_max":1232,"o":"m 1232 0 l 126 0 l 126 992 l 250 992 l 250 111 l 615 111 l 615 992 l 739 992 l 739 111 l 1107 111 l 1107 992 l 1232 992 l 1232 0 z "},"Щ":{"ha":1367,"x_min":126,"x_max":1329,"o":"m 1329 110 l 1329 -261 l 1210 -261 l 1210 0 l 126 0 l 126 992 l 250 992 l 250 111 l 607 111 l 607 992 l 732 992 l 732 111 l 1090 111 l 1090 992 l 1214 992 l 1214 110 l 1329 110 z "},"Ъ":{"ha":908,"x_min":10,"x_max":842,"o":"m 228 0 l 228 882 l 10 882 l 10 992 l 350 992 l 350 572 l 493 572 q 700 535 624 572 q 809 433 776 497 q 842 290 842 369 q 806 138 842 203 q 697 36 771 72 q 507 0 622 0 l 228 0 m 494 107 q 660 152 607 107 q 714 290 714 197 q 688 392 714 354 q 609 447 661 431 q 476 464 557 464 l 350 464 l 350 107 l 494 107 z "},"Ы":{"ha":1126,"x_min":126,"x_max":1000,"o":"m 126 0 l 126 992 l 250 992 l 250 572 l 388 572 q 594 535 518 572 q 702 433 669 497 q 735 290 735 369 q 700 138 735 203 q 591 36 665 72 q 400 0 517 0 l 126 0 m 390 106 q 554 151 501 106 q 607 290 607 197 q 582 392 607 354 q 505 446 557 429 q 374 463 453 463 l 250 463 l 250 106 l 390 106 m 876 0 l 876 992 l 1000 992 l 1000 0 l 876 0 z "},"Ь":{"ha":839,"x_min":126,"x_max":772,"o":"m 126 0 l 126 992 l 250 992 l 250 572 l 418 572 q 626 535 549 572 q 738 433 703 497 q 772 290 772 369 q 735 138 772 203 q 623 36 699 72 q 431 0 547 0 l 126 0 m 419 107 q 588 152 531 107 q 644 290 644 197 q 617 392 644 354 q 535 447 589 431 q 403 464 482 464 l 250 464 l 250 107 l 419 107 z "},"Э":{"ha":831,"x_min":40,"x_max":750,"o":"m 307 896 q 189 880 243 896 q 90 843 135 864 l 40 947 q 165 990 96 975 q 308 1006 235 1006 q 503 969 419 1006 q 641 865 586 932 q 723 709 696 799 q 750 513 750 619 q 701 232 750 350 q 551 50 651 114 q 299 -14 451 -14 q 162 -4 218 -14 q 49 26 106 6 l 49 135 q 162 108 106 119 q 281 96 218 96 q 426 120 364 96 q 530 191 488 144 q 594 306 572 238 q 619 464 617 375 l 169 464 l 169 574 l 618 574 q 588 710 613 650 q 523 811 564 769 q 428 874 482 853 q 307 896 374 896 z "},"Ю":{"ha":1376,"x_min":126,"x_max":1296,"o":"m 1296 497 q 1269 288 1296 382 q 1192 126 1243 193 q 1063 22 1140 58 q 883 -14 986 -14 q 660 44 751 -14 q 522 210 569 103 q 468 463 474 317 l 250 463 l 250 0 l 126 0 l 126 992 l 250 992 l 250 572 l 471 572 q 528 802 481 704 q 665 953 576 900 q 882 1007 754 1007 q 1109 944 1017 1007 q 1249 766 1201 881 q 1296 497 1296 651 m 596 497 q 626 282 596 372 q 720 143 657 192 q 881 94 783 94 q 1044 143 981 94 q 1137 282 1107 192 q 1167 497 1167 372 q 1137 712 1167 622 q 1044 849 1107 801 q 882 897 982 897 q 720 849 783 897 q 626 712 657 801 q 596 497 596 622 z "},"Я":{"ha":838,"x_min":26,"x_max":711,"o":"m 410 411 l 169 0 l 26 0 l 288 433 q 196 483 239 451 q 126 571 153 515 q 99 714 99 626 q 186 920 99 849 q 447 992 274 992 l 711 992 l 711 0 l 588 0 l 588 411 l 410 411 m 450 885 q 327 867 378 885 q 251 810 276 849 q 225 708 225 771 q 281 567 225 617 q 456 517 338 517 l 588 517 l 588 885 l 450 885 z "},"а":{"ha":738,"x_min":60,"x_max":632,"o":"m 378 757 q 569 697 506 757 q 632 507 632 638 l 632 0 l 544 0 l 521 106 l 515 106 q 453 38 485 65 q 381 -1 422 11 q 281 -14 340 -14 q 168 10 218 -14 q 89 83 118 33 q 60 207 60 132 q 142 378 60 318 q 394 444 224 439 l 513 449 l 513 493 q 476 622 513 586 q 371 658 439 658 q 267 641 317 658 q 174 601 218 624 l 136 693 q 246 738 183 719 q 378 757 308 757 m 411 360 q 234 315 283 354 q 185 206 185 276 q 219 114 185 143 q 310 85 254 85 q 454 137 396 85 q 513 297 513 189 l 513 364 l 411 360 z "},"б":{"ha":785,"x_min":74,"x_max":715,"o":"m 74 447 q 105 724 74 610 q 202 908 136 839 q 372 1000 268 976 q 536 1035 456 1019 q 688 1063 617 1050 l 708 956 q 632 942 674 950 q 548 927 590 935 q 466 912 506 919 q 396 897 426 904 q 319 865 353 888 q 260 803 285 842 q 222 707 236 764 q 204 572 207 650 l 213 572 q 263 626 231 599 q 339 674 294 654 q 440 693 383 693 q 592 651 531 693 q 684 533 653 608 q 715 358 715 458 q 674 151 715 235 q 561 27 633 68 q 393 -14 489 -14 q 262 16 321 -14 q 160 104 203 46 q 96 249 118 163 q 74 447 74 335 m 403 88 q 500 113 458 88 q 565 194 542 138 q 588 346 588 251 q 549 526 588 460 q 421 592 510 592 q 318 565 364 592 q 241 503 272 538 q 197 444 210 468 q 206 313 197 376 q 238 198 215 249 q 301 117 261 147 q 403 88 340 88 z "},"в":{"ha":757,"x_min":110,"x_max":700,"o":"m 678 557 q 639 449 678 488 q 538 396 600 410 l 538 390 q 651 341 603 381 q 700 218 700 301 q 684 131 700 171 q 633 61 668 90 q 544 16 599 32 q 414 0 490 0 l 110 0 l 110 744 l 413 744 q 549 727 489 744 q 643 669 608 710 q 678 557 678 628 m 575 218 q 530 310 575 282 q 399 338 485 338 l 231 338 l 231 99 l 401 99 q 530 126 485 99 q 575 218 575 153 m 556 542 q 520 619 556 594 q 407 643 485 643 l 231 643 l 231 439 l 385 439 q 513 464 469 439 q 556 542 556 489 z "},"г":{"ha":569,"x_min":110,"x_max":542,"o":"m 542 744 l 542 642 l 231 642 l 231 0 l 110 0 l 110 744 l 542 744 z "},"д":{"ha":765,"x_min":24,"x_max":740,"o":"m 639 744 l 639 103 l 740 103 l 740 -258 l 625 -258 l 625 0 l 139 0 l 139 -258 l 24 -258 l 24 103 l 81 103 q 179 297 140 192 q 238 516 218 401 q 260 744 258 631 l 639 744 m 367 649 q 340 453 361 554 q 284 261 318 353 q 206 103 250 169 l 521 103 l 521 649 l 367 649 z "},"е":{"ha":739,"x_min":71,"x_max":674,"o":"m 382 758 q 538 717 472 758 q 638 599 603 675 q 674 422 674 524 l 674 349 l 196 349 q 256 156 199 222 q 415 90 313 90 q 534 103 482 90 q 642 142 586 117 l 642 35 q 535 -2 588 10 q 410 -14 483 -14 q 233 29 310 -14 q 114 158 157 72 q 71 367 71 243 q 110 576 71 489 q 219 711 149 664 q 382 758 289 758 m 382 658 q 254 602 301 658 q 199 446 207 546 l 549 446 q 531 557 549 510 q 476 631 513 604 q 382 658 439 658 z "},"ж":{"ha":992,"x_min":1,"x_max":988,"o":"m 964 744 l 676 383 l 988 0 l 851 0 l 551 378 l 551 0 l 439 0 l 439 378 l 138 0 l 1 0 l 313 383 l 26 744 l 157 744 l 439 383 l 439 744 l 551 744 l 551 383 l 833 744 l 964 744 z "},"з":{"ha":646,"x_min":43,"x_max":588,"o":"m 300 758 q 439 735 379 758 q 531 669 499 713 q 564 563 564 625 q 528 455 564 494 q 432 397 493 415 l 432 392 q 509 357 474 379 q 566 299 544 335 q 588 206 588 263 q 556 94 588 144 q 456 15 524 44 q 285 -14 389 -14 q 190 -8 235 -14 q 108 8 144 -3 q 43 35 71 19 l 43 144 q 149 104 88 122 q 282 86 210 86 q 414 115 360 86 q 468 213 468 143 q 419 307 468 276 q 268 338 369 338 l 176 338 l 176 438 l 251 438 q 396 463 342 438 q 450 551 450 489 q 409 631 450 604 q 292 657 368 657 q 190 645 235 657 q 93 610 144 633 l 50 707 q 169 746 107 733 q 300 758 232 758 z "},"и":{"ha":846,"x_min":110,"x_max":735,"o":"m 224 290 q 223 255 224 278 q 221 206 222 232 q 218 158 219 181 q 215 121 217 135 l 588 744 l 735 744 l 735 0 l 622 0 l 622 439 q 623 497 622 461 q 625 569 624 533 q 628 622 626 604 l 260 0 l 110 0 l 110 744 l 224 744 l 224 290 z "},"й":{"ha":846,"x_min":110,"x_max":735,"o":"m 685 1053 q 652 936 679 983 q 572 865 625 889 q 433 842 518 842 q 294 865 346 842 q 217 935 242 889 q 188 1053 193 982 l 300 1053 q 337 952 307 978 q 435 926 367 926 q 531 953 496 926 q 571 1053 565 981 l 685 1053 m 224 290 q 223 255 224 278 q 221 206 222 232 q 218 158 219 181 q 215 121 217 135 l 588 744 l 735 744 l 735 0 l 622 0 l 622 439 q 623 497 622 461 q 625 569 624 533 q 628 622 626 604 l 260 0 l 110 0 l 110 744 l 224 744 l 224 290 z "},"к":{"ha":699,"x_min":110,"x_max":685,"o":"m 528 744 l 660 744 l 363 386 l 685 0 l 544 0 l 231 378 l 231 0 l 110 0 l 110 744 l 231 744 l 231 383 l 528 744 z "},"л":{"ha":761,"x_min":8,"x_max":651,"o":"m 651 0 l 529 0 l 529 643 l 325 643 q 292 342 313 467 q 242 140 272 218 q 171 26 213 63 q 72 -10 129 -10 q 37 -8 54 -10 q 8 0 19 -6 l 8 92 q 26 88 17 89 q 46 86 36 86 q 97 111 74 86 q 138 188 119 136 q 172 317 157 239 q 199 503 188 396 q 221 744 211 610 l 651 744 l 651 0 z "},"м":{"ha":983,"x_min":110,"x_max":872,"o":"m 872 744 l 872 0 l 763 0 l 763 475 q 765 536 763 504 q 769 599 767 568 l 765 599 l 539 0 l 439 0 l 218 599 l 214 599 q 218 536 217 568 q 219 471 219 504 l 219 0 l 110 0 l 110 744 l 272 744 l 489 146 l 710 744 l 872 744 z "},"н":{"ha":833,"x_min":110,"x_max":724,"o":"m 231 744 l 231 435 l 603 435 l 603 744 l 724 744 l 724 0 l 603 0 l 603 332 l 231 332 l 231 0 l 110 0 l 110 744 l 231 744 z "},"о":{"ha":792,"x_min":71,"x_max":722,"o":"m 722 374 q 699 209 722 281 q 633 88 676 138 q 529 12 590 38 q 393 -14 468 -14 q 265 12 324 -14 q 162 88 206 38 q 94 209 118 138 q 71 374 71 281 q 110 583 71 497 q 224 713 150 668 q 397 758 297 758 q 566 713 493 758 q 681 583 639 668 q 722 374 722 497 m 196 374 q 217 222 196 286 q 282 122 238 157 q 396 88 326 88 q 510 122 465 88 q 576 222 554 157 q 597 374 597 286 q 576 525 597 463 q 510 622 554 588 q 394 656 465 656 q 243 581 290 656 q 196 374 196 506 z "},"п":{"ha":817,"x_min":110,"x_max":706,"o":"m 706 744 l 706 0 l 585 0 l 585 640 l 231 640 l 231 0 l 110 0 l 110 744 l 706 744 z "},"р":{"ha":804,"x_min":110,"x_max":733,"o":"m 447 758 q 655 663 576 758 q 733 374 733 567 q 697 160 733 247 q 597 30 661 74 q 446 -14 532 -14 q 351 1 392 -14 q 281 41 310 17 q 231 94 251 65 l 222 94 q 228 35 225 71 q 231 -28 231 -1 l 231 -333 l 110 -333 l 110 744 l 208 744 l 225 643 l 231 643 q 281 701 251 675 q 351 743 310 728 q 447 758 392 758 m 424 656 q 312 627 354 656 q 250 542 269 599 q 231 397 231 485 l 231 374 q 248 218 231 282 q 308 121 265 154 q 426 88 351 88 q 529 125 489 88 q 589 227 569 163 q 608 375 608 292 q 563 579 608 503 q 424 656 518 656 z "},"с":{"ha":631,"x_min":71,"x_max":588,"o":"m 392 -14 q 225 26 297 -14 q 112 151 153 67 q 71 368 71 236 q 114 592 71 506 q 231 718 157 678 q 400 758 306 758 q 505 747 454 758 q 588 718 556 735 l 550 617 q 476 640 518 629 q 397 651 433 651 q 285 619 329 651 q 218 525 240 588 q 196 369 196 463 q 218 218 196 281 q 284 124 240 156 q 392 92 328 92 q 493 104 449 92 q 575 135 538 117 l 575 26 q 496 -3 539 7 q 392 -14 453 -14 z "},"т":{"ha":629,"x_min":26,"x_max":601,"o":"m 601 642 l 372 642 l 372 0 l 253 0 l 253 642 l 26 642 l 26 744 l 601 744 l 601 642 z "},"у":{"ha":672,"x_min":1,"x_max":672,"o":"m 1 744 l 132 744 l 281 321 q 306 249 294 283 q 325 181 317 214 q 338 118 333 149 l 342 118 q 366 209 350 153 q 400 322 382 265 l 540 744 l 672 744 l 371 -103 q 312 -224 346 -172 q 229 -305 278 -276 q 113 -333 181 -333 q 58 -330 82 -333 q 17 -322 33 -326 l 17 -225 q 51 -231 31 -228 q 94 -233 72 -233 q 164 -217 135 -233 q 214 -172 193 -201 q 249 -101 235 -142 l 283 -3 l 1 744 z "},"ф":{"ha":956,"x_min":69,"x_max":885,"o":"m 536 756 q 719 697 642 746 q 841 567 797 649 q 885 372 885 485 q 843 177 885 260 q 724 47 801 94 q 536 -11 646 -1 l 536 -333 l 418 -333 l 418 -11 q 235 47 314 -1 q 113 177 157 94 q 69 372 69 260 q 111 569 69 486 q 232 699 153 651 q 422 756 311 747 l 422 1056 l 536 1056 l 536 756 m 422 654 q 293 611 343 646 q 219 517 243 576 q 196 372 196 457 q 219 228 196 289 q 293 133 243 168 q 422 89 343 97 l 422 654 m 536 89 q 662 133 613 99 q 735 228 711 168 q 760 372 760 289 q 735 515 760 456 q 661 610 711 575 q 536 653 611 644 l 536 89 z "},"х":{"ha":696,"x_min":22,"x_max":674,"o":"m 275 381 l 33 744 l 171 744 l 349 464 l 524 744 l 661 744 l 419 381 l 674 0 l 536 0 l 349 297 l 158 0 l 22 0 l 275 381 z "},"ц":{"ha":831,"x_min":110,"x_max":807,"o":"m 807 -258 l 690 -258 l 690 0 l 110 0 l 110 744 l 231 744 l 231 103 l 586 103 l 586 744 l 707 744 l 707 101 l 807 101 l 807 -258 z "},"ч":{"ha":804,"x_min":96,"x_max":694,"o":"m 217 474 q 250 377 217 408 q 347 346 283 346 q 465 367 413 346 q 574 425 518 389 l 574 744 l 694 744 l 694 0 l 574 0 l 574 332 q 459 269 517 292 q 324 246 401 246 q 156 306 215 246 q 96 465 96 365 l 96 744 l 217 744 l 217 474 z "},"ш":{"ha":1179,"x_min":110,"x_max":1068,"o":"m 1068 744 l 1068 0 l 110 0 l 110 744 l 231 744 l 231 103 l 528 103 l 528 744 l 649 744 l 649 103 l 946 103 l 946 744 l 1068 744 z "},"щ":{"ha":1190,"x_min":110,"x_max":1168,"o":"m 1067 744 l 1067 101 l 1168 101 l 1168 -257 l 1049 -257 l 1049 0 l 110 0 l 110 744 l 231 744 l 231 103 l 528 103 l 528 744 l 649 744 l 649 103 l 946 103 l 946 744 l 1067 744 z "},"ъ":{"ha":910,"x_min":22,"x_max":842,"o":"m 367 744 l 367 439 l 556 439 q 716 415 653 439 q 810 344 779 392 q 842 228 842 297 q 813 107 842 158 q 721 28 783 56 q 556 0 658 0 l 246 0 l 246 642 l 22 642 l 22 744 l 367 744 m 551 336 l 367 336 l 367 99 l 556 99 q 677 126 632 99 q 722 221 722 154 q 680 312 722 288 q 551 336 638 336 z "},"ы":{"ha":1022,"x_min":110,"x_max":913,"o":"m 110 0 l 110 744 l 231 744 l 231 439 l 406 439 q 558 415 499 439 q 647 345 618 392 q 676 228 676 299 q 648 107 676 158 q 559 28 619 56 q 401 0 499 0 l 110 0 m 390 99 q 510 126 464 99 q 556 221 556 153 q 513 313 556 289 q 392 338 471 338 l 231 338 l 231 99 l 390 99 m 792 0 l 792 744 l 913 744 l 913 0 l 792 0 z "},"ь":{"ha":778,"x_min":110,"x_max":710,"o":"m 433 439 q 586 415 525 439 q 678 345 647 392 q 710 228 710 299 q 681 107 710 158 q 590 28 651 56 q 429 0 528 0 l 110 0 l 110 744 l 231 744 l 231 439 l 433 439 m 589 221 q 544 313 589 289 q 421 338 500 338 l 231 338 l 231 99 l 424 99 q 542 126 494 99 q 589 221 589 154 z "},"э":{"ha":647,"x_min":39,"x_max":576,"o":"m 226 -14 q 122 -3 167 -14 q 39 26 78 7 l 39 132 q 125 103 79 115 q 229 90 171 90 q 344 116 296 90 q 419 196 392 142 q 451 333 447 250 l 113 333 l 113 433 l 450 433 q 391 600 442 547 q 244 653 340 653 q 161 642 206 653 q 81 617 117 631 l 46 715 q 136 746 83 733 q 243 758 189 758 q 417 719 342 758 q 534 596 492 681 q 576 372 576 511 q 532 154 576 240 q 408 27 488 68 q 226 -14 329 -14 z "},"ю":{"ha":1094,"x_min":110,"x_max":1024,"o":"m 1024 374 q 986 163 1024 250 q 878 31 949 76 q 713 -14 808 -14 q 558 26 625 -14 q 451 142 490 65 q 404 332 411 219 l 231 332 l 231 0 l 110 0 l 110 744 l 231 744 l 231 435 l 406 435 q 455 612 415 540 q 561 721 494 683 q 715 758 628 758 q 876 713 807 758 q 985 583 946 668 q 1024 374 1024 497 m 528 374 q 547 217 528 281 q 608 120 567 153 q 714 88 650 88 q 820 120 779 88 q 880 217 861 153 q 899 374 899 281 q 879 529 899 467 q 819 624 860 592 q 714 656 779 656 q 608 624 650 656 q 547 529 567 592 q 528 374 528 467 z "},"я":{"ha":733,"x_min":19,"x_max":624,"o":"m 158 0 l 19 0 l 218 313 q 141 348 178 324 q 81 416 104 372 q 57 525 57 460 q 126 688 57 632 q 308 744 194 744 l 624 744 l 624 0 l 503 0 l 503 296 l 338 296 l 158 0 m 175 524 q 219 428 175 460 q 342 397 263 397 l 503 397 l 503 643 l 319 643 q 208 610 242 643 q 175 524 175 576 z "},"ё":{"ha":739,"x_min":71,"x_max":674,"o":"m 382 758 q 538 717 472 758 q 638 599 603 675 q 674 422 674 524 l 674 349 l 196 349 q 256 156 199 222 q 415 90 313 90 q 534 103 482 90 q 642 142 586 117 l 642 35 q 535 -2 588 10 q 410 -14 483 -14 q 233 29 310 -14 q 114 158 157 72 q 71 367 71 243 q 110 576 71 489 q 219 711 149 664 q 382 758 289 758 m 382 658 q 254 602 301 658 q 199 446 207 546 l 549 446 q 531 557 549 510 q 476 631 513 604 q 382 658 439 658 m 186 946 q 205 998 186 982 q 250 1014 224 1014 q 294 998 275 1014 q 313 946 313 982 q 294 894 313 911 q 250 876 275 876 q 205 894 224 876 q 186 946 186 911 m 432 946 q 451 998 432 982 q 494 1014 469 1014 q 540 998 521 1014 q 558 946 558 982 q 540 894 558 911 q 494 876 521 876 q 451 894 469 876 q 432 946 432 911 z "},"ђ":{"ha":811,"x_min":11,"x_max":707,"o":"m 522 -333 q 469 -328 492 -333 q 432 -317 447 -324 l 432 -217 q 466 -226 449 -222 q 504 -231 483 -231 q 563 -206 539 -231 q 586 -115 586 -182 l 586 450 q 549 584 586 540 q 433 628 511 628 q 313 597 357 628 q 251 506 269 565 q 232 358 232 446 l 232 0 l 110 0 l 110 840 l 11 840 l 11 931 l 110 931 l 110 1056 l 232 1056 l 232 931 l 478 931 l 478 840 l 232 840 l 232 718 q 230 665 232 692 q 226 615 228 639 l 233 615 q 290 679 256 654 q 365 717 324 704 q 451 731 407 731 q 592 702 536 731 q 678 614 649 674 q 707 458 707 554 l 707 -110 q 687 -230 707 -179 q 626 -307 667 -281 q 522 -333 585 -333 z "},"ѓ":{"ha":569,"x_min":110,"x_max":542,"o":"m 542 744 l 542 642 l 231 642 l 231 0 l 110 0 l 110 744 l 542 744 m 514 1050 q 478 1003 501 1031 q 428 945 456 975 q 374 888 401 915 q 322 842 346 861 l 243 842 l 243 858 q 286 921 263 885 q 332 995 310 957 q 369 1064 354 1033 l 514 1064 l 514 1050 z "},"є":{"ha":650,"x_min":71,"x_max":606,"o":"m 406 -14 q 233 26 308 -14 q 114 150 157 65 q 71 368 71 235 q 115 593 71 507 q 236 719 160 679 q 410 758 313 758 q 515 747 463 758 q 606 718 567 736 l 569 618 q 488 643 532 633 q 407 653 444 653 q 297 629 340 653 q 228 557 253 606 q 196 433 203 508 l 533 433 l 533 333 l 194 333 q 223 197 199 251 q 292 117 247 143 q 403 90 336 90 q 508 103 461 90 q 594 132 554 115 l 594 26 q 511 -3 556 7 q 406 -14 467 -14 z "},"ѕ":{"ha":628,"x_min":67,"x_max":569,"o":"m 569 206 q 535 85 569 133 q 439 11 501 36 q 289 -14 376 -14 q 162 -1 215 -14 q 68 33 108 11 l 68 144 q 171 103 111 122 q 292 85 231 85 q 415 115 376 85 q 453 194 453 144 q 438 244 453 222 q 387 289 424 267 q 281 339 350 311 q 166 394 214 367 q 92 461 118 422 q 67 561 67 500 q 140 707 67 656 q 331 758 213 758 q 450 745 394 758 q 556 708 506 732 l 515 611 q 454 635 486 625 q 390 652 422 646 q 324 658 357 658 q 219 634 256 658 q 183 568 183 610 q 200 515 183 538 q 255 473 217 493 q 360 426 293 453 q 474 372 426 400 q 545 305 521 344 q 569 206 569 265 z "},"і":{"ha":342,"x_min":101,"x_max":242,"o":"m 232 744 l 232 0 l 111 0 l 111 744 l 232 744 m 172 1024 q 221 1005 200 1024 q 242 946 242 986 q 221 888 242 907 q 172 868 200 868 q 122 888 143 868 q 101 946 101 907 q 122 1005 101 986 q 172 1024 143 1024 z "},"ї":{"ha":340,"x_min":-15,"x_max":357,"o":"m 231 0 l 110 0 l 110 744 l 231 744 l 231 0 z "},"ј":{"ha":342,"x_min":-72,"x_max":242,"o":"m 31 -333 q -28 -328 -3 -333 q -72 -317 -54 -324 l -72 -218 q -32 -228 -53 -224 q 14 -232 -11 -232 q 84 -208 57 -232 q 111 -115 111 -183 l 111 744 l 232 744 l 232 -111 q 211 -231 232 -181 q 146 -307 190 -281 q 31 -333 101 -333 m 101 946 q 122 1005 101 986 q 172 1024 143 1024 q 221 1005 200 1024 q 242 946 242 986 q 221 888 242 907 q 172 868 200 868 q 122 888 143 868 q 101 946 101 907 z "},"љ":{"ha":1104,"x_min":8,"x_max":1036,"o":"m 608 744 l 608 439 l 764 439 q 917 415 857 439 q 1006 344 976 392 q 1036 228 1036 297 q 1008 107 1036 158 q 917 28 979 56 q 753 0 854 0 l 486 0 l 486 642 l 324 642 q 291 342 311 465 q 242 140 271 218 q 171 26 213 63 q 74 -10 129 -10 q 36 -8 53 -10 q 8 0 19 -6 l 8 90 q 25 87 15 89 q 44 85 35 85 q 95 110 72 85 q 138 187 118 135 q 172 317 157 239 q 199 503 188 396 q 221 744 211 610 l 608 744 m 744 336 l 608 336 l 608 99 l 749 99 q 869 126 822 99 q 915 221 915 154 q 872 312 915 288 q 744 336 828 336 z "},"њ":{"ha":1156,"x_min":110,"x_max":1088,"o":"m 661 744 l 661 438 l 814 438 q 969 414 908 438 q 1058 344 1029 390 q 1088 228 1088 297 q 1059 107 1088 158 q 969 28 1031 56 q 807 0 908 0 l 538 0 l 538 332 l 233 332 l 233 0 l 110 0 l 110 744 l 233 744 l 233 435 l 539 435 l 539 744 l 661 744 m 799 336 l 660 336 l 660 99 l 801 99 q 922 126 875 99 q 968 221 968 154 q 925 312 968 288 q 799 336 882 336 z "},"ћ":{"ha":811,"x_min":11,"x_max":706,"o":"m 232 1056 l 232 931 l 503 931 l 503 839 l 232 839 l 232 718 q 230 665 232 692 q 225 615 228 638 l 233 615 q 289 679 256 654 q 364 717 322 704 q 451 731 406 731 q 592 702 535 731 q 677 613 649 674 q 706 457 706 553 l 706 0 l 586 0 l 586 449 q 549 583 586 539 q 432 628 511 628 q 312 597 356 628 q 250 506 268 565 q 232 358 232 446 l 232 0 l 110 0 l 110 839 l 11 839 l 11 931 l 110 931 l 110 1056 l 232 1056 z "},"ќ":{"ha":699,"x_min":110,"x_max":685,"o":"m 528 744 l 660 744 l 363 386 l 685 0 l 544 0 l 231 378 l 231 0 l 110 0 l 110 744 l 231 744 l 231 383 l 528 744 m 556 1050 q 520 1003 543 1031 q 470 945 497 975 q 415 888 443 915 q 364 842 388 861 l 285 842 l 285 858 q 328 921 304 885 q 374 995 351 957 q 411 1064 396 1033 l 556 1064 l 556 1050 z "},"ў":{"ha":672,"x_min":1,"x_max":672,"o":"m 588 1053 q 555 936 582 983 q 474 865 528 889 q 336 842 421 842 q 197 865 249 842 q 120 935 144 889 q 90 1053 96 982 l 203 1053 q 240 952 210 978 q 338 926 269 926 q 433 953 399 926 q 474 1053 468 981 l 588 1053 m 1 744 l 132 744 l 281 321 q 306 249 294 283 q 325 181 317 214 q 338 118 333 149 l 342 118 q 366 209 350 153 q 400 322 382 265 l 540 744 l 672 744 l 371 -103 q 312 -224 346 -172 q 229 -305 278 -276 q 113 -333 181 -333 q 58 -330 82 -333 q 17 -322 33 -326 l 17 -225 q 51 -231 31 -228 q 94 -233 72 -233 q 164 -217 135 -233 q 214 -172 193 -201 q 249 -101 235 -142 l 283 -3 l 1 744 z "},"џ":{"ha":821,"x_min":110,"x_max":710,"o":"m 354 0 l 110 0 l 110 744 l 231 744 l 231 103 l 589 103 l 589 744 l 710 744 l 710 0 l 471 0 l 471 -257 l 354 -257 l 354 0 z "},"Ґ":{"ha":700,"x_min":126,"x_max":671,"o":"m 671 1196 l 671 881 l 250 881 l 250 0 l 126 0 l 126 992 l 556 992 l 556 1196 l 671 1196 z "},"ґ":{"ha":576,"x_min":110,"x_max":546,"o":"m 546 961 l 546 650 l 231 650 l 231 0 l 110 0 l 110 744 l 429 744 l 429 961 l 546 961 z "},"Ẁ":{"ha":1217,"x_min":14,"x_max":1201,"o":"m 1201 992 l 954 0 l 828 0 l 651 650 q 635 710 643 679 q 621 768 628 740 q 610 816 614 796 q 604 846 606 836 q 599 816 603 836 q 589 768 594 796 q 576 709 583 740 q 560 646 568 678 l 388 0 l 260 0 l 14 992 l 143 992 l 286 386 q 304 303 296 344 q 319 223 313 261 q 329 150 325 185 q 342 227 335 186 q 358 310 349 268 q 379 393 368 351 l 540 992 l 668 992 l 836 389 q 858 303 849 346 q 874 221 867 260 q 886 150 882 182 q 897 223 890 185 q 913 303 904 261 q 932 388 922 344 l 1074 992 l 1201 992 z "},"ẁ":{"ha":1032,"x_min":14,"x_max":1018,"o":"m 568 421 q 538 533 553 478 q 518 618 524 588 l 513 618 q 494 533 507 588 q 464 419 481 478 l 343 1 l 207 1 l 14 746 l 139 746 l 235 349 q 253 267 244 308 q 269 190 263 226 q 279 126 276 153 l 285 126 q 297 185 289 150 q 313 258 304 219 q 331 326 322 296 l 451 746 l 585 746 l 701 326 q 720 258 711 294 q 737 188 729 222 q 747 128 744 154 l 751 128 q 769 224 756 163 q 799 349 783 285 l 896 746 l 1018 746 l 824 1 l 683 1 l 568 421 z "},"Ẃ":{"ha":1217,"x_min":14,"x_max":1201,"o":"m 1201 992 l 954 0 l 828 0 l 651 650 q 635 710 643 679 q 621 768 628 740 q 610 816 614 796 q 604 846 606 836 q 599 816 603 836 q 589 768 594 796 q 576 709 583 740 q 560 646 568 678 l 388 0 l 260 0 l 14 992 l 143 992 l 286 386 q 304 303 296 344 q 319 223 313 261 q 329 150 325 185 q 342 227 335 186 q 358 310 349 268 q 379 393 368 351 l 540 992 l 668 992 l 836 389 q 858 303 849 346 q 874 221 867 260 q 886 150 882 182 q 897 223 890 185 q 913 303 904 261 q 932 388 922 344 l 1074 992 l 1201 992 z "},"ẃ":{"ha":1032,"x_min":14,"x_max":1018,"o":"m 568 421 q 538 533 553 478 q 518 618 524 588 l 513 618 q 494 533 507 588 q 464 419 481 478 l 343 1 l 207 1 l 14 746 l 139 746 l 235 349 q 253 267 244 308 q 269 190 263 226 q 279 126 276 153 l 285 126 q 297 185 289 150 q 313 258 304 219 q 331 326 322 296 l 451 746 l 585 746 l 701 326 q 720 258 711 294 q 737 188 729 222 q 747 128 744 154 l 751 128 q 769 224 756 163 q 799 349 783 285 l 896 746 l 1018 746 l 824 1 l 683 1 l 568 421 z "},"Ẅ":{"ha":1217,"x_min":14,"x_max":1201,"o":"m 1201 992 l 954 0 l 828 0 l 651 650 q 635 710 643 679 q 621 768 628 740 q 610 816 614 796 q 604 846 606 836 q 599 816 603 836 q 589 768 594 796 q 576 709 583 740 q 560 646 568 678 l 388 0 l 260 0 l 14 992 l 143 992 l 286 386 q 304 303 296 344 q 319 223 313 261 q 329 150 325 185 q 342 227 335 186 q 358 310 349 268 q 379 393 368 351 l 540 992 l 668 992 l 836 389 q 858 303 849 346 q 874 221 867 260 q 886 150 882 182 q 897 223 890 185 q 913 303 904 261 q 932 388 922 344 l 1074 992 l 1201 992 z "},"ẅ":{"ha":1032,"x_min":14,"x_max":1018,"o":"m 568 421 q 538 533 553 478 q 518 618 524 588 l 513 618 q 494 533 507 588 q 464 419 481 478 l 343 1 l 207 1 l 14 746 l 139 746 l 235 349 q 253 267 244 308 q 269 190 263 226 q 279 126 276 153 l 285 126 q 297 185 289 150 q 313 258 304 219 q 331 326 322 296 l 451 746 l 585 746 l 701 326 q 720 258 711 294 q 737 188 729 222 q 747 128 744 154 l 751 128 q 769 224 756 163 q 799 349 783 285 l 896 746 l 1018 746 l 824 1 l 683 1 l 568 421 z "},"Ỳ":{"ha":744,"x_min":0,"x_max":744,"o":"m 372 504 l 611 992 l 744 992 l 435 385 l 435 0 l 311 0 l 311 379 l 0 992 l 135 992 l 372 504 z "},"ỳ":{"ha":672,"x_min":1,"x_max":672,"o":"m 1 744 l 132 744 l 281 321 q 306 249 294 283 q 325 181 317 214 q 338 118 333 149 l 342 118 q 366 209 350 153 q 400 322 382 265 l 540 744 l 672 744 l 371 -103 q 312 -224 346 -172 q 229 -305 278 -276 q 113 -333 181 -333 q 58 -330 82 -333 q 17 -322 33 -326 l 17 -225 q 51 -231 31 -228 q 94 -233 72 -233 q 164 -217 135 -233 q 214 -172 193 -201 q 249 -101 235 -142 l 283 -3 l 1 744 z "},"–":{"ha":654,"x_min":53,"x_max":601,"o":"m 53 318 l 53 426 l 601 426 l 601 318 l 53 318 z "},"—":{"ha":1307,"x_min":53,"x_max":1254,"o":"m 53 318 l 53 426 l 1254 426 l 1254 318 l 53 318 z "},"―":{"ha":1307,"x_min":53,"x_max":1254,"o":"m 53 318 l 53 426 l 1254 426 l 1254 318 l 53 318 z "},"‗":{"ha":536,"x_min":-3,"x_max":539,"o":"m 539 -308 l -3 -308 l -3 -219 l 539 -219 l 539 -308 m 539 -125 l -3 -125 l -3 -36 l 539 -36 l 539 -125 z "}}}
